<?xml version="1.0" encoding="UTF-8" standalone="no"?>
<svg
   xmlns:dc="http://purl.org/dc/elements/1.1/"
   xmlns:cc="http://creativecommons.org/ns#"
   xmlns:rdf="http://www.w3.org/1999/02/22-rdf-syntax-ns#"
   xmlns:svg="http://www.w3.org/2000/svg"
   xmlns="http://www.w3.org/2000/svg"
   xmlns:sodipodi="http://sodipodi.sourceforge.net/DTD/sodipodi-0.dtd"
   xmlns:inkscape="http://www.inkscape.org/namespaces/inkscape"
   style="fill:#ffffff"
   id="svg4"
   version="1.1"
   height="15"
   width="25"
   viewBox="0 0 25 15"
   sodipodi:docname="icon-toolbar-info.svg"
   inkscape:version="0.92.3 (2405546, 2018-03-11)">
  <sodipodi:namedview
     pagecolor="#ffffff"
     bordercolor="#666666"
     borderopacity="1"
     objecttolerance="10"
     gridtolerance="10"
     guidetolerance="10"
     inkscape:pageopacity="0"
     inkscape:pageshadow="2"
     inkscape:window-width="1920"
     inkscape:window-height="1020"
     id="namedview6"
     showgrid="false"
     inkscape:zoom="15.733333"
     inkscape:cx="7.6271186"
     inkscape:cy="7.5"
     inkscape:window-x="0"
     inkscape:window-y="31"
     inkscape:window-maximized="1"
     inkscape:current-layer="svg4" />
  <metadata
     id="metadata10">
    <rdf:RDF>
      <cc:Work
         rdf:about="">
        <dc:format>image/svg+xml</dc:format>
        <dc:type
           rdf:resource="http://purl.org/dc/dcmitype/StillImage" />
        <dc:title></dc:title>
      </cc:Work>
    </rdf:RDF>
  </metadata>
  <defs
     id="defs8" />
  <path
     style="stroke-width:0.62711865"
     id="path2"
     d="m 12.800847,0.01271182 c -4.1571101,0 -7.5254233,3.36831348 -7.5254233,7.52542348 0,4.1571107 3.3683132,7.5254237 7.5254233,7.5254237 4.157111,0 7.525424,-3.368313 7.525424,-7.5254237 0,-4.15711 -3.368313,-7.52542348 -7.525424,-7.52542348 z m 0,1.25423748 c 3.463852,0 6.271187,2.807336 6.271187,6.271186 0,3.4638507 -2.807335,6.2711867 -6.271187,6.2711867 -3.4638499,0 -6.271186,-2.807336 -6.271186,-6.2711867 0,-3.46385 2.8073361,-6.271186 6.271186,-6.271186 z m 0,2.39089 c -0.115135,0 -0.210672,-0.0024 -0.313559,0.0196 -0.102886,0.02205 -0.198424,0.07839 -0.274364,0.137182 -0.07594,0.05879 -0.132283,0.139632 -0.176377,0.235169 -0.04409,0.09554 -0.05879,0.208223 -0.05879,0.352755 0,0.142081 0.0147,0.254767 0.05879,0.352754 0.04409,0.09799 0.100436,0.176377 0.176377,0.235169 0.07594,0.05879 0.171478,0.09309 0.274364,0.117585 0.102887,0.0245 0.198424,0.03919 0.313559,0.03919 0.112686,0 0.23272,-0.0147 0.333157,-0.03919 0.100437,-0.0245 0.178827,-0.05879 0.254767,-0.117585 0.07594,-0.05879 0.132283,-0.137182 0.176377,-0.235169 0.04409,-0.09554 0.07839,-0.210673 0.07839,-0.352754 0,-0.144532 -0.0343,-0.257217 -0.07839,-0.352755 -0.04409,-0.09554 -0.100436,-0.176376 -0.176377,-0.235169 -0.07594,-0.05879 -0.15433,-0.115135 -0.254767,-0.137182 -0.100437,-0.02205 -0.220471,-0.0196 -0.333157,-0.0196 z m -0.7643,2.096928 v 5.6244697 h 1.528601 V 5.7547673 Z"
     inkscape:connector-curvature="0" />
</svg>
