<?xml version="1.0" encoding="UTF-8"?>
<svg xmlns="http://www.w3.org/2000/svg" viewBox="0 0 60 60">
<circle
   id="path3717"
   cx="30"
   cy="30"
   r="14.0625"
   style="fill:#8c8b94;fill-opacity:1;stroke-width:0.97840512" />
<path
   style="fill:#dddddd;fill-opacity:1;stroke-width:0.97898227"
   d="M 29.999998,0 A 30,30 0 0 0 9.299925,8.303833 l 10.367436,10.367432 a 15.349576,15.349576 0 0 1 10.332637,-4.020997 15.349576,15.349576 0 0 1 10.332647,4.022828 L 50.700073,8.305664 A 30,30 0 0 0 29.999998,0 Z"
   id="path4619" />
<path
   style="fill:#dddddd;fill-opacity:1;stroke-width:0.97898227"
   d="M 8.32215,9.314575 A 30,30 0 0 0 0,30 30,30 0 0 0 8.320313,50.685425 L 18.673095,40.332642 A 15.349576,15.349576 0 0 1 14.650275,30 15.349576,15.349576 0 0 1 18.674923,19.667359 Z"
   id="path4617" />
<path
   style="fill:#dddddd;fill-opacity:1;stroke-width:0.97898227"
   d="M 51.677857,9.314575 41.326901,19.665528 A 15.349576,15.349576 0 0 1 45.349732,30 15.349576,15.349576 0 0 1 41.326901,40.33081 L 51.681523,50.685425 A 30,30 0 0 0 60,30 30,30 0 0 0 51.677857,9.314575 Z"
   id="path4615" />
<path
   style="fill:#dddddd;fill-opacity:1;stroke-width:0.97898227"
   d="M 19.667361,41.325073 9.298097,51.694336 A 30,30 0 0 0 29.999998,60 30,30 0 0 0 50.701901,51.694336 L 40.334473,41.326904 A 15.349576,15.349576 0 0 1 29.999998,45.349732 15.349576,15.349576 0 0 1 19.667361,41.325073 Z"
   id="path3715-6" />
</svg>
