<?xml version="1.0" encoding="UTF-8"?>
<svg xmlns="http://www.w3.org/2000/svg" viewBox="0 0 90 56">
<defs
   id="defs16" />
<g
   transform="matrix(3.7795276,0,0,3.7795276,624.99997,-545.94824)"
   id="layer1">
  <g
     transform="matrix(3.2661683,0,0,3.3181357,347.76241,-352.02546)"
     id="g1445">
    <path
       id="path12534"
       d="m -155.54078,149.68472 c 0,0 -0.45434,-0.17818 -0.91448,0.1916 0,0 -0.54651,0.36689 -0.64703,1.91316 0,0 -0.0305,0.25729 0.19668,0.29539 0,0 0.22899,0.0443 0.25911,-0.14878 0.0301,-0.1927 0.0243,-1.16851 0.45651,-1.66893 0,0 0.0421,-0.0631 0.1575,-0.1125 0.0958,-0.0592 0.17164,-0.16729 0.22826,-0.25293 0,0 0.0845,-0.11214 0.26345,-0.21701"
       style="fill:#ffffff;fill-opacity:1;fill-rule:nonzero;stroke:none;stroke-width:0.09289981" />
    <path
       id="path12536"
       d="m -154.72101,149.64879 c 0,0 -0.40389,-0.1281 -0.83827,0.20358 0,0 -0.5164,0.31572 -0.63688,1.5695 0,0 -0.0443,0.30955 -0.0199,0.46631 0,0 0.0199,0.18326 0.20866,0.19923 0,0 0.22753,0.0178 0.24205,-0.1956 0.0142,-0.21301 0.0192,-0.29974 0.0192,-0.29974 0,0 0.0359,-0.83356 0.37414,-1.25596 l 0.082,0.0613 c 0,0 0.11504,-0.43764 0.56901,-0.74864"
       style="fill:#ffffff;fill-opacity:1;fill-rule:nonzero;stroke:none;stroke-width:0.09289981" />
    <path
       id="path12538"
       d="m -153.90088,149.64879 c 0,0 -0.5407,-0.12628 -0.9319,0.29902 0,0 -0.38865,0.34656 -0.50296,1.20661 0,0 -0.0483,0.46232 -0.0563,0.68732 0,0 -0.004,0.21809 0.20576,0.24603 0,0 0.21592,0.0134 0.23007,-0.21592 0,0 0.0142,-1.05346 0.4039,-1.53574 l 0.0965,0.0602 c 0,0 0.16875,-0.48699 0.55486,-0.74755"
       style="fill:#ffffff;fill-opacity:1;fill-rule:nonzero;stroke:none;stroke-width:0.09289981" />
    <path
       id="path12540"
       d="m -153.27888,149.63718 c 0,0 -0.54434,-0.0221 -0.86368,0.52655 0,0 -0.36942,0.53744 -0.36797,1.63954 0,0 -0.0225,0.26055 0.18253,0.28487 0,0 0.24241,0.0149 0.24241,-0.26237 0,0 0.0109,-1.08686 0.42567,-1.52595 0,0 0.36725,0.44054 0.39737,1.47768 0,0 0.0127,0.7109 0.14551,1.10283 0,0 0.11976,-0.43946 0.14407,-1.04839 0,0 -0.0102,-0.11141 0.0864,-0.18979 0,0 0.0635,-0.0312 0.0512,-0.14189 0,0 -0.0889,-0.90505 -0.39011,-1.41745 0,0 0.63869,-0.0417 0.76534,1.23636 0,0 0.001,0.18725 0.10487,0.30338 0,0 0.0759,0.0541 0.0835,0.18507 0,0 0.0189,0.18109 -0.0356,0.76606 0,0 -0.0127,0.1281 0.0436,0.30991 0,0 0.15786,-0.43692 0.11613,-0.86476 0,0 -0.0207,-0.34765 0.15205,-0.46487 0,0 -0.0145,-0.97036 -0.40027,-1.50091 0,0 -0.30555,-0.43982 -0.88291,-0.41587"
       style="fill:#ffffff;fill-opacity:1;fill-rule:nonzero;stroke:none;stroke-width:0.09289981" />
    <path
       style="clip-rule:nonzero;fill:#ffffff;fill-opacity:1;fill-rule:nonzero;stroke:none;stroke-width:0.09289981"
       d="m -151.37553,154.02924 c 0,0 0.45398,0.17817 0.91412,-0.19161 0,0 0.54688,-0.36688 0.64704,-1.91316 0,0 0.0305,-0.25729 -0.19669,-0.29539 0,0 -0.22862,-0.0443 -0.2591,0.14879 -0.0301,0.19305 -0.0243,1.1685 -0.45652,1.66893 0,0 -0.0421,0.0631 -0.15713,0.11249 -0.0962,0.0595 -0.17165,0.16729 -0.22826,0.25294 0,0 -0.0846,0.11213 -0.26346,0.21701"
       id="path12544" />
    <path
       style="clip-rule:nonzero;fill:#ffffff;fill-opacity:1;fill-rule:nonzero;stroke:none;stroke-width:0.09289981"
       d="m -152.19566,154.06552 c 0,0 0.4039,0.1281 0.83864,-0.20394 0,0 0.51603,-0.31571 0.63651,-1.5695 0,0 0.0443,-0.30954 0.02,-0.46631 0,0 -0.0196,-0.18326 -0.20866,-0.19923 0,0 -0.22753,-0.0178 -0.24169,0.1956 -0.0142,0.21302 -0.0196,0.29975 -0.0196,0.29975 0,0 -0.0359,0.83355 -0.37414,1.25596 l -0.0816,-0.061 c 0,0 -0.11504,0.43728 -0.56938,0.74864"
       id="path12548" />
    <path
       style="clip-rule:nonzero;fill:#ffffff;fill-opacity:1;fill-rule:nonzero;stroke:none;stroke-width:0.09289981"
       d="m -153.01579,154.06552 c 0,0 0.54071,0.12593 0.93226,-0.29938 0,0 0.3883,-0.34656 0.50297,-1.20661 0,0 0.0483,-0.46232 0.0562,-0.68731 0,0 0.004,-0.2181 -0.20576,-0.24604 0,0 -0.21628,-0.0134 -0.23007,0.21592 0,0 -0.0145,1.05347 -0.40426,1.53575 l -0.0965,-0.0599 c 0,0 -0.16874,0.48664 -0.55486,0.74755"
       id="path12552" />
    <path
       style="clip-rule:nonzero;fill:#ffffff;fill-opacity:1;fill-rule:nonzero;stroke:none;stroke-width:0.09289981"
       d="m -153.63778,154.07677 c 0,0 0.54433,0.0221 0.86368,-0.52655 0,0 0.36942,-0.5378 0.36797,-1.63954 0,0 0.0225,-0.26055 -0.18254,-0.28486 0,0 -0.24241,-0.0149 -0.24241,0.26236 0,0 -0.0109,1.08686 -0.42567,1.52596 0,0 -0.36724,-0.44055 -0.39736,-1.47769 0,0 -0.0127,-0.7109 -0.14552,-1.10282 0,0 -0.11975,0.43946 -0.14371,1.04839 0,0 0.01,0.1114 -0.0867,0.18979 0,0 -0.0635,0.0312 -0.0512,0.14189 0,0 0.0889,0.90504 0.39046,1.41781 0,0 -0.63904,0.0414 -0.76569,-1.23673 0,0 -0.001,-0.18689 -0.10488,-0.30338 0,0 -0.0758,-0.0541 -0.0835,-0.18507 0,0 -0.0185,-0.18108 0.0356,-0.7657 0,0 0.0127,-0.1281 -0.0432,-0.31027 0,0 -0.15786,0.43692 -0.11649,0.86477 0,0 0.0207,0.34765 -0.15205,0.46486 0,0 0.0145,0.97037 0.40063,1.50091 0,0 0.30519,0.44019 0.88255,0.41587"
       id="path12556" />
  </g>
</g>
</svg>
