<?xml version="1.0" encoding="UTF-8"?>
<svg xmlns="http://www.w3.org/2000/svg" width="26" height="26">
  <path
     id="rect2097"
     style="fill:#000000;fill-opacity:1;stroke:#c0b400;stroke-width:0;stroke-dasharray:none;stroke-opacity:1"
     d="m 11.608162,3.6949607 c -4.5771128,0 -8.2623108,2.8855033 -8.2623108,6.4682993 v 8.319483 c 0,3.582796 3.685198,6.466328 8.2623108,6.466328 h 2.783676 c 4.577114,0 8.262311,-2.883532 8.262311,-6.466328 V 10.16326 c 0,-3.582796 -3.685197,-6.4682993 -8.262311,-6.4682993 z m 9.196775,5.7526663 c 0.209041,-2.17e-5 0.378513,0.1976957 0.378517,0.4416032 -2e-6,0.2430118 -0.168275,0.4403578 -0.376545,0.4416028 l -15.6118456,0.04534 c -0.210472,0.0013 -0.3814259,-0.197995 -0.3804881,-0.4435734 4.3e-6,-0.2439072 0.1694761,-0.4416244 0.3785166,-0.4416029 z m -2.018171,2.095642 c 0.315065,0 0.636568,0.03941 0.964035,0.116315 0.329949,0.07442 0.685013,0.20136 1.064579,0.38246 v 0.87532 h -0.06703 c -0.0769,-0.05953 -0.188777,-0.13785 -0.335146,-0.234601 -0.146367,-0.09674 -0.290338,-0.177987 -0.431745,-0.242488 -0.171177,-0.0769 -0.367205,-0.139643 -0.585517,-0.189259 -0.215833,-0.05209 -0.459978,-0.07887 -0.735349,-0.07887 -0.620203,0 -1.112439,0.199908 -1.474638,0.599319 -0.359719,0.396931 -0.540175,0.934865 -0.540175,1.614611 0,0.716955 0.18872,1.276312 0.565804,1.675725 0.377084,0.39693 0.891693,0.595376 1.541668,0.595376 0.238159,0 0.474041,-0.02383 0.709718,-0.07097 0.238159,-0.04713 0.446329,-0.108921 0.624948,-0.183344 v -1.358324 h -1.484494 v -0.646633 h 2.213927 v 2.37756 c -0.302659,0.138926 -0.633888,0.260522 -0.993606,0.364716 -0.357238,0.101713 -0.702066,0.151801 -1.036978,0.151801 -0.431661,0 -0.827089,-0.05835 -1.186808,-0.17743 -0.35972,-0.119079 -0.667621,-0.298074 -0.920663,-0.536231 -0.255525,-0.24064 -0.452507,-0.541231 -0.591433,-0.900949 -0.138926,-0.3622 -0.207001,-0.783877 -0.207001,-1.267637 0,-0.885652 0.256796,-1.584594 0.772805,-2.095643 0.518491,-0.513529 1.230082,-0.770834 2.1331,-0.770834 z M 6.1492411,11.643817 h 0.7373191 v 4.885233 h 2.7679039 v 0.65649 h -3.505223 z m 5.1230009,0 h 1.502239 c 0.332429,0 0.615032,0.02772 0.845748,0.08477 0.230714,0.05458 0.434499,0.143123 0.613118,0.262203 0.210868,0.141407 0.372831,0.317476 0.486946,0.528346 0.116599,0.21087 0.175459,0.475926 0.175459,0.798433 0,0.245601 -0.04329,0.475194 -0.130116,0.686062 -0.08434,0.208389 -0.203019,0.388336 -0.35683,0.542147 -0.191024,0.191023 -0.417693,0.334993 -0.678176,0.431745 -0.260487,0.09428 -0.588791,0.141945 -0.985721,0.141945 h -0.73732 v 2.06607 h -0.735347 z m 0.735347,0.632834 v 2.213929 h 0.621006 c 0.297697,0 0.541399,-0.02676 0.72746,-0.07887 0.186063,-0.05458 0.336833,-0.139692 0.453433,-0.256288 0.116598,-0.119079 0.197323,-0.243091 0.244458,-0.374574 0.04961,-0.131483 0.07491,-0.27984 0.07491,-0.443574 0,-0.191023 -0.03356,-0.357367 -0.100548,-0.498775 -0.06699,-0.141405 -0.16913,-0.257665 -0.305574,-0.346974 -0.119079,-0.0769 -0.254278,-0.131379 -0.408089,-0.163629 -0.15133,-0.03474 -0.344438,-0.05126 -0.577632,-0.05126 z m 8.797348,5.995154 c 0.20904,-2.1e-5 0.378512,0.197696 0.378517,0.441603 -3e-6,0.243011 -0.168275,0.440357 -0.376545,0.441602 L 5.1930919,19.198379 C 4.9847096,19.198402 4.8155103,19.001884 4.8145753,18.758747 4.8136444,18.514071 4.9833902,18.31515 5.1930919,18.315173 Z"/>
  <path
     id="rect2220"
     style="fill:#000000;fill-opacity:1;stroke:#c0b400;stroke-width:0;stroke-linejoin:round;stroke-dasharray:none;stroke-opacity:1"
     d="M 5.9886367,21.611889 V 25 H 20.011365 v -3.388111 c -1.471734,1.06795 -3.443826,1.71969 -5.618979,1.719692 h -2.784773 c -2.1751505,0 -4.1472404,-0.65174 -5.6189763,-1.719692 z" />
  <path
     id="rect2220-2"
     style="fill:#000000;fill-opacity:1;stroke:#c0b400;stroke-width:0;stroke-linejoin:round;stroke-dasharray:none;stroke-opacity:1"
     d="M 7.3469506,6.8615081 V 3.4731538 H 18.659103 V 6.8615081 C 17.471854,5.793481 15.880964,5.1416961 14.126267,5.1416932 h -2.246481 c -1.754697,0 -3.3455848,0.6517869 -4.5328354,1.7198149 z" />
  <rect
     style="fill:#000000;fill-opacity:1;stroke:#c0b400;stroke-width:0;stroke-linejoin:round;stroke-dasharray:none;stroke-opacity:1"
     id="rect2722"
     width="0.79592872"
     height="4.1787734"
     x="7.3408971"
     y="1.0000001" />
  <rect
     style="fill:#000000;fill-opacity:1;stroke:#c0b400;stroke-width:0;stroke-linejoin:round;stroke-dasharray:none;stroke-opacity:1"
     id="rect2722-5"
     width="0.79592872"
     height="4.1787734"
     x="17.863174"
     y="1.0000001" />
  <rect
     style="fill:#000000;fill-opacity:1;stroke:#c0b400;stroke-width:0;stroke-linecap:round;stroke-linejoin:round;stroke-dasharray:none;stroke-opacity:1"
     id="rect5679"
     width="1.955905"
     height="2.6300373"
     x="12.022047"
     y="1.8279605"
     rx="0.5047496" />
</svg>
