<?xml version="1.0" encoding="UTF-8"?>
<svg xmlns="http://www.w3.org/2000/svg" viewBox="0 0 88 14">
<path
   style="fill:#ffffff;fill-opacity:1;fill-rule:nonzero;stroke:none;stroke-width:0.30763966;opacity:0.5"
   d="m 5.677875,0.7030258 c 0,0 -1.650591,-0.5378399 -3.322253,0.5783699 0,0 -1.985475,1.1074439 -2.350658,5.7749296 0,0 -0.110805,0.7766362 0.714563,0.8916518 0,0 0.831871,0.133629 0.941295,-0.4491103 0.109352,-0.5816568 0.08828,-3.5271787 1.658511,-5.0377302 0,0 0.152947,-0.1905906 0.572152,-0.3395735 0.348038,-0.1785464 0.623594,-0.5049772 0.829255,-0.7634908 0,0 0.307347,-0.3384774 0.957135,-0.6550467"
   id="path12534"
   inkscape:connector-curvature="0" />
<path
   style="fill:#ffffff;fill-opacity:1;fill-rule:nonzero;stroke:none;stroke-width:0.30763966;opacity:0.5"
   d="m 8.656051,0.5945819 c 0,0 -1.467345,-0.3866747 -3.045422,0.6145168 0,0 -1.876015,0.9529944 -2.313712,4.7375879 0,0 -0.160939,0.9343764 -0.07266,1.4075864 0,0 0.07266,0.5531739 0.758049,0.6013739 0,0 0.826603,0.053669 0.879354,-0.5904197 0.05159,-0.6429996 0.06975,-0.9047973 0.06975,-0.9047973 0,0 0.130424,-2.516126 1.359229,-3.7911682 l 0.297903,0.185127 c 0,0 0.417897,-1.3210478 2.067179,-2.2598008"
   id="path12536"
   inkscape:connector-curvature="0" />
<path
   style="fill:#ffffff;fill-opacity:1;fill-rule:nonzero;stroke:none;stroke-width:0.30763966;opacity:0.5"
   d="m 11.635536,0.5945819 c 0,0 -1.964368,-0.381199 -3.385538,0.902606 0,0 -1.411979,1.0461042 -1.827261,3.6421939 0,0 -0.175472,1.3955335 -0.204533,2.0746802 0,0 -0.01451,0.6583336 0.747514,0.7426779 0,0 0.784425,0.040539 0.835831,-0.6517598 0,0 0.05159,-3.1799354 1.467345,-4.6357184 l 0.350578,0.1818369 c 0,0 0.613023,-1.4700246 2.015774,-2.2565166"
   id="path12538"
   inkscape:connector-curvature="0" />
<path
   style="fill:#ffffff;fill-opacity:1;fill-rule:nonzero;stroke:none;stroke-width:0.30763966;opacity:0.5"
   d="m 13.895189,0.5595276 c 0,0 -1.977519,-0.06683 -3.137699,1.5894198 0,0 -1.342081,1.6222826 -1.336813,4.9490034 0,0 -0.08174,0.7864951 0.663157,0.8598848 0,0 0.880661,0.044916 0.880661,-0.7919709 0,0 0.0396,-3.2807119 1.546435,-4.6061427 0,0 1.334161,1.3298105 1.443586,4.4604533 0,0 0.04614,2.1458842 0.528665,3.3289127 0,0 0.435045,-1.326527 0.523398,-3.1646019 0,0 -0.03704,-0.3362873 0.313886,-0.572891 0,0 0.230691,-0.094209 0.186006,-0.4283002 0,0 -0.322968,-2.7319211 -1.417211,-4.2786196 0,0 2.320288,-0.1259634 2.780399,3.7320168 0,0 0.0036,0.5652242 0.381023,0.9157515 0,0 0.275377,0.1632114 0.303349,0.5586501 0,0 0.06866,0.5466055 -0.129332,2.3123833 0,0 -0.04614,0.3866748 0.158034,0.935469 0,0 0.573496,-1.3188593 0.421893,-2.6103314 0,0 -0.0752,-1.0493885 0.552389,-1.4032033 0,0 -0.05268,-2.9290888 -1.454157,-4.5305586 0,0 -1.110046,-1.3276191 -3.207561,-1.2553251"
   id="path12540"
   inkscape:connector-curvature="0" />
<path
   id="path12544"
   d="m 20.809985,13.817112 c 0,0 1.649247,0.53784 3.320945,-0.57837 0,0 1.986747,-1.107444 2.350623,-5.7749292 0,0 0.110804,-0.7766366 -0.714564,-0.8916548 0,0 -0.830563,-0.1336327 -0.941295,0.449113 -0.109353,0.5827528 -0.08828,3.527179 -1.65851,5.03773 0,0 -0.152946,0.190591 -0.570845,0.339572 -0.349489,0.179633 -0.623558,0.504977 -0.829219,0.763491 0,0 -0.307347,0.338479 -0.957135,0.655047"
   style="clip-rule:nonzero;fill:#ffffff;fill-opacity:1;fill-rule:nonzero;stroke:none;stroke-width:0.30763966;opacity:0.5"
   inkscape:connector-curvature="0" />
<path
   id="path12548"
   d="m 17.830501,13.926652 c 0,0 1.467309,0.386674 3.046694,-0.615613 0,0 1.874707,-0.952994 2.312404,-4.7375909 0,0 0.16094,-0.9343733 0.07266,-1.4075834 0,0 -0.07121,-0.5531739 -0.75805,-0.6013738 0,0 -0.826604,-0.053669 -0.87801,0.5904196 -0.05159,0.6429967 -0.07121,0.9047977 -0.07121,0.9047977 0,0 -0.130424,2.5161258 -1.359229,3.7911678 l -0.296447,-0.18404 c 0,0 -0.417933,1.319952 -2.068488,2.259803"
   style="clip-rule:nonzero;fill:#ffffff;fill-opacity:1;fill-rule:nonzero;stroke:none;stroke-width:0.30763966;opacity:0.5"
   inkscape:connector-curvature="0" />
<path
   id="path12552"
   d="m 14.851016,13.926652 c 0,0 1.964332,0.380103 3.386847,-0.903702 0,0 1.410635,-1.046104 1.827224,-3.6421941 0,0 0.175472,-1.3955331 0.204537,-2.0746798 0,0 0.01451,-0.658334 -0.747514,-0.7426809 0,0 -0.785733,-0.040539 -0.835831,0.6517625 0,0 -0.05268,3.1799353 -1.468653,4.6357183 l -0.350578,-0.180748 c 0,0 -0.613023,1.468925 -2.015738,2.256516"
   style="clip-rule:nonzero;fill:#ffffff;fill-opacity:1;fill-rule:nonzero;stroke:none;stroke-width:0.30763966;opacity:0.5"
   inkscape:connector-curvature="0" />
<path
   id="path12556"
   d="m 12.591327,13.96061 c 0,0 1.977555,0.06683 3.137699,-1.589423 0,0 1.342081,-1.623375 1.336813,-4.949 0,0 0.08174,-0.7864951 -0.66312,-0.8598875 0,0 -0.880662,-0.044916 -0.880662,0.7919735 0,0 -0.0396,3.280712 -1.546434,4.606143 0,0 -1.334198,-1.329814 -1.443622,-4.4604565 0,0 -0.04614,-2.1458809 -0.528666,-3.3289092 0,0 -0.435045,1.3265264 -0.522054,3.1646014 0,0 0.03632,0.3362872 -0.314974,0.5728909 0,0 -0.230691,0.094208 -0.186006,0.4283002 0,0 0.322968,2.7319182 1.418555,4.2797152 0,0 -2.321631,0.124876 -2.781743,-3.7331123 0,0 -0.0036,-0.5641281 -0.380987,-0.9157516 0,0 -0.275739,-0.1632113 -0.303352,-0.5586527 0,0 -0.06721,-0.5466028 0.129331,-2.311285 0,0 0.04614,-0.3866748 -0.156941,-0.9365647 0,0 -0.573496,1.3188563 -0.423201,2.6103315 0,0 0.0752,1.0493884 -0.552389,1.4032002 0,0 0.05268,2.9290916 1.455465,4.5305616 0,0 1.108738,1.328715 3.206253,1.255325"
   style="clip-rule:nonzero;fill:#ffffff;fill-opacity:1;fill-rule:nonzero;stroke:none;stroke-width:0.30763966;opacity:0.5"
   inkscape:connector-curvature="0" />
<path
   style="fill:#ffffff;fill-opacity:1;fill-rule:nonzero;stroke:none;stroke-width:0.30763966;opacity:0.5"
   d="m 29.190783,4.3474083 0.841098,-2.1425938 c 0.142413,-0.3691491 0.614367,-0.5345558 1.020421,-0.361482 0.360022,0.1412977 0.511518,0.4710216 0.350577,0.8007365 L 29.975098,5.6202591 C 29.757485,6.0595135 29.398987,6.2238247 28.898004,6.0748478 28.671308,6.0123941 28.519633,5.8787636 28.397021,5.6202591 L 26.970546,2.644069 c -0.160939,-0.329715 -0.01088,-0.6594296 0.34949,-0.8007364 0.406053,-0.1730827 0.879353,0 1.020384,0.3614819 l 0.850363,2.1425938"
   id="path12558"
   inkscape:connector-curvature="0" />
<path
   style="fill:#ffffff;fill-opacity:1;fill-rule:nonzero;stroke:none;stroke-width:0.30763966;opacity:0.5"
   d="m 31.977794,0.2024286 c 0.330962,-0.2749586 0.859554,-0.2672613 1.190478,0.00755 0.321517,0.2749585 0.321517,0.7065309 0,0.9814744 -0.330961,0.2749587 -0.85959,0.2749587 -1.18125,0.00755 -0.159485,-0.1336305 -0.254306,-0.3143777 -0.254306,-0.5027857 0,-0.179633 0.09482,-0.3603862 0.245223,-0.4940229 z m -0.131875,2.1820311 c 0,-0.1642991 0.0752,-0.3209522 0.217613,-0.4315874 0.283371,-0.2431733 0.74617,-0.2355062 1.029612,0 0.131876,0.1182965 0.208169,0.2749587 0.208169,0.4315874 v 3.1405012 c 0.01089,0.3384794 -0.312434,0.6046583 -0.718523,0.6134211 -0.406054,0 -0.736942,-0.2749304 -0.736942,-0.6046582 V 2.3844597"
   id="path12560"
   inkscape:connector-curvature="0" />
<path
   style="fill:#ffffff;fill-opacity:1;fill-rule:nonzero;stroke:none;stroke-width:0.30763966;opacity:0.5"
   d="m 36.842521,1.7808941 c 1.087666,0.1018757 1.446237,0.4940259 1.323626,0.894939 -0.07665,0.2661747 -0.312416,0.4239203 -0.595875,0.4162532 -0.04759,-0.00875 -0.09482,-0.00875 -0.140958,-0.016301 l -0.07666,-0.022942 -0.131875,-0.039452 -0.09482,-0.024147 -0.131875,-0.039422 c -0.879318,-0.2355065 -1.587269,0.1971704 -1.578078,1.020902 0.01818,0.8248335 0.736979,1.2246539 1.673006,0.9661402 l 0.159485,-0.047089 0.06721,-0.024151 c 0.424509,-0.1248757 0.802881,0.047089 0.868818,0.4162499 0.05669,0.3067086 -0.18856,0.5893213 -0.868818,0.7700621 -0.170022,0.047089 -0.350578,0.077756 -0.539201,0.094208 -1.625557,0.1248809 -2.852946,-0.8171686 -2.834491,-2.2061333 0.01817,-1.3977246 1.274873,-2.3090964 2.900396,-2.1590268"
   id="path12562"
   inkscape:connector-curvature="0" />
<path
   style="fill:#ffffff;fill-opacity:1;fill-rule:nonzero;stroke:none;stroke-width:0.30763966;opacity:0.5"
   d="m 39.249854,1.8269027 -0.0072,-0.6977681 c 0,-0.3297146 0.321525,-0.6046583 0.727718,-0.6046583 0.396824,0 0.727748,0.2749285 0.718522,0.6046583 v 0.6977681 h 0.433735 c 0.170003,0 0.340044,0.055873 0.464073,0.1654159 0.254324,0.2037513 0.254324,0.54989 0,0.7612993 -0.132964,0.1018756 -0.293896,0.1577488 -0.473299,0.1577488 h -0.424597 v 2.6059482 c 0,0.15775 -0.07631,0.3143774 -0.208176,0.4326804 -0.283351,0.2355061 -0.736978,0.2355061 -1.011194,0 C 39.328518,5.8316998 39.251831,5.6750346 39.251831,5.5173149 l 0.0072,-2.6147112 h -0.254324 c -0.179452,0 -0.349493,-0.054787 -0.482491,-0.1642991 -0.254324,-0.2037513 -0.254324,-0.5422198 0.0072,-0.7536321 0.123893,-0.1018757 0.293896,-0.1577488 0.473265,-0.1577488 h 0.245216"
   id="path12564"
   inkscape:connector-curvature="0" />
<path
   style="fill:#ffffff;fill-opacity:1;fill-rule:nonzero;stroke:none;stroke-width:0.30763966;opacity:0.5"
   d="m 42.055322,2.3614555 c 0,-0.2902927 0.2928,-0.5575571 0.73694,-0.5805614 0.453535,-0.031756 0.727751,0.2037513 0.709296,0.4315875 l -0.01096,0.062454 c 0.03814,-0.039422 0.07665,-0.078875 0.123893,-0.1095428 0.556347,-0.5027887 1.189172,-0.4951186 1.483147,-0.1336305 0.254325,0.3143807 0.122419,0.6747668 -0.25576,0.8084035 l -0.07521,0.031756 -0.197632,0.054787 c -0.189996,0.054787 -0.321524,0.1095428 -0.435042,0.1654159 -0.462765,0.2267524 -0.623596,0.4315844 -0.623596,0.6276626 v 1.8052111 c 0,0.3297147 -0.321524,0.6046583 -0.727751,0.6046583 -0.406054,0 -0.727714,-0.2661733 -0.727714,-0.5958924 V 2.3614947"
   id="path12566"
   inkscape:connector-curvature="0" />
<path
   style="fill:#ffffff;fill-opacity:1;fill-rule:nonzero;stroke:none;stroke-width:0.30763966;opacity:0.5"
   d="m 46.636604,4.1359963 c 0.121323,0.7218678 0.632821,1.0439127 1.255075,0.9267087 0.416587,-0.071206 0.729056,-0.3855817 0.804185,-0.9190389 0.01814,-0.1259641 0.01814,-0.2508397 0,-0.3768159 -0.08572,-0.5181228 -0.407361,-0.8248334 -0.804185,-0.8949389 -0.603798,-0.1106294 -1.141689,0.2037513 -1.255075,0.902606 -0.01096,0.062453 -0.01096,0.1259633 -0.01096,0.188417 0,0.062453 0,0.1182954 0.01096,0.1730835 z M 45.539747,2.7777057 c 0.471957,-0.6517596 1.274835,-1.0285756 2.135736,-1.0285756 1.369761,0 2.494302,0.9420401 2.503566,2.1984579 0,1.2640909 -1.124576,2.2061313 -2.503566,2.2061313 -1.389566,0 -2.503571,-0.9420404 -2.503571,-2.2061313 0,-0.4556843 0.121323,-0.8401675 0.367824,-1.1698823"
   id="path12568"
   inkscape:connector-curvature="0" />
<path
   style="fill:#ffffff;fill-opacity:1;fill-rule:nonzero;stroke:none;stroke-width:0.30763966;opacity:0.5"
   d="m 50.801299,2.3932225 c 0,-0.2990464 0.301909,-0.581657 0.727714,-0.6123284 0.386294,-0.031756 0.652588,0.1719663 0.652588,0.3921533 v 0.047089 c 0.225222,-0.227839 0.537891,-0.3768162 0.982201,-0.4392545 0.236145,-0.039422 0.471957,-0.039422 0.700033,-0.00875 1.000656,0.1336304 1.549085,0.6835296 1.549085,1.5072673 v 2.2543247 c 0,0.3373833 -0.321525,0.6046583 -0.718523,0.6123254 -0.406053,0 -0.736943,-0.2672617 -0.736943,-0.6046582 V 3.4842336 c 0,-0.188417 -0.09373,-0.3691491 -0.255761,-0.5027887 -0.329499,-0.2826255 -0.868819,-0.2826255 -1.199709,-0.00755 -0.160932,0.1412976 -0.245215,0.3143807 -0.245215,0.5027887 v 2.0571577 c 0,0.3297146 -0.330974,0.6046583 -0.736978,0.5958954 -0.396828,0 -0.718488,-0.2749568 -0.718488,-0.6046582 V 2.3933403"
   id="path12570"
   inkscape:connector-curvature="0" />
<path
   style="fill:#ffffff;fill-opacity:1;fill-rule:nonzero;stroke:none;stroke-width:0.30763966;opacity:0.5"
   d="m 62.131283,3.5543421 c -0.0072,-0.022942 -0.0072,-0.054787 -0.01814,-0.077788 C 61.962755,2.9025672 61.4724,2.6363835 60.914745,2.7459262 c -0.350589,0.071208 -0.652584,0.3220449 -0.775196,0.714198 -0.01096,0.031756 -0.01096,0.06354 -0.01814,0.094208 z m -1.974902,0.7777323 c 0.03814,0.1489663 0.122419,0.297959 0.24669,0.4239171 0.386256,0.3844864 1.095549,0.4786889 1.89843,0.1259641 0.464073,-0.212504 0.595877,-0.2278413 0.8411,-0.1500813 0.142412,0.048208 0.25576,0.1412977 0.312416,0.2596233 0.20708,0.4239201 -0.425817,1.1545482 -2.202977,1.1622153 -1.803504,0 -3.004517,-1.2410838 -2.587926,-2.7330139 0.236145,-0.8631718 1.02042,-1.4831643 2.002587,-1.6321381 1.133767,-0.1730831 2.212206,0.3056148 2.682852,1.2005537 0.123893,0.2442599 0.199105,0.4951186 0.218721,0.6835266 0.05665,0.4863558 -0.132964,0.6594298 -0.615678,0.6594298 h -2.796237"
   id="path12572"
   inkscape:connector-curvature="0" />
<path
   style="fill:#ffffff;fill-opacity:1;fill-rule:nonzero;stroke:none;stroke-width:0.30763966;opacity:0.5"
   d="m 64.104842,2.3932225 c 0,-0.2990464 0.301909,-0.581657 0.727752,-0.6123284 0.387598,-0.031756 0.651239,0.1719663 0.651239,0.3921533 v 0.047089 c 0.226696,-0.227839 0.53924,-0.3768162 0.983512,-0.4392545 0.236145,-0.039422 0.473299,-0.039422 0.700029,-0.00875 1.00066,0.1336304 1.549089,0.6835296 1.549089,1.5072673 v 2.2543247 c 0,0.3373833 -0.321525,0.6046583 -0.718523,0.6123254 -0.406019,0 -0.736943,-0.2672617 -0.736943,-0.6046582 V 3.4842336 c 0,-0.188417 -0.09373,-0.3691491 -0.255761,-0.5027887 -0.329499,-0.2826255 -0.868815,-0.2826255 -1.199705,-0.00755 -0.160932,0.1412976 -0.245216,0.3143807 -0.245216,0.5027887 v 2.0571577 c 0,0.3297146 -0.330973,0.6046583 -0.736977,0.5958954 -0.396828,0 -0.718488,-0.2749568 -0.718488,-0.6046582 V 2.3933403"
   id="path12574"
   inkscape:connector-curvature="0" />
<path
   style="fill:#ffffff;fill-opacity:1;fill-rule:nonzero;stroke:none;stroke-width:0.30763966;opacity:0.5"
   d="m 72.882465,3.5543421 c -0.0072,-0.022942 -0.0072,-0.054787 -0.01814,-0.077788 -0.151484,-0.5739869 -0.643359,-0.8401706 -1.201013,-0.7306279 -0.348057,0.071208 -0.651281,0.3220449 -0.773892,0.714198 -0.0072,0.031756 -0.0072,0.06354 -0.01814,0.094208 z m -1.974901,0.7777323 c 0.03814,0.1489663 0.122419,0.297959 0.245216,0.4239171 0.38894,0.3844864 1.09689,0.4786889 1.899772,0.1259641 0.462727,-0.212504 0.595876,-0.2278413 0.841099,-0.1500813 0.140977,0.048208 0.254287,0.1412977 0.31098,0.2596233 0.209613,0.4239201 -0.424509,1.1545482 -2.200327,1.1622153 -1.806153,0 -3.005858,-1.2410838 -2.590579,-2.7330139 0.237241,-0.8631718 1.020419,-1.4831643 2.003894,-1.6321381 1.135113,-0.1730831 2.210899,0.3056148 2.684201,1.2005537 0.122419,0.2442599 0.199068,0.4951186 0.216151,0.6835266 0.05666,0.4863558 -0.130431,0.6594298 -0.613058,0.6594298 h -2.797549"
   id="path12576"
   inkscape:connector-curvature="0" />
<path
   style="fill:#ffffff;fill-opacity:1;fill-rule:nonzero;stroke:none;stroke-width:0.30763966;opacity:0.5"
   d="m 74.856063,2.3614555 c 0,-0.2902927 0.2928,-0.5575571 0.73694,-0.5805614 0.453535,-0.031756 0.727751,0.2037513 0.709296,0.4315875 l -0.0072,0.062454 c 0.03704,-0.039422 0.07521,-0.078875 0.122419,-0.1095428 0.557654,-0.5027887 1.190475,-0.4951186 1.483147,-0.1336305 0.25576,0.3143807 0.123893,0.6747668 -0.254325,0.8084035 l -0.07665,0.031756 -0.197631,0.054787 c -0.188561,0.054787 -0.321524,0.1095428 -0.435046,0.1654159 -0.462762,0.2267524 -0.623592,0.4315844 -0.623592,0.6276626 v 1.8052111 c 0,0.3297147 -0.321524,0.6046583 -0.727752,0.6046583 -0.406053,0 -0.727714,-0.2661733 -0.727714,-0.5958924 V 2.3614947"
   id="path12578"
   inkscape:connector-curvature="0" />
<path
   style="fill:#ffffff;fill-opacity:1;fill-rule:nonzero;stroke:none;stroke-width:0.30763966;opacity:0.5"
   d="m 79.719479,4.7559915 c 0.407365,0.4085832 1.153569,0.400916 1.531941,-0.024151 0.170041,-0.188417 0.254286,-0.4151547 0.263735,-0.7448693 0,-0.5345528 -0.236145,-0.8719347 -0.614366,-1.0285757 -0.632821,-0.2596244 -1.340772,0.086541 -1.454158,0.8007334 -0.01096,0.070091 -0.01814,0.1489648 -0.01814,0.2190856 0,0.3308107 0.113348,0.5893239 0.291363,0.7777319 z m 1.833838,-2.5676069 c 0.0072,-0.2278394 0.27428,-0.4315874 0.661814,-0.3998204 0.425817,0.030667 0.727714,0.313282 0.727714,0.6199925 v 3.1481712 c 0,1.5707984 -1.115312,2.4263032 -3.080991,2.2532295 C 79.46503,7.7705332 79.106421,7.6927467 78.764997,7.5667826 78.06758,7.2994907 77.943661,6.8920187 78.283777,6.5929753 78.473773,6.4210106 78.708289,6.3815561 79.029984,6.4680997 l 0.01096,0.00756 0.2928,0.1095421 c 0.0661,0.024151 0.131868,0.047089 0.199068,0.062453 1.237927,0.3691465 1.945878,-0.054788 1.97356,-0.8390748 0.0072,-0.055873 0,-0.1106305 0,-0.1654148 -0.537891,0.6364245 -1.870746,0.7459639 -2.787009,-0.00756 C 78.132682,5.1481539 77.841322,4.3474206 78.028526,3.4765787 78.095736,3.162201 78.218531,2.8949246 78.388553,2.6670825 79.192776,1.5914026 80.816993,1.48953 81.553933,2.2431622 v -0.054756"
   id="path12580"
   inkscape:connector-curvature="0" />
<path
   id="path12584"
   d="m 83.75499,1.8356655 c 0.406054,-0.1412976 0.822641,0.015394 0.9927,0.3998203 l 0.90573,2.0177201 0.926797,-2.0253902 c 0.180548,-0.3844831 0.605106,-0.5422198 1.00193,-0.3844831 0.360038,0.1412976 0.51021,0.4786887 0.360038,0.7853992 L 85.588934,7.4178073 C 85.389828,7.8176246 84.993023,7.9676941 84.596196,7.8340572 84.217827,7.7004282 84.058305,7.3630359 84.217827,7.040991 L 84.899401,5.737469 83.358272,2.6046348 c -0.140939,-0.2979598 0.0291,-0.6440954 0.396824,-0.7689693"
   style="clip-rule:nonzero;fill:#ffffff;fill-opacity:1;fill-rule:nonzero;stroke:none;stroke-width:0.30763966;opacity:0.5"
   inkscape:connector-curvature="0" />
</svg>
