<?xml version="1.0" encoding="UTF-8"?>
<svg xmlns="http://www.w3.org/2000/svg" viewBox="0 0 79 115">
<path
   id="path2379"
   d="M 67.47379,0.31096139 C 67.23121,0.28810524 67.36943,0.01663662 67.12305,0.01722601 L 11.99983,0.14909318 c -0.37425,8.9528e-4 0.06275,-0.1373125 -0.30248,-0.08496733 L 0.36523,15.705222 C 0.26719,16.670515 0,17.538764 0,18.548525 V 96.390533 C 0,106.70039 5.30779,115 11.90039,115 H 67.09961 C 73.69221,115 79,106.70039 79,96.390533 V 18.548525 c 0,-0.791108 -0.22447,-1.463148 -0.28516,-2.227742 z"
   style="opacity:1;fill:#63625e;fill-opacity:1;stroke:none;stroke-width:1.47859287;stroke-miterlimit:4;stroke-dasharray:none;stroke-opacity:1" />
<rect
   y="0.0053625959"
   x="11.682411"
   height="96.100983"
   width="55.638741"
   id="rect2398"
   style="opacity:1;fill:#acacac;fill-opacity:1;stroke:none;stroke-width:5.52048397;stroke-miterlimit:4;stroke-dasharray:none;stroke-opacity:1" />
<rect
   y="75.83522"
   x="14.49018"
   height="16.089029"
   width="20.709745"
   id="rect2419"
   style="opacity:1;fill:#63625e;fill-opacity:1;stroke:none;stroke-width:1.50039732;stroke-miterlimit:4;stroke-dasharray:none;stroke-opacity:1" />
<rect
   y="78.272957"
   x="17.170263"
   height="8.2882881"
   width="15.349576"
   id="rect2421"
   style="opacity:1;fill:#9bd7bd;fill-opacity:1;stroke:none;stroke-width:1.50039732;stroke-miterlimit:4;stroke-dasharray:none;stroke-opacity:1" />
<path
   id="path2381"
   d="M 0,11.014465 11.69491,2.7266541e-6 V 96.107577 H 0.12182 Z"
   style="fill:#929292;fill-opacity:1;stroke:none;stroke-width:1.00026488px;stroke-linecap:butt;stroke-linejoin:miter;stroke-opacity:1" />
<path
   id="path2381-7"
   d="M 78.99715,11.014464 67.30223,1.886209e-6 V 96.107576 h 11.5731 z"
   style="fill:#929292;fill-opacity:1;stroke:none;stroke-width:1.00026488px;stroke-linecap:butt;stroke-linejoin:miter;stroke-opacity:1" />
<path
   d="m 21.533976,74.320209 c -4.528098,0 -8.195096,-13.216393 -8.195096,-29.515633 0,-16.299241 3.666998,-29.515634 8.195096,-29.515634 4.528098,0 8.195096,13.216393 8.195096,29.515634 0,16.29924 -3.666998,29.515633 -8.195096,29.515633"
   class="st0"
   id="path2601"
   style="fill:#e20009;stroke-width:0.05859376" />
<path
   d="m 24.533182,60.412227 -3.971605,-1.787583 c 0,0 -1.194996,-0.480596 -1.194996,-1.605894 v -4.378114 l 1.382446,0.638841 v 3.287981 c 0,0 -0.08787,0.339934 0.310465,0.533345 l 3.47369,1.570728 z m 0,-31.367687 v -6.013312 c 0,0 0.02929,-0.890861 -1.048551,-1.38904 -0.872816,-0.404404 -1.323868,-0.556788 -1.323868,-0.556788 0,0 -0.837669,-0.246159 -0.837669,0.574371 v 4.149537 c 0,0 -0.59164,0.152384 -0.59164,-0.797086 v -4.577385 l -1.364873,-0.627119 v 5.896093 c 0,0 0.01757,1.049106 0.820095,1.412484 0.767375,0.345795 1.476172,0.709172 1.476172,0.709172 0,0 0.94311,0.351656 0.94311,-0.627119 v -4.149537 c 0,0 0.585782,0.152384 0.585782,0.726755 v 4.712186 z m -5.160743,5.30414 4.018467,1.758278 c 0,0 1.142276,0.591954 1.142276,-0.644702 v -4.688742 c 0,0 0.07029,-0.978775 -1.124703,-1.512119 -1.194996,-0.533345 -4.03604,-1.734835 -4.03604,-1.734835 v 1.758278 l 3.403395,1.494537 c 0,0 0.433479,0.09964 0.433479,0.498179 v 2.643278 c 0,0 0,0.3751 -0.462768,0.169967 l -3.374106,-1.482815 z m -1.897935,1.711391 v -1.687947 l 1.376588,0.591953 v 1.682087 z m 1.892077,0.838113 v -1.670365 l 5.172458,2.309206 v 1.687947 z m 5.166601,10.057352 -5.172459,-2.303345 v -5.597186 c 0,0 -0.08201,-1.230795 1.118844,-0.709172 1.083698,0.474735 4.053615,1.83447 4.053615,1.83447 v 1.758279 l -3.508837,-1.600034 c 0,0 -0.275318,-0.158245 -0.275318,0.351656 v 2.824967 l 3.784155,1.752418 z m -5.172459,4.389835 c 0,1.125298 1.194996,1.529702 1.194996,1.529702 l 3.0695,1.383179 c 0,0 0.907963,0.468875 0.907963,-0.873278 v -4.407418 c 0,0 0.10544,-1.01394 -1.007546,-1.51798 -1.118844,-0.509901 -3.133936,-1.435927 -3.133936,-1.435927 0,0 -1.030977,-0.474736 -1.030977,0.386821 z m 1.382447,-0.363377 c -0.0059,-0.08205 0.01172,-0.134802 0.01172,-0.134802 v -2.678444 c 0,-0.257881 0.322181,-0.123079 0.322181,-0.123079 0,0 1.605043,0.720894 1.886219,0.861556 0.281175,0.146523 0.216739,0.468874 0.216739,0.468874 v 2.490895 c 0,0.468874 -0.32218,0.281324 -0.32218,0.281324 l -1.698769,-0.69745 c -0.328038,-0.140662 -0.40419,-0.339934 -0.415905,-0.468874 z m 3.790012,17.588645 -6.502185,-2.819107 c 0,0 -1.230143,-0.492318 -1.230143,-1.541424 v -6.956921 l 1.370731,0.603675 v 5.831624 c 0,0 -0.04686,0.269602 0.26946,0.433708 0.316322,0.164106 4.744837,2.1451 4.744837,2.1451 v -0.580232 l -2.647736,-1.230795 c 0,0 -1.165707,-0.486457 -1.165707,-1.553146 v -4.495332 l 1.359015,0.591954 0.01757,3.46967 c 0,0 -0.146445,0.293046 0.497915,0.603675 0.574067,0.275464 3.28624,1.494537 3.28624,1.494537 z"
   class="st1"
   id="path2607"
   style="fill:#ffffff;stroke-width:0.05859376" />
</svg>
