<?xml version="1.0" encoding="UTF-8"?>
<svg xmlns="http://www.w3.org/2000/svg" width="26" height="26">
  <path
     style="fill:none;stroke:#171717;stroke-width:0.641392;stroke-linecap:butt;stroke-linejoin:round;stroke-miterlimit:4;stroke-dasharray:none;stroke-opacity:1"
     d="m 17.111492,12.757974 c 1.882486,0.02886 0.711946,3.181304 0.872294,4.723852 1.13847,4.127357 7.369594,4.759128 6.439575,-0.205246 l -0.667047,-4.547469"
     id="path2" />
  <rect
     style="fill:#171717;fill-opacity:1;stroke:none;stroke-width:0.190365;stroke-linejoin:round;stroke-miterlimit:4;stroke-dasharray:none;stroke-opacity:1;stop-color:#000000"
     width="17.85956"
     height="3.5244489"
     x="1.1632857"
     y="21.512957"
     rx="0.58687365"
     ry="0.58687365"
     id="rect4" />
  <path
     id="rect6"
     style="fill:#171717;stroke-width:0.219484;stroke-linejoin:round;stop-color:#000000"
     d="M 6.1445312 0.96289062 C 4.3678772 0.96289062 2.9375 2.549222 2.9375 4.5195312 L 2.9375 21.195312 C 2.9375 23.165622 4.3678772 24.751953 6.1445312 24.751953 L 14.044922 24.751953 C 15.821576 24.751953 17.251953 23.165622 17.251953 21.195312 L 17.251953 4.5195312 C 17.251953 2.549222 15.821576 0.96289062 14.044922 0.96289062 L 6.1445312 0.96289062 z M 6.4980469 11.716797 L 8.8105469 11.716797 C 9.714225 11.716797 10.43229 11.783001 10.962891 11.916016 C 11.497635 12.044873 11.949426 12.224507 12.318359 12.453125 C 12.948447 12.848013 13.438664 13.374491 13.791016 14.03125 C 14.143367 14.688009 14.320312 15.467136 14.320312 16.369141 C 14.320312 17.212952 14.134558 17.978206 13.765625 18.664062 C 13.400837 19.349918 12.914048 19.881505 12.304688 20.259766 C 11.881865 20.521638 11.409028 20.709784 10.886719 20.826172 C 10.368555 20.94256 9.6857265 21.001953 8.8359375 21.001953 L 6.4980469 21.001953 L 6.4980469 11.716797 z M 7.7285156 12.777344 L 7.7285156 19.941406 L 8.8847656 19.941406 C 9.4775453 19.941406 9.9941905 19.897838 10.433594 19.810547 C 10.877142 19.723256 11.283411 19.561151 11.652344 19.324219 C 12.112473 19.029093 12.455601 18.640381 12.683594 18.158203 C 12.915731 17.676025 13.033203 17.072875 13.033203 16.349609 C 13.033203 15.622185 12.907161 15.00857 12.654297 14.509766 C 12.401433 14.010961 12.023067 13.618844 11.521484 13.332031 C 11.156697 13.124195 10.769761 12.981321 10.359375 12.902344 C 9.9489891 12.81921 9.4568187 12.777344 8.8847656 12.777344 L 7.7285156 12.777344 z " />
  <rect
     style="fill:#ffffff;fill-opacity:1;stroke:none;stroke-width:0.208452;stroke-linejoin:round;stroke-miterlimit:4;stroke-dasharray:none;stroke-opacity:1;stop-color:#000000"
     width="10.252651"
     height="6.5935097"
     x="4.9667306"
     y="3.5379593"
     rx="0.320696"
     ry="0.320696"
     id="rect8" />
  <path
     style="fill:none;stroke:#171717;stroke-width:0.8481;stroke-linecap:butt;stroke-linejoin:miter;stroke-miterlimit:4;stroke-dasharray:none;stroke-opacity:1"
     d="m 17.730436,3.9292128 1.860037,0.9139836 1.324474,1.4110624"
     id="path10" />
  <path
     style="fill:#171717;fill-opacity:1;stroke:none;stroke-width:0.606039;stroke-linecap:butt;stroke-linejoin:miter;stroke-miterlimit:4;stroke-dasharray:none;stroke-opacity:1"
     d="m 21.498614,5.8309401 -0.865879,0.8177748 0.554804,0.7311869 -0.779292,1.119229 0.32711,2.0716962 0.888328,0.230901 0.994158,-0.160348 0.689496,2.212802 0.17959,-0.03207 0.01603,0.09621 0.538769,-0.14752 -0.02245,-0.07376 0.150727,-0.06414 L 23.830068,11.40143 23.092467,8.7396528 23.701789,8.2105044 23.13095,6.7705794 Z m 0.606115,2.5431193 0.416905,1.8119326 c -0.230901,0.125071 -0.545183,0.169969 -0.853051,0.218073 a 1.4655807,1.4655807 0 0 1 -0.689497,-0.07697 c -0.118657,-0.641392 -0.355972,-1.2635422 -0.07376,-1.9530386 0.468216,-0.3527656 0.80174,-0.019242 1.199403,0 z"
     id="path12" />
  <path
     style="fill:#171717;fill-opacity:1;stroke:none;stroke-width:0.0332247;stroke-linecap:butt;stroke-linejoin:miter;stroke-miterlimit:4;stroke-dasharray:none;stroke-opacity:1"
     d="m 21.011156,10.343133 0.08017,-0.10583 0.246936,0.06414 c 0.08659,0 0.134692,-0.09621 0.182796,-0.186003 0.112244,-1.1384712 0.109037,-1.8407954 -0.06735,-1.9017276 l 0.266178,0.057725 c 0.03848,0.5804598 0.02566,1.1929892 -0.05773,1.8472096 A 0.72797992,0.72797992 0 0 0 21.59803,10.4201 c -0.208453,0.02566 -0.407284,-0.03528 -0.586874,-0.07376 z"
     id="path14" />
</svg>
