<svg height="49" width="34" xmlns="http://www.w3.org/2000/svg"><g fill="#3a3b3d" stroke="#3a3b3d" transform="matrix(3.7344269 0 0 3.7344269 -139.31881 -455.35713)"><path d="m42.223307 123.11965.442504 1.02239-.987169.50734.994205.50063-.428279 1.0253 1.080662-.25506.33113 1.06324.661536-.89163.935256.60412-.06726-1.11104 1.102181-.13792-.764616-.81057.753072-.81539-1.103904-.13056.05158-1.11152-.926743.61026-.673904-.88739-.316251 1.06578zm1.084111.46524a1.337562 1.3155301 56.004151 0 1 1.838594.37335 1.337562 1.3155301 56.004151 0 1 -.342849 1.84453 1.337562 1.3155301 56.004151 0 1 -1.838386-.3735 1.337562 1.3155301 56.004151 0 1 .342641-1.84438z" stroke-width=".119378"/><g stroke-linecap="round" transform="matrix(.30488344 0 0 .30488344 23.345082 86.10007)"><path d="m55.420381 160.35927.939874-24.18367h.903724l.95795 24.20175z" stroke-width=".4445"/><circle cx="56.812119" cy="134.38623" r="1.355587"/><g stroke-width=".15875"><path d="m54.498999 135.14886c-4.050062 1.71612-6.360947 3.60853-8.548832 5.58829 2.9039-.93823 5.292441-1.84447 9.035624-4.73977a2.4368486 2.4368486 0 0 1 -.486792-.84852z"/><path d="m59.124556 135.15402a2.4368486 2.4368486 0 0 1 -.487308.84698c3.75339 2.90676 6.120171 3.81444 9.028906 4.75423-2.193475-1.98481-4.472942-3.8816-8.541598-5.60121z"/><path d="m56.771729 121.79463c-.63959 2.98477-1.049433 5.50712-.412895 10.19886a2.4368486 2.4368486 0 0 1 .453202-.0439 2.4368486 2.4368486 0 0 1 .543119.0615c.53856-4.36638.03719-7.33161-.583426-10.21643z"/></g></g></g></svg>