<?xml version="1.0" encoding="UTF-8"?>
<svg xmlns="http://www.w3.org/2000/svg" viewBox="0 0 51 14">
<path
   d="M 0,7 C 0,3.1322374 11.418288,0 25.500001,0 39.581712,0 51,3.1322374 51,7 51,10.867763 39.581712,14 25.500001,14 11.418288,14 0,10.867763 0,7"
   class="st0"
   id="path2601"
   style="fill:#e20009;stroke-width:0.05033469" />
<path
   d="m 12.015786,9.5618298 1.544381,-3.3924232 c 0,0 0.415211,-1.0207289 1.387411,-1.0207289 h 3.782466 L 18.178118,6.3295212 H 15.33747 c 0,0 -0.293685,-0.075053 -0.460782,0.2651893 l -1.35703,2.9671193 z m 27.100081,0 h 5.195194 c 0,0 0.769658,0.025017 1.200059,-0.8956396 0.349384,-0.7455326 0.481038,-1.1308077 0.481038,-1.1308077 0,0 0.212664,-0.7155112 -0.496227,-0.7155112 h -3.584988 c 0,0 -0.131657,-0.5053611 0.688639,-0.5053611 h 3.954629 L 47.09601,5.1486777 h -5.093925 c 0,0 -0.906374,0.015 -1.220314,0.7005002 -0.298749,0.6554683 -0.612689,1.2609007 -0.612689,1.2609007 0,0 -0.303812,0.8055754 0.541799,0.8055754 h 3.584988 c 0,0 -0.131657,0.5003574 -0.627879,0.5003574 H 39.596902 Z M 34.533359,5.1536811 33.014296,8.586133 c 0,0 -0.511417,0.9756968 0.55699,0.9756968 h 4.050834 c 0,0 0.845613,0.060044 1.306394,-0.9606861 0.460783,-1.0207291 1.498809,-3.4474626 1.498809,-3.4474626 H 38.90826 l -1.291202,2.9070765 c 0,0 -0.08609,0.3702645 -0.430402,0.3702645 h -2.283659 c 0,0 -0.324067,0 -0.146836,-0.3952822 l 1.28107,-2.8820588 z M 33.054805,3.5325232 h 1.4583 L 34.001688,4.7083631 H 32.54845 Z m -0.724087,1.6161545 h 1.443111 l -1.995037,4.4181558 h -1.4583 z M 23.64168,9.5618298 25.631652,5.143674 h 4.835684 c 0,0 1.063343,-0.070051 0.612687,0.9556827 -0.410147,0.9256611 -1.584887,3.4624731 -1.584887,3.4624731 h -1.519064 l 1.382347,-2.9971407 c 0,0 0.136717,-0.2351679 -0.303812,-0.2351679 H 26.61398 L 25.099978,9.5618298 Z M 19.849087,5.143674 c -0.9722,0 -1.321585,1.0207292 -1.321585,1.0207292 l -1.194996,2.6218726 c 0,0 -0.405083,0.775554 0.754468,0.775554 h 3.807784 c 0,0 0.875993,0.090066 1.311458,-0.8606145 0.440528,-0.9556827 1.240568,-2.6769123 1.240568,-2.6769123 0,0 0.410146,-0.880629 -0.334194,-0.880629 z m 0.31394,1.1808435 c 0.07089,-0.005 0.116462,0.01 0.116462,0.01 h 2.314038 c 0.222797,0 0.106335,0.2751966 0.106335,0.2751966 0,0 -0.622815,1.3709792 -0.74434,1.6111508 -0.12659,0.2401703 -0.405084,0.1851313 -0.405084,0.1851313 h -2.152006 c -0.405084,0 -0.243052,-0.2751965 -0.243052,-0.2751965 L 19.757943,6.6797713 C 19.879468,6.3995711 20.051629,6.3345246 20.163027,6.3245175 Z M 4.967335,9.5618298 7.402899,4.0078626 c 0,0 0.4253376,-1.0507505 1.3317116,-1.0507505 H 14.745036 L 14.223491,4.1279485 H 9.185266 c 0,0 -0.232924,-0.040029 -0.3747021,0.2301655 C 8.668785,4.6283059 6.9573071,8.411008 6.9573071,8.411008 H 7.458598 L 8.5219418,6.1493925 c 0,0 0.4202742,-0.9957114 1.3418388,-0.9957114 h 3.8837374 l -0.511418,1.1608291 -2.997617,0.015 c 0,0 -0.2531772,-0.1250901 -0.5215451,0.4253036 -0.2379864,0.4903614 -1.2912034,2.807016 -1.2912034,2.807016 z"
   class="st1"
   id="path2607"
   style="fill:#ffffff;stroke-width:0.05033469" />
</svg>
