<?xml version="1.0" encoding="UTF-8"?>
<svg xmlns="http://www.w3.org/2000/svg" viewBox="0 0 160 94">

<defs
   id="defs21" />
<g
   id="g885"
   transform="matrix(1.2,0,0,-1.2,-491.70976,435.05438)">
  <g
     id="g967"
     transform="matrix(0.49368609,0,0,0.49368609,428.07427,173.57591)">
    <path
       id="path887"
       style="fill:#ffffff;fill-opacity:1;fill-rule:nonzero;stroke:none"
       d="m 143.79248,312.01367 c 2.32666,0 2.35254,-2.7041 2.35254,-2.79931 l -0.1499,-43.9253 c 0,-2.56445 -2.98633,-2.59179 -3.09131,-2.59179 l -1.89795,-0.0899 c 0,0 -0.54736,-1.17187 -0.77686,-1.6582 -0.78906,0 -4.50293,0 -5.30127,0 -0.22363,0.48828 -0.76562,1.68164 -0.76562,1.68164 H 96.44922 c 0,0 -0.5625,-1.19531 -0.79151,-1.68164 -0.79003,0 -4.50048,0 -5.29833,0 -0.22315,0.48633 -0.77002,1.68164 -0.77002,1.68164 H 87.2373 c -2.56982,0 -2.60058,2.48633 -2.60058,2.59375 0,0.002 -0.0073,15.43945 -0.0073,15.43945 0,0 -0.52685,0 -0.71093,0 0,0.24805 0,6.18946 0,6.44141 0.18164,0 0.67968,0 0.67968,0 l 0.03125,0.32617 v 21.78272 c 0,2.32177 2.25733,2.79199 2.35352,2.79199 h 12.79492 c 0,0 1.9878,-0.10156 2.0293,-0.0244 0.24365,0 4.17383,0 4.41846,0 0.0527,-0.0952 37.56689,0.0317 37.56689,0.0317 z" />
    <path
       id="path889"
       style="fill:#173e7d;fill-opacity:1;fill-rule:nonzero;stroke:none"
       d="m 146.68066,287.52344 c 0,0.82422 0,21.74951 0,21.74951 0,1.09131 -0.66064,3.15381 -3.1582,3.15381 0,0 -13.65039,0 -14.27295,0 -0.10742,0.23437 -0.2998,0.4209 -0.57226,0.4209 h -5.3545 c -0.27441,0 -0.46533,-0.18653 -0.57324,-0.4209 h -15.44043 c -0.10791,0.23437 -0.2998,0.4209 -0.57324,0.4209 h -4.68457 c -0.27393,0 -0.46484,-0.18653 -0.57422,-0.4209 -0.6206,0 -14.1167,0 -14.1167,0 -1.09424,0 -3.16064,-0.65821 -3.16064,-3.15381 0,0 0,-20.4292 0,-21.78369 h -0.03223 c -0.37549,0 -0.67969,-0.30274 -0.67969,-0.67481 v -6.00976 c 0,-0.37305 0.3042,-0.67774 0.67969,-0.67774 h 0.03223 c 0,-1.41699 0.0068,-14.84375 0.0068,-14.84375 0,-1.17773 0.71192,-3.40234 3.40918,-3.40234 h 1.83203 l 0.76856,-1.68359 h 6.33301 l 0.78955,1.68359 h 36.67871 l 0.76806,-1.68359 h 6.33545 l 0.78662,1.68359 1.37159,0.0654 c 1.18017,0 3.41064,0.71191 3.41064,3.40234 l -0.009,14.78028 c 0.37061,0.008 0.67237,0.30468 0.67237,0.67968 v 6.04102 c 0,0.36914 -0.30176,0.66797 -0.67237,0.67383 z" />
    <path
       id="path891"
       style="fill:#1c355a;fill-opacity:1;fill-rule:nonzero;stroke:none"
       d="M 145.90674,306.25391 Z" />
    <path
       id="path893"
       style="fill:#ffffff;fill-opacity:1;fill-rule:nonzero;stroke:none"
       d="m 129.3208,311.56152 h 14.20166 c 2.22949,0 2.29443,-2.05468 2.29443,-2.28857 v -21.78369 h -12.99902 c -1.93603,0 -3.51074,1.56738 -3.51074,3.49804 l 0.0137,20.57422 z" />
    <path
       id="path895"
       style="fill:#ffffff;fill-opacity:1;fill-rule:nonzero;stroke:none"
       d="m 107.39648,311.56152 h 15.21094 l -0.002,-20.53808 c 0,-1.94629 -1.56836,-3.5293 -3.50195,-3.5293 l -8.34766,-0.008 c -1.94971,0 -3.36523,1.37695 -3.36523,3.27441 l 0.006,20.80078 z" />
    <path
       id="path897"
       style="fill:#ffffff;fill-opacity:1;fill-rule:nonzero;stroke:none"
       d="m 85.06396,309.27295 c 0,2.22607 2.06006,2.28857 2.29639,2.28857 h 13.9961 l -0.0146,-20.56347 c 0,-1.92774 -1.57471,-3.49805 -3.51221,-3.49805 l -12.76563,-0.01 v 21.78272 z" />
    <path
       id="path899"
       style="fill:#ffffff;fill-opacity:1;fill-rule:nonzero;stroke:none"
       d="m 132.81787,286.62891 c -2.41308,0 -4.37695,1.95507 -4.37695,4.35839 0,0 0.0132,20.47217 0.0132,20.83741 l -4.94678,0.004 -0.0361,-20.80517 c 0,-2.41992 -1.95898,-4.3877 -4.36572,-4.3877 l -8.34815,-0.0107 c -2.45312,0 -4.23437,1.74219 -4.23437,4.13574 0,0 0.008,20.69873 0.008,21.06397 h -4.29541 c 0,-0.11963 -0.0278,-20.82666 -0.0278,-20.82666 0,-2.40039 -1.96436,-4.35742 -4.37696,-4.35742 0,0 -11.63476,-0.009 -13.59472,-0.01 v -5.63965 c 0.0044,0 3.31445,-9.8e-4 8.40039,-9.8e-4 v 1.33301 c 0,0.35449 -0.34424,0.35449 -0.34424,0.35449 h -0.51514 c -0.34423,0 -0.34423,0.34961 -0.34423,0.34961 v 1.02344 c 0,0.34766 0.34423,0.34766 0.34423,0.34766 h 3.8462 c 0.34716,0 0.34716,-0.34766 0.34716,-0.34766 v -1.02344 c 0,-0.34961 -0.34716,-0.34961 -0.34716,-0.34961 0,0 -0.5127,0 -0.51465,0 -0.34766,0 -0.34766,-0.35449 -0.34766,-0.35449 v -1.33301 c 11.63086,0 30.23242,-0.002 41.70166,-0.002 v 1.33496 c 0,0.35449 -0.34424,0.35449 -0.34424,0.35449 h -0.51562 c -0.34522,0 -0.34522,0.34961 -0.34522,0.34961 v 1.02344 c 0,0.34766 0.34522,0.34766 0.34522,0.34766 h 3.84668 c 0.3457,0 0.3457,-0.34766 0.3457,-0.34766 v -1.02344 c 0,-0.34961 -0.3457,-0.34961 -0.3457,-0.34961 0,0 -0.51416,0 -0.51514,0 -0.34717,0 -0.34717,-0.35449 -0.34717,-0.35449 v -1.33496 c 4.86377,0 8.00147,-9.8e-4 8.00147,-9.8e-4 h 4.9e-4 v 5.64161 c -0.35987,0 -13.77149,0 -13.77149,0 z" />
    <path
       id="path901"
       style="fill:#ffffff;fill-opacity:1;fill-rule:nonzero;stroke:none"
       d="m 98.05469,368.521 c -0.27149,-0.14795 -0.64307,-0.5127 -0.7002,-0.90528 -0.0049,-0.0337 -0.0068,-0.0776 -0.0068,-0.11816 0,-0.0244 4.8e-4,-0.0474 0.0015,-0.0679 l 0.08789,-1.46192 c 0,-0.49414 -0.04736,-0.96435 -0.16308,-1.62353 -0.002,-0.0117 -0.04395,-0.48486 -0.04395,-0.48486 0,-0.46192 0.15576,-0.80762 0.46289,-1.02735 l 0.27539,-0.18017 c 0.2124,-0.12989 0.27783,-0.16993 0.5332,-0.57666 0.14307,-0.2295 0.20997,-0.52002 0.20997,-0.91211 0,0 -0.0034,-0.11084 -0.0068,-0.18995 -0.04932,-0.21142 -0.35547,-0.48486 -0.56299,-0.66162 -0.104,-0.0537 -0.28369,-0.14746 -0.28369,-0.14746 -0.14111,-0.0727 -0.24268,-0.19922 -0.31836,-0.33789 -0.85693,-0.38037 -1.51172,-0.854 -2.02392,-1.479 -0.07471,-0.0571 -3.86915,-2.95215 -3.86915,-2.95215 0,0 -3.38183,-2.38037 -3.38964,-2.38623 -0.89307,-0.67774 -1.69873,-0.0244 -2.09961,0.42529 -0.01465,0.0166 -0.03028,0.0322 -0.04639,0.0478 -0.72559,0.68799 -1.42773,1.60352 -1.99219,2.33887 -0.5498,0.71582 -0.87207,1.11426 -1.10791,1.30713 -0.21728,0.17773 -0.5122,0.22852 -0.77636,0.13232 -0.5376,-0.19531 -0.71143,-0.16845 -0.71827,-0.16699 -0.29052,0.0503 -0.59228,-0.0635 -0.77246,-0.29736 l -0.22168,-0.28711 c -0.07031,-0.0972 -0.16113,-0.22266 -0.23486,-0.36328 0.01367,0.0225 0.0078,0.0503 0.02393,0.0723 l -1.40577,-1.9082 c -1.7749,-2.375 -3.17968,-4.25439 -3.66748,-6.41943 -0.38183,-1.69385 -0.83789,-4.46143 -0.83789,-8.02295 0,-2.95899 0.31543,-5.9834 0.93701,-8.98926 1.16846,-5.66943 5.09717,-9.18262 11.67676,-10.44141 0.27197,-0.0522 0.56397,-0.0239 0.75098,0.18116 0.1001,0.10986 0.12695,0.23437 0.15771,0.35888 0.01123,-0.0254 0.02637,-0.0605 0.02637,-0.0605 0.03272,-0.0757 0.08789,-0.16993 0.14209,-0.23194 l 0.33643,-0.38428 c 0.02197,-0.0249 0.30322,-0.3208 0.30322,-0.3208 1.60156,-1.9917 3.84766,-3.0791 7.01562,-3.38964 0.23438,-0.1211 5.2544,-2.70655 5.2544,-2.70655 0.11133,-0.0571 0.23486,-0.0874 0.35937,-0.0884 l 2.52393,-0.019 c -0.062,4.9e-4 -0.11475,0.0229 -0.17188,0.0376 0.0796,-4.9e-4 0.1587,-0.005 0.23829,-0.004 0.43359,0.008 0.7583,0.34571 0.7583,0.77881 0,0.002 0,0.003 0,0.005 -0.002,0.31104 -0.19727,0.56543 -0.46534,0.68994 0.84766,0.0679 1.67188,0.34961 2.37061,0.91065 0.30811,0.2417 0.64746,0.31152 0.9248,0.18603 0.83106,-0.4082 1.59766,-0.65185 2.56592,-0.48095 0.87696,0.1626 1.55127,0.74365 2.06983,1.77734 0.0122,0.0234 0.023,0.0479 0.0322,0.0728 l 0.17334,0.45459 c 0.11133,0.29052 0.0435,0.61962 -0.1748,0.8413 -0.21778,0.22217 -0.54492,0.29737 -0.83789,0.1919 -0.80908,-0.29102 -1.50391,-0.6582 -2.18701,-1.15528 -0.47754,-0.38867 -1.38282,-0.10351 -2.18116,0.14795 -0.39795,0.12549 -0.76855,0.23194 -1.09814,0.27491 -0.24609,0.29248 -0.57031,0.53662 -0.87402,0.74707 -0.20508,0.14111 -0.51368,0.35498 -0.54834,0.45263 l -0.375,1.12842 c 0,-4.9e-4 0,-4.9e-4 0,-4.9e-4 0,0.004 -0.0103,0.0586 -0.0108,0.063 0.0132,-0.004 0.2627,0.13965 1.51368,-0.10058 1.65918,-0.32422 3.15429,-0.0942 4.60058,0.12841 l 2.20117,0.2544 c 0.40479,0.0464 0.74659,0.39404 0.74659,0.79785 0,0.0107 -0.35694,8.01758 -0.35694,8.01758 -0.003,0.0659 -0.0142,0.12988 -0.0332,0.19238 0,0 -1.83496,6.10352 -1.90625,6.34229 0.0395,3.09472 1.16601,3.37646 1.625,3.43994 0.26269,-0.0146 0.58691,-0.95117 0.78174,-1.51563 0.0117,-0.0317 0.42968,-1.09326 0.42968,-1.09326 0.0947,-0.24121 0.30127,-0.42139 0.55372,-0.48193 1.01513,-0.2461 1.24462,-0.80225 1.32861,-1.19922 0.15771,-0.7085 0.23681,-1.396 0.23681,-2.05078 l -0.0146,-0.48389 c -0.0112,-0.17334 -0.0381,-0.2998 -0.0713,-0.42041 -0.0449,0.062 -0.0874,0.10937 -0.11963,0.14111 -0.50928,0.51075 -0.92969,0.53174 -1.19141,0.45899 -0.063,-0.0176 -0.11523,-0.0591 -0.17187,-0.0913 -0.6211,-0.17334 -0.98682,-0.81543 -1.11963,-1.3667 -0.0142,-0.0586 -0.021,-0.11621 -0.021,-0.17285 0,-0.30469 0.19483,-0.57422 0.48975,-0.70654 0.28369,-0.12745 0.60693,-0.0347 0.84131,0.16601 0.0356,-0.14355 0.0942,-0.28174 0.19677,-0.38281 0.0317,-0.0312 0.0737,-0.0498 0.10987,-0.0762 -0.02,-0.0298 -0.0239,-0.0654 -0.0395,-0.0977 -0.0415,-0.0361 -0.10352,-0.042 -0.13672,-0.0869 -0.32422,-0.4336 -0.5586,-0.94776 -0.72608,-1.34815 -0.18017,-0.42822 -0.40576,-0.91308 -0.7163,-1.26221 -0.12989,-0.14648 -0.15918,-0.31103 -0.15918,-0.50488 0,-0.0186 0.0186,-0.0947 0.0195,-0.11328 l 0.14404,-2.93018 c 0.009,-0.13281 0.0527,-0.26318 0.12402,-0.37548 l 0.18116,-0.28418 c 0.12695,-0.19825 0.33496,-0.33106 0.56835,-0.36133 0.23438,-0.0303 0.46924,0.0449 0.64258,0.20459 1.88575,1.73974 3.05616,3.72803 3.6836,6.25732 l 0.39892,1.23584 c 0.39551,1.125 0.85059,2.42188 0.85059,3.8125 0,1.48877 -0.54736,2.81348 -1.62695,3.93701 -0.98096,1.08204 -1.10499,3.3335 -1.23682,5.7168 -0.10254,1.87012 -0.21973,3.99024 -0.82764,5.83936 -0.0859,0.26074 -0.2998,0.45849 -0.5664,0.52441 0,0 -1.12549,0.27686 -1.60987,0.396 -0.28515,0.59131 -2.38037,4.93261 -2.38037,4.93261 -0.99463,2.41065 -1.91601,3.23194 -2.58887,3.83106 -0.3833,0.3418 -0.66015,0.58838 -0.84716,1.04004 -0.22461,0.53271 -0.36231,0.94287 -0.36231,1.35254 0,0.33349 0.083,0.87793 0.77783,1.74511 0.0557,0.0581 0.44385,0.46778 0.44385,0.46778 0.32178,0.30664 0.57422,0.54785 0.57422,0.97265 l -0.31152,0.69971 c -0.0498,0.11182 0.0137,-4.9e-4 -0.0806,0.0776 l -0.42627,0.35302 c -1.08935,0.91309 -2.22021,1.86133 -4.85937,2.29639 -3.10596,0.51953 -4.94678,-0.17578 -5.59424,-0.49853 z" />
    <path
       id="path903"
       style="fill:#070a09;fill-opacity:1;fill-rule:nonzero;stroke:none"
       d="m 113.86377,330.44189 c -0.89453,0.54932 -0.38037,2.23438 0.48877,2.45899 0,0 0.35986,0.36426 1.01318,-0.29053 0.14991,-0.14795 0.33155,-0.4707 0.2959,-1.02002 0.21826,0.64502 0.44385,0.84131 0.48731,1.53125 0.0513,0.84082 -0.0269,1.71729 -0.22852,2.62305 -0.16064,0.76123 -0.66064,1.33887 -1.81738,1.53955 -0.5791,1.11719 -0.85938,3.05859 -1.63819,3.0376 -1.27832,-0.16065 -1.93896,-1.4419 -1.95996,-3.83643 l 1.94043,-6.45361 0.37842,-8.47168 c -2.47754,-0.0625 -4.59473,-0.92139 -7.15283,-0.42188 -1.13916,0.21875 -2.11865,0.26123 -1.89844,-0.41992 l 0.37842,-1.13916 c 0.14062,-0.39844 1.16113,-0.79639 1.58008,-1.39844 0.95898,-0.0586 2.75634,-1.1167 3.63525,-0.39843 1.04053,0.75879 2.03858,1.23681 3.01904,1.41699 -0.14111,-0.47901 -0.31982,-0.9375 -0.52002,-1.3584 -0.40087,-0.79883 -0.95996,-1.4375 -1.81787,-1.59668 -0.90088,-0.15967 -1.59961,0.0781 -2.37793,0.46094 -0.43945,0.19824 -0.91992,0.04 -1.2788,-0.24121 -0.91944,-0.73828 -2.03858,-1.00049 -3.07715,-0.84131 -2.43604,0.3418 -4.87549,1.28076 -7.11426,3.33887 -0.28027,0.13964 -0.41846,-0.24122 -0.19873,-0.48047 3.55469,-3.0376 6.59424,-3.85742 9.45215,-3.27491 0.61718,0.0376 0.51855,-0.70166 -0.32032,-0.70166 -0.54101,0.0215 -0.8999,-0.0981 -1.11962,-0.37988 l -2.75684,0.021 -5.39551,2.77881 c -2.79785,0.26025 -5.1543,1.15722 -6.89258,3.31543 -0.20068,0.2417 -0.47998,0.4414 -0.66064,0.73925 -0.22022,0.39942 -0.36035,0.89991 -0.55908,1.29737 -0.15821,0.30029 -0.53955,0.10254 -0.37842,-0.19776 0.31787,-0.64111 0.37842,-1.54101 -0.02149,-1.36035 -6.25488,1.12061 -10.4707,4.41992 -11.66845,10.23145 -1.49951,7.25146 -0.93067,13.1792 -0.1001,16.86377 0.59473,2.6416 2.71289,4.98974 5.00977,8.19189 0.34033,0.45606 0.62402,0.93897 0.74462,0.77686 0.14161,-0.15723 0.78565,0.043 1.18457,0.20263 0.4004,0.13819 1.79346,-2.27881 3.35108,-3.75732 0.99853,-1.11768 1.93896,-0.99902 2.59912,-0.49756 v 0 c 1.47803,1.45752 2.59619,2.17578 3.45459,2.43555 l 3.79785,2.89795 c 0.59717,0.75879 1.3374,1.20117 2.09766,1.51855 0.06006,0.02 0,0.12012 0.06006,0.1792 0.05908,0.0806 0.15918,-0.0171 0.42041,0.22022 0.37939,0.32275 0.69873,0.6206 0.75879,0.94091 0.03857,0.59766 -0.06006,1.01807 -0.26075,1.34082 -0.40039,0.63721 -0.45947,0.53907 -0.90039,0.85401 -0.27929,0.1997 -0.37793,0.54345 -0.27929,1.15967 0.22168,1.26123 0.20117,1.84716 0.08056,3.18457 -0.02051,0.28076 0.28076,0.62011 0.49903,0.73877 0.95996,0.47949 2.7583,0.91455 5.39599,0.47363 2.89795,-0.47803 3.87403,-1.56836 5.1543,-2.60352 0.63965,-0.70019 -0.17774,-1.02295 -0.69873,-1.68066 -1.17627,-1.45899 -0.95899,-2.33008 -0.48047,-3.46729 0.58105,-1.39892 1.87939,-1.09863 3.45605,-4.91455 l 2.44092,-5.05761 2.02246,-0.49756 c 1.44043,-4.03516 0.26026,-9.77051 2.21875,-11.93018 2.93653,-3.05566 0.79883,-6.61182 0.28028,-8.65137 -0.61914,-2.49804 -1.76416,-4.57568 -3.96241,-6.45752 l -0.53906,0.84473 -0.22217,3.2334 c 0.80909,0.72461 0.96534,2.26318 1.78662,3.08643 l 0.15186,0.15429 c 0.2002,0.40723 -0.36133,-0.18994 -0.47852,0 -0.11523,0.18897 0.24854,1.11475 -0.20654,0.95801 -0.35596,-0.12256 -0.48828,-0.97412 -0.3042,-1.10889 0.0718,-0.0552 0.26319,-0.21826 0.3252,-0.23388 -0.2251,-0.0469 -0.42041,-0.0635 -0.67383,0.0942 m -12.10938,7.7212 c -0.95849,1.18066 -1.17919,0.45898 -2.13818,1.99804 -0.5581,0.89893 -1.45947,1.21826 -1.71924,0.5 -0.29883,-0.043 -0.8584,-0.10156 -1.05761,-0.33935 -0.8794,-1.05957 -2.05713,-2.22022 -3.37696,-2.61865 -0.51953,-1.35792 -1.39795,-1.03907 -2.0376,-2.6377 h -0.30078 c -0.53955,-1.71631 -0.77832,-2.89648 0,-4.51563 l 0.25977,-0.0205 0.51953,-1.75928 c 0.51856,-0.2793 0.85986,-0.65918 1.14063,-1.09668 1.03808,-0.0996 1.85644,-0.0386 2.17773,0.34033 l 1.03809,0.87891 c 0.16064,0.1792 0.33935,0.13721 0.45849,0.39697 0.41748,0.91748 1.23047,1.83545 1.79199,2.50586 -0.0068,-0.006 -0.0166,-0.009 -0.02539,-0.0161 0.16944,0.14697 0.26709,0.35693 0.29151,0.40576 0.27832,0.54443 -0.62598,-0.1836 -0.71485,0.10058 -0.08203,0.26368 0.35401,1.23194 -0.07812,0.96582 -0.43652,-0.27197 -0.54248,-1.20849 -0.29688,-1.3916 0.08301,-0.0586 0.1792,-0.12548 0.47754,-0.13232 -0.3667,-0.36035 -1.06982,-0.15137 -1.19629,0.041 -0.62548,0.94971 -0.16015,2.56202 0.86866,3.01416 0,0 0.63867,0.1543 1.41064,-0.61669 0.17773,-0.17872 0.31201,-0.70118 0.2749,-1.24756 l 1.8335,1.76953 0.30029,0.73779 c 0.28076,1.41992 0.37842,2.43848 0.0986,2.73731 M 84.2334,309.17041 c 0,2.08838 1.34521,3.25635 2.97021,3.25635 0.36328,0 13.93555,0 14.27344,0 0.22608,0.22558 0.29639,0.34277 0.46143,0.40918 1.51757,0 2.57275,0.0117 4.79736,0.0117 0.41455,-0.0117 0.45117,-0.22608 0.57324,-0.4209 5.07764,0 10.59033,0 15.44043,0 0.11572,0.18945 0.30811,0.4209 0.57324,0.4209 1.18262,0.002 4.26416,0.0356 5.41504,-0.004 0.22608,0 0.38672,-0.21582 0.51172,-0.4165 1.3086,0 2.19287,0 3.11914,0 1.58008,0 1.90137,-0.0347 2.15918,0 0.68848,0 2.17627,0 3.06397,0 -0.40039,0.29736 -0.83008,0.59863 -0.82471,0.59863 -0.46387,0.90918 -6.2583,6.48877 -8.5166,8.74414 -0.69971,2.23975 -4.75488,3.43897 -5.73486,4.47949 -1.05762,1.31641 -2.65723,3.13526 -2.65723,5.39063 0,0.81885 0.8374,2.43945 0.58008,4.57617 -0.2793,1.29883 -1.07813,1.29883 -1.40039,2.17773 -0.45801,1.25977 -1.27539,0.66065 -1.35694,4.65772 0.13965,5.15332 -1.41894,6.47363 -0.77978,8.62842 2.51904,1.24316 4.15576,3.13769 5.83447,5.03662 0.78076,0.89844 2.27979,7.33398 -1.4585,10.92773 -1.89795,1.82032 -5.95947,1.77979 -9.97021,-0.53662 -0.92627,-0.92676 -1.73877,-0.1831 -1.73877,-0.1831 -4.17236,4.17627 -10.60791,2.77881 -10.60791,2.77881 0,0 -1.30811,-0.32715 -1.69971,0.44042 -1.21924,2.53809 -3.63623,3.39893 -7.85107,1.87989 -2.65772,-1.89844 -4.73584,-4.6333 -6.1958,-8.19141 L 82.375,362.79102 c -0.28027,-1.09571 -0.83057,-1.24024 -1.11035,-2.33594 -0.31934,-1.32178 -1.06934,-2.21875 -1.48731,-3.09619 -1.09814,-2.37989 -2.75781,-4.63868 -4.95605,-6.77539 v 0 c -4.91504,-4.33643 -8.69043,-9.8711 -11.70947,-16.58204 -5.69287,-12.71093 -5.95362,-22.76123 -10.68848,-35.6289 -3.51758,-9.7124 -0.75928,-17.28467 -0.479,-23.19776 0.11962,-4.55761 -1.07959,-8.29296 -2.73731,-11.53222 -0.08203,-0.15625 -0.46045,-0.41602 -0.52099,-0.57617 -0.09864,-0.32032 -0.15967,-0.6211 -0.15967,-1.04102 -0.01953,-0.41797 0.02002,-1.11914 0.40088,-1.07617 h 6.51367 c 1.91748,0.87988 4.38183,0.55664 7.11963,-0.0449 h 3.59668 c 0.61816,0.26172 1.37109,0.44043 2.31006,0.0625 1.69873,0.0801 2.89892,0.24218 2.9375,0.5791 l 1.11914,7.81348 c 0.32031,1.19921 0.75878,2.35937 1.43847,3.39648 0.61865,0.93848 0.63721,1.5 1.24805,2.34766 0.31641,0.51562 0.67529,1.10546 0.96045,1.7539 0.25146,0.56055 0.44531,1.16992 0.50049,1.8125 0.0581,0 0.11621,0 0.1748,0 0.01074,0.74121 0.1167,0.54492 0.29346,0.9336 0.01855,0.29199 0.03711,0.58496 0.05762,0.87793 0.1538,0.66113 0.1958,1.50878 0.35009,2.15918 0.05909,0.52636 0.11866,1.05273 0.1753,1.57812 1.66064,2.07031 0.35888,-5.04199 1.43408,-5.43555 -0.24903,-1.62597 -0.07031,-8.52636 -0.20557,-8.625 -0.42529,-0.41601 -0.46387,-0.89257 -0.81982,-1.36328 -0.49561,-0.66015 -1.03662,-1.55078 -1.69385,-2.04883 -0.55713,-0.41796 -1.17187,-0.89257 -1.57812,-1.45898 -0.42432,-0.5918 -0.5337,-1.2832 -0.87549,-1.98731 -0.09229,-0.18847 -0.20996,-0.0908 -0.292,-0.17578 -0.06982,-0.0693 -0.56005,-1.98144 -0.58251,-2.18847 1.0581,-0.12989 2.00927,0.23828 2.87646,0 0.48779,0 0.99902,0.28711 1.48633,0.28711 1.39648,0 2.16357,-0.31836 3.70019,-0.31836 1.63477,0.0195 3.27149,0.041 4.90577,0.0596 1.64843,0 2.18652,0.0254 3.77685,0.0254 -0.07568,0.16504 -0.16602,0.36328 -0.40723,0.8916 -0.41601,0 -2.54736,0 -1.83203,0 -0.7041,-0.043 -2.62304,0.20508 -3.2666,2.41699 -0.26221,0.64356 -0.14307,2.30371 -0.14355,3.17969 0,0.43652 -0.0059,10.77148 -0.0059,12.64941 -0.28125,0 -0.6836,0.20215 -0.6836,0.49414 0,0.55274 -0.01855,6.10938 -0.01855,6.292 0,0.2998 0.33349,0.57617 0.70215,0.57617 0.03222,1.62988 0.03369,20.84814 0.03369,21.68115 z" />
    <path
       id="path907"
       style="fill:#ffffff;fill-opacity:1;fill-rule:nonzero;stroke:none"
       d="m 138.5874,280.12695 v -7.07226 c 0,-0.0977 -0.0264,-0.16797 -0.0664,-0.21973 v -0.35254 h -1.9878 v 0.35742 c -0.0679,0.0996 -0.0703,0.21485 -0.0703,0.21485 v 7.07226 H 94.76124 v -6.89843 c 0,-0.0977 -0.02832,-0.16797 -0.06738,-0.21875 v -0.35352 h -1.98535 v 0.35352 c -0.07032,0.0996 -0.07178,0.21875 -0.07178,0.21875 v 6.89843 h -7.65186 v -3.81933 l 6.9917,-0.008 v -4.14355 c 0,-0.20605 0.16553,-0.37012 0.36573,-0.37012 h 2.71679 c 0.20117,0 0.36524,0.16407 0.36524,0.37012 v 4.14355 h 40.37744 v -4.14355 c 0,-0.20605 0.16406,-0.37012 0.36572,-0.37012 h 2.71924 c 0.20019,0 0.36523,0.16407 0.36523,0.37012 v 4.14355 l 6.39014,0.008 0.0395,3.81933 h -7.09424 z" />
  </g>
  <g
     id="g971"
     transform="matrix(0.18700066,0,0,0.18700066,387.33306,239.32412)"
     style="fill:#ffffff;fill-opacity:1;stroke:none;stroke-opacity:1">
    <path
       id="path905"
       style="fill:#ffffff;fill-opacity:1;fill-rule:evenodd;stroke:none;stroke-opacity:1"
       d="m 702.89746,271.62695 h -10.92969 c -0.28808,0 -0.56543,0.14063 -0.70898,0.42383 -0.28711,0.28516 -0.28711,0.56934 -0.28711,0.85156 l 3.97461,24.417 c 0,0.42724 0.56641,0.85254 0.99512,0.85254 h 10.93066 c 0.28418,0 0.5625,-0.14307 0.70996,-0.4253 0.28418,-0.14258 0.28418,-0.42724 0.28418,-0.85351 l -3.97851,-24.27295 c 0,-0.56934 -0.42383,-0.99317 -0.99024,-0.99317 v 0 m 15.33301,-10.92773 h -37.19531 v 0 c -5.53614,0.28125 -8.65528,2.83594 -7.52149,9.64844 l 4.82715,30.37793 0.14063,1.27636 c 0.14453,0 0.14453,0 0.14453,0.14405 1.84277,5.8208 5.67285,7.09668 10.07715,7.37939 v 0 H 709 c 0.56836,0 0.99316,0.2876 0.99316,0.85156 l 2.55372,15.90039 c 0.14257,0.42579 0.56835,0.85157 1.13769,0.85157 h 14.9043 c 0.29004,0 0.5664,-0.14209 0.85254,-0.42578 0.14453,-0.14307 0.28515,-0.42579 0.28515,-0.85059 l -10.50683,-64.30469 c 0,-0.56738 -0.4209,-0.84863 -0.98926,-0.84863 v 0 m -53.66309,0 h -14.90332 c -0.4248,0 -0.70996,0.13769 -0.85156,0.28125 -0.28223,0.2832 -0.28223,0.56738 -0.28223,0.85156 l 5.67676,35.06104 c 0,0.42627 0,0.71093 -0.2832,0.85351 -0.1416,0.28223 -0.42676,0.4253 -0.71192,0.4253 H 642.2832 c -0.42773,0 -0.84961,-0.4253 -0.99316,-0.85254 l -5.82324,-35.77149 c 0,-0.56738 -0.42383,-0.84863 -0.99317,-0.84863 h -15.04687 c -0.28125,0 -0.56543,0.13769 -0.70899,0.28125 -0.28418,0.2832 -0.28418,0.56738 -0.28418,0.85156 l 7.52344,46.70068 c 0.14453,0.56885 0.56836,0.99268 1.1377,0.99268 h 36.90722 0.14453 c 5.39454,-0.7085 7.94922,-3.54736 7.80176,-8.51758 v -0.13965 l -6.38379,-39.32031 c 0,-0.56738 -0.42773,-0.84863 -0.99707,-0.84863 v 0 m -445.58593,66.71387 c -4.82764,-1.70264 -7.52393,-6.38819 -6.10303,-10.50489 1.41748,-3.97265 6.52783,-5.96142 11.354,-4.2539 4.82715,1.84228 7.66699,6.52539 6.10401,10.50049 -1.41846,4.11767 -6.5293,5.95947 -11.35498,4.2583 v 0 m -14.19727,-66.71387 h 15.04736 c 0.42627,0 0.85157,0.28125 0.9961,0.84863 L 228.3501,308.25 c 0,0.28271 0,0.56689 -0.28516,0.85156 -0.1416,0.28369 -0.42627,0.42383 -0.70849,0.42383 h -15.04737 c -0.42627,0 -0.85156,-0.42383 -0.99316,-0.99268 l -7.52246,-46.70068 c -0.14453,-0.28418 0,-0.56836 0.14062,-0.85156 0.28321,-0.14356 0.56787,-0.28125 0.8501,-0.28125 v 0 m -25.93262,38.74853 c -0.14453,-0.42431 0,-0.70996 0.1416,-0.85009 0.28125,-0.2837 0.56641,-0.42578 0.85059,-0.42578 h 21.91602 c 0.42578,0 0.70898,-0.14307 0.85156,-0.4253 0.14062,-0.14258 0.28418,-0.42724 0.28418,-0.85351 l -1.98731,-10.92823 c -0.14257,-0.57031 -0.56836,-0.85156 -1.13476,-0.85156 h -22.34278 c -0.56836,0 -0.99316,-0.42773 -1.13671,-0.99512 l -3.54786,-22.57031 c -0.1416,-0.56738 -0.56738,-0.84863 -1.13476,-0.84863 h -14.9043 c -0.28613,0 -0.56933,0.13769 -0.85254,0.28125 -0.14062,0.2832 -0.28418,0.56738 -0.28418,0.85156 5.53614,33.64063 8.08887,49.6836 10.50684,64.44531 0,0.42579 0.4248,0.85157 0.98828,0.85157 h 39.52051 c 0.42578,0 0.56836,-0.14209 0.85254,-0.42578 0.13965,-0.14307 0.2832,-0.42579 0.2832,-0.85059 l -1.56152,-9.08496 c 0,-0.56738 -0.56836,-0.99365 -0.99317,-0.99365 h -22.76855 c -0.56836,0 -0.99219,-0.28272 -1.13672,-0.85157 -0.70801,-5.10937 -1.56152,-10.36474 -2.41016,-15.47461 v 0 m 354.26953,-8.65673 c -0.14062,-0.28418 0,-0.56836 0.28516,-0.85352 0.1416,-0.28418 0.42578,-0.28418 0.71191,-0.28418 h 10.92676 c 0.42871,0 0.85156,0.28418 0.99414,0.85352 l 3.97461,24.13281 c 0,0.28271 0,0.56689 -0.28515,0.85156 -0.13965,0.14111 -0.42383,0.28272 -0.84961,0.28272 h -10.78809 c -0.56836,0 -0.99414,-0.28272 -1.13574,-0.85157 l -3.83399,-24.13134 m -11.35644,35.48632 c 0,0.42579 0.43066,0.85157 0.99219,0.85157 h 37.61718 c 2.7002,0 8.2334,-2.9795 7.52539,-7.66455 l -0.42968,-2.12842 -5.1045,-31.6543 c -0.70898,-4.9707 -6.10546,-7.38476 -10.083,-7.38476 H 531.9873 c -0.56933,0 -0.99511,-0.42579 -0.99511,-0.85157 l -2.55664,-15.89746 c -0.1416,-0.56738 -0.56543,-0.84863 -1.13379,-0.84863 h -14.90528 c -0.42578,0 -0.56543,0.13769 -0.85058,0.28125 -0.14258,0.2832 -0.2832,0.56738 -0.2832,0.85156 l 10.50195,64.44531 m 73.81348,-54.65039 h -10.92579 c -0.29004,0 -0.57031,0.14063 -0.71093,0.42383 -0.28614,0.28516 -0.28614,0.56934 -0.28614,0.85156 l 1.1377,6.67188 c 0,0.56933 0.42676,0.99707 0.99414,0.99707 h 10.78711 c 0.42676,0 0.71094,-0.14258 0.84961,-0.42774 0.28418,-0.2832 0.28418,-0.56933 0.28418,-0.85156 l -1.13379,-6.67187 c 0,-0.56934 -0.56641,-0.99317 -0.99609,-0.99317 v 0 M 573.7207,260.69922 h -0.14355 c -5.39356,0.42187 -7.94922,3.12109 -7.66211,7.94531 0,0.14453 0,0.14453 0,0.14453 l 0.28125,1.5586 2.26855,13.91211 v 0 c 1.14063,4.82812 4.97461,7.09765 10.50782,7.52148 0.13964,0 0.13964,0 0.13964,0 h 19.87403 c 0.42773,0 0.71191,0.28711 0.85547,0.57031 0.13769,0.14258 0.13769,0.14258 0.13769,0.28223 l 0.56934,4.25928 c 0,0.42627 0,0.71093 -0.28516,0.85351 -0.13965,0.28223 -0.42187,0.4253 -0.70703,0.4253 h -27.68066 c -0.28418,0 -0.57032,0.14208 -0.85157,0.42578 -0.1416,0.14013 -0.28808,0.42578 -0.28808,0.85009 l 0.43164,2.41455 c 0.70801,4.11573 5.10742,7.38038 9.79101,7.66309 0,0 0,0 0.14454,0 h 29.24023 c 0.14355,0 0.14355,0 0.14355,-0.14014 4.96778,-0.70752 8.65821,-2.69775 7.80762,-8.65966 l -6.24902,-38.32715 c -0.14063,-0.70899 0,-1.69922 -1.5586,-1.69922 -5.11132,0 -18.17187,0 -36.7666,0 v 0 m 182.83301,10.92773 h -10.78516 c -0.28906,0 -0.57128,0.14063 -0.85449,0.42383 -0.14453,0.28516 -0.27929,0.56934 -0.27929,0.85156 l 1.13378,6.67188 c 0.13672,0.56933 0.56641,0.99707 0.99317,0.99707 h 10.92871 c 0.28223,0 0.56543,-0.14258 0.84863,-0.42774 0.14453,-0.2832 0.28614,-0.56933 0.14453,-0.85156 l -0.99316,-6.67187 c -0.14453,-0.56934 -0.56152,-0.99317 -1.13672,-0.99317 v 0 m -21.85937,-10.92773 v 0 c -5.39454,0.42187 -7.94922,3.12109 -7.80957,7.94531 0,0.14453 0,0.14453 0,0.14453 l 0.28418,1.5586 2.41699,13.91211 v 0 c 0.98926,4.82812 4.82324,7.09765 10.50097,7.52148 v 0 h 19.875 c 0.42579,0 0.84961,0.28711 0.98926,0.57031 0,0.14258 0,0.14258 0,0.28223 l 0.57324,4.25928 c 0.14161,0.42627 0,0.71093 -0.14453,0.85351 -0.28027,0.28223 -0.56836,0.4253 -0.84472,0.4253 h -27.68848 c -0.2832,0 -0.56543,0.14208 -0.70898,0.42578 -0.27637,0.14013 -0.27637,0.42578 -0.27637,0.85009 l 0.41992,2.41455 c 0.70801,4.11573 5.1123,7.38038 9.7959,7.66309 v 0 h 29.38281 c 0,0 0,0 0.14453,-0.14014 4.96582,-0.70752 8.65821,-2.69775 7.66211,-8.65966 l -6.10254,-38.32715 c -0.14453,-0.70899 -0.14453,-1.69922 -1.7041,-1.69922 -5.11035,0 -18.16797,0 -36.76562,0 v 0 m -322.65723,37.18994 h 10.92969 c 0.28222,0 0.56836,-0.14258 0.70996,-0.42676 0.28515,-0.28613 0.28515,-0.56933 0.28515,-0.85205 l -1.13769,-6.67285 c 0,-0.56641 -0.42676,-0.99219 -0.99121,-0.99219 h -10.78906 c -0.42774,0 -0.7129,0.14258 -0.85059,0.42578 -0.2832,0.28223 -0.2832,0.56641 -0.2832,0.85157 l 1.13379,6.67041 c 0,0.56933 0.56835,0.99609 0.99316,0.99609 v 0 m -6.95606,11.2124 h 28.39258 0.13867 c 5.25293,-0.42383 8.2334,-2.98291 8.09083,-8.37597 v -0.14014 l -0.14161,-1.27881 -2.12695,-13.3418 c -0.70996,-4.11718 -3.55078,-7.95312 -10.08398,-7.95312 h -20.43457 c -0.57129,0 -0.99805,-0.42383 -1.1377,-0.99219 l -0.71289,-4.39941 c 0,-0.42676 0,-0.71192 0.28711,-0.85254 0.1416,-0.28516 0.42578,-0.42578 0.85059,-0.42578 h 27.54101 c 0.42383,0 0.56641,-0.14063 0.85156,-0.42481 0.14258,-0.14258 0.28516,-0.42383 0.28516,-0.85156 l -0.57031,-3.12402 c -0.56641,-3.1211 -4.26075,-6.24219 -9.51172,-6.24219 h -29.66895 c -4.96582,0 -8.23047,2.5498 -7.66308,8.65625 v 0 l 5.10742,31.79541 c 0,0 0,0 0,0.14551 1.70508,5.25146 4.97168,8.08886 10.36816,7.80517 0.13867,0 0.13867,0 0.13867,0 v 0 m -161.40039,0.42383 h 29.38575 c 1.41894,0 3.54687,0 6.24218,-2.69238 1.5625,-1.42383 1.98633,-3.83545 1.70508,-5.25391 l -0.42578,-2.55566 c 0,-0.42578 -0.42773,-0.85156 -0.99414,-0.85156 h -28.24756 c -0.56787,0 -0.99463,-0.4253 -1.13623,-0.85254 l -0.56836,-4.25782 c 0,-0.42773 0.14209,-0.70996 0.28516,-0.85058 0.14013,-0.28321 0.4248,-0.42969 0.85156,-0.42969 h 19.58691 c 0.14454,0 0.14454,0 0.14454,0 5.25195,-0.5625 7.80664,-3.12305 7.80664,-7.80664 0,-0.14063 0,-0.14063 0,-0.14063 l -2.69727,-16.04101 v 0 c -0.99414,-4.82617 -4.68262,-6.67188 -9.65039,-7.09375 -0.14453,0 -0.14453,0 -0.14453,0 h -29.24219 c -1.56006,0 -4.54101,0.56445 -6.2456,2.41113 -0.8501,0.99317 -1.98633,2.97949 -1.84473,5.39356 0,0 0,0 0,0.14062 l 0.42627,2.12988 c 0,0.56739 0.42529,0.85254 0.99219,0.85254 h 28.81543 c 0.57226,0 0.99609,0.42383 0.99609,0.85059 l 0.8501,4.54199 c 0.14551,0.42578 0,0.71094 -0.14014,0.85156 -0.28369,0.28614 -0.56982,0.42579 -0.85596,0.42579 -6.66797,0 -13.33886,0 -20.0122,0 v 0 c -5.1084,0.42578 -8.23389,2.84082 -8.09082,7.94921 0,0.14454 0,0.14454 0,0.28516 0.85058,5.25 1.70312,10.50488 2.55615,15.75684 0,0 0,0.14209 0.14014,0.14209 1.56298,4.54199 4.82763,6.67138 9.51171,7.09521 v 0 0 m 53.94141,0 h 29.23828 c 1.42285,0 4.68848,-0.14014 6.67871,-2.83789 0.98926,-1.42139 1.7041,-3.68994 1.5586,-4.96631 -0.14161,-0.14209 -0.14161,-0.14209 -0.14161,-0.14209 l -0.42773,-2.55566 c 0,-0.42578 -0.42676,-0.85156 -0.98926,-0.85156 -10.64941,0 -16.47265,0.14208 -26.40234,0 -1.84766,0 -2.7002,-1.27881 -2.98438,-2.98243 l -3.26562,-20.72461 c -0.14063,-0.85156 0.28613,-2.83789 2.27051,-2.83789 h 25.83691 c 0.28613,0 0.56641,-0.14453 0.71094,-0.28515 0.2832,-0.28321 0.2832,-0.56739 0.2832,-0.84864 l -0.14258,-0.99511 c -0.14062,-0.56641 -0.14062,-0.70899 -0.28515,-1.84571 -0.56641,-4.26171 -5.96485,-6.95312 -9.79102,-6.95312 h -28.96289 c -4.68262,0 -9.22461,2.69141 -8.37109,7.94531 l 5.25097,32.93457 c 0.85059,4.96875 5.10547,7.38233 9.79395,7.94629 0.1416,0 0.1416,0 0.1416,0 v 0 m 48.40723,17.60352 h 15.18945 c 0.28027,0 0.56348,-0.14209 0.85254,-0.42578 0.14062,-0.14307 0.2832,-0.42579 0.14062,-0.85059 l -2.41601,-15.19092 c 0,-0.28467 0,-0.56689 0.28515,-0.84863 0.14258,-0.2876 0.42872,-0.2876 0.70997,-0.2876 h 19.59082 v 0 c 5.25293,-0.56396 7.94629,-3.40674 7.80566,-8.51758 0,0 0,0 0,-0.13965 l -6.38965,-39.32031 c 0,-0.56738 -0.42285,-0.84863 -0.99219,-0.84863 h -15.04589 c -0.28223,0 -0.56934,0.13769 -0.71289,0.28125 -0.28223,0.2832 -0.28223,0.56738 -0.28223,0.85156 l 5.68066,35.06104 c 0,0.42627 0,0.71093 -0.28515,0.85351 -0.14356,0.28223 -0.42383,0.4253 -0.71094,0.4253 h -10.92969 c -0.56445,0 -0.99316,-0.4253 -0.99316,-0.85254 l -5.82129,-35.77149 c 0,-0.56738 -0.56641,-0.84863 -0.99121,-0.84863 h -15.04883 c -0.28516,0 -0.56738,0.13769 -0.70899,0.28125 -0.2832,0.2832 -0.2832,0.56738 -0.2832,0.85156 l 10.35938,64.44531 c 0.14843,0.42579 0.57031,0.85157 0.99707,0.85157 v 0 m 96.95508,-66.42969 h 14.90234 c 0.56933,0 0.99609,0.28125 1.13476,0.84863 l 5.68165,35.77149 c 0.14062,0.42724 0.56542,0.85254 1.13378,0.85254 h 16.32715 c 0.4209,0 0.84864,0.42578 0.99024,0.85156 l 1.4209,9.22656 c 0.14062,0.28271 0,0.56689 -0.14454,0.85156 -0.28027,0.28369 -0.56543,0.42383 -0.84961,0.42383 h -8.23437 -24.84375 c -0.56348,0 -0.98926,-0.42383 -0.98926,-0.99268 l -7.52344,-46.70068 c -0.14453,-0.28418 0,-0.56836 0.14063,-0.85156 0.2832,-0.14356 0.56934,-0.28125 0.85352,-0.28125 z" />
    <path
       id="path955"
       style="fill:#ffffff;fill-opacity:1;fill-rule:evenodd;stroke:none;stroke-opacity:1"
       d="m 789.65527,327.05273 c 4.24317,0 7.62403,-3.44921 7.62403,-7.76123 0,-4.38086 -3.38086,-7.79541 -7.65821,-7.79541 -4.24218,0 -7.6914,3.41455 -7.6914,7.79541 0,4.31202 3.44922,7.76123 7.6914,7.76123 h 0.0342 m -0.0342,-1.20703 c -3.41406,0 -6.208,-2.93213 -6.208,-6.5542 0,-3.69091 2.79394,-6.58837 6.24218,-6.58837 3.4502,-0.0347 6.20996,2.89746 6.20996,6.55371 0,3.65673 -2.75976,6.58886 -6.20996,6.58886 h -0.0342 m -1.44824,-11.07324 h -1.37988 v 8.6582 c 0.72461,0.10352 1.41406,0.20704 2.44922,0.20704 1.31054,0 2.17383,-0.27588 2.69043,-0.65577 0.51758,-0.37939 0.79297,-0.96582 0.79297,-1.79345 0,-1.13819 -0.75879,-1.82813 -1.69043,-2.10352 v -0.0693 c 0.75879,-0.13819 1.27734,-0.82813 1.44922,-2.1045 0.20703,-1.34472 0.41406,-1.8623 0.55273,-2.13867 h -1.44922 c -0.20703,0.27637 -0.41406,1.06934 -0.58691,2.20801 -0.20703,1.10351 -0.75879,1.51807 -1.86231,1.51807 h -0.96582 v -3.72608 m 0,4.79492 h 1 c 1.13867,0 2.10449,0.41407 2.10449,1.4834 0,0.75879 -0.55175,1.51758 -2.10449,1.51758 -0.44824,0 -0.75879,-0.0342 -1,-0.0693 v -2.93164 z" />
  </g>
</g>
</svg>
