<?xml version="1.0" encoding="UTF-8"?>
<svg xmlns="http://www.w3.org/2000/svg" width="26" height="26">
  <path
     id="rect2097"
     style="fill:#000000;fill-opacity:1;stroke:#d714e2;stroke-width:0;stroke-dasharray:none;stroke-opacity:1"
     d="m 11.591797,3.6954756 c -4.6294148,0 -8.3554692,2.8859648 -8.3554692,6.4687514 v 8.318359 c 0,3.582779 3.7260544,6.466795 8.3554692,6.466795 h 2.816406 c 4.629417,0 8.35547,-2.884016 8.35547,-6.466795 v -8.318359 c 0,-3.5827866 -3.726053,-6.4687514 -8.35547,-6.4687514 z m 9.300781,5.7539064 c 0.211454,-0.00125 0.383735,0.1955183 0.384766,0.439453 -9.8e-5,0.243817 -0.171461,0.44141 -0.382813,0.441406 L 5.1074214,10.375163 C 4.8945473,10.377671 4.7207908,10.179343 4.7207027,9.9337567 4.719858,9.6882952 4.892692,9.4891412 5.1054683,9.4903976 Z m -2.564453,2.021485 c 0.319735,0 0.646193,0.03699 0.978516,0.113281 0.33484,0.07383 0.694886,0.201196 1.080078,0.380858 v 0.867188 h -0.06836 c -0.07805,-0.05907 -0.191306,-0.136436 -0.339844,-0.232422 -0.14854,-0.09598 -0.293999,-0.176245 -0.4375,-0.240233 -0.173716,-0.0763 -0.372202,-0.138278 -0.59375,-0.187501 -0.219031,-0.05168 -0.468594,-0.07814 -0.748048,-0.07814 -0.629398,0 -1.126571,0.199458 -1.49414,0.595703 -0.365053,0.393783 -0.548829,0.92721 -0.548829,1.601562 0,0.71127 0.191544,1.265866 0.57422,1.66211 0.382675,0.393782 0.904842,0.589843 1.564453,0.589843 0.241689,0 0.481531,-0.02355 0.720703,-0.07031 0.241689,-0.04676 0.453499,-0.107805 0.634766,-0.181641 v -1.347656 h -1.507813 v -0.640625 h 2.248046 v 2.357422 c -0.307146,0.137824 -0.642759,0.259913 -1.007811,0.363281 -0.362535,0.100906 -0.714812,0.150391 -1.054688,0.150391 -0.438062,0 -0.840026,-0.0596 -1.205078,-0.177735 -0.365053,-0.118134 -0.674847,-0.29498 -0.931642,-0.531251 -0.259312,-0.23873 -0.460576,-0.535711 -0.601562,-0.892577 -0.140985,-0.359327 -0.210937,-0.779843 -0.210937,-1.259765 0,-0.878628 0.261496,-1.57113 0.785157,-2.078125 0.526178,-0.509457 1.247656,-0.763672 2.164062,-0.763672 z m -12.7187504,0.09961 h 0.7480468 v 4.847654 h 2.8085939 v 0.648438 H 5.6093746 Z m 4.3046879,0 h 1.1601565 l 2.431641,4.48828 v -4.48828 h 0.699218 v 5.496092 h -0.925781 l -2.666016,-4.91602 v 4.916016 H 9.9140625 Z m 10.9785155,6.70117 c 0.212113,-0.0012 0.384669,0.19671 0.384766,0.441407 8.38e-4,0.244579 -0.170799,0.443362 -0.382813,0.443359 l -15.7890627,0.04101 c -0.2114529,0.0012 -0.3837338,-0.195518 -0.3847656,-0.439452 9.93e-5,-0.243817 0.1714622,-0.441408 0.3828125,-0.441407 z" />
  <path
     id="rect2220"
     style="fill:#000000;fill-opacity:1;stroke:#d714e2;stroke-width:0;stroke-linejoin:round;stroke-dasharray:none;stroke-opacity:1"
     d="m 5.908498,21.61189 v 3.388109 H 20.091503 V 21.61189 c -1.488555,1.06795 -3.483188,1.719688 -5.683203,1.719691 h -2.816602 c -2.2000114,0 -4.1946425,-0.651741 -5.6832,-1.719691 z" />
  <path
     id="rect2220-2"
     style="fill:#000000;fill-opacity:1;stroke:#d714e2;stroke-width:0;stroke-linejoin:round;stroke-dasharray:none;stroke-opacity:1"
     d="M 7.2823371,6.8615085 V 3.473154 H 18.723784 V 6.8615085 C 17.522966,5.7934813 15.913893,5.1416964 14.13914,5.1416934 h -2.272157 c -1.774753,0 -3.3838252,0.6517871 -4.5846459,1.7198151 z" />
  <rect
     style="fill:#000000;fill-opacity:1;stroke:#d714e2;stroke-width:0;stroke-linejoin:round;stroke-dasharray:none;stroke-opacity:1"
     id="rect2722"
     width="0.80502599"
     height="4.1787734"
     x="7.276216"
     y="1.0000004" />
  <rect
     style="fill:#000000;fill-opacity:1;stroke:#d714e2;stroke-width:0;stroke-linejoin:round;stroke-dasharray:none;stroke-opacity:1"
     id="rect2722-5"
     width="0.80502599"
     height="4.1787734"
     x="17.91876"
     y="1.0000004" />
  <rect
     style="fill:#000000;fill-opacity:1;stroke:#d714e2;stroke-width:0;stroke-linecap:round;stroke-linejoin:round;stroke-dasharray:none;stroke-opacity:1"
     id="rect5679"
     width="1.9782605"
     height="2.6300368"
     x="12.010869"
     y="1.8279606"
     rx="0.51051885" />
  <defs
     id="defs6695" />
</svg>
