<svg height="48" width="21" xmlns="http://www.w3.org/2000/svg" xmlns:xlink="http://www.w3.org/1999/xlink"><clipPath id="a"><path d="m-42.104038 182.17764h18.421324v80.814156h-18.421324z"/></clipPath><path d="m-35.329664 249.13832 8.699537.12399-7.964365-4.58761 6.61655-3.84367-5.881378-2.47979 5.235893-3.70914-4.500721-3.11028 3.675861-3.59569-2.940688-2.23182 2.205516-2.47979-1.83793-1.98383m-5.813298 21.95593h-2.41994m2.41994-.91959h-2.41994m2.41994-.91958h-2.41994m2.41994 2.75876h-2.41994m1.179342-3.59414v3.87467m17.202212-1.20012h-2.419942m2.419942-.91959h-2.419942m2.419942-.91958h-2.419942m2.419942 2.75876h-2.419942m1.179339-3.59414v3.87467m1.44875-14.02763h-2.419941m2.419941-.91959h-2.419941m2.419941-.91959h-2.419941m2.419941 2.75877h-2.419941m1.179339-3.59414v3.87468m-14.850969-1.22205h-2.419941m2.419941-.91959h-2.419941m2.419941-.91958h-2.419941m2.419941 2.75876h-2.419941m1.179335-3.59413v3.87467m21.827641 5.72778h-2.419942m2.419942-.91958h-2.419942m2.419942-.9196h-2.419942m2.419942 2.75878h-2.419942m1.179339-3.59414v3.87467m-23.971893-1.20013h-2.41994m2.41994-.91958h-2.41994m2.41994-.9196h-2.41994m2.41994 2.75878h-2.41994m1.179342-3.59414v3.87467m9.597661-17.48252 5.996473.0438-2.863616 2.36201zm-5.002836 6.69543h16.051256l-7.915563-2.20586zm-4.656096 6.94342h25.363443l-12.571654-3.46845zm4.656096 5.95149h15.928728l-7.793035-4.52101zm12.506152 8.55527-8.699537.12399 7.964366-4.58761-6.61655-3.84367 5.881378-2.47979-5.235894-3.79883 4.500721-3.02059-3.675861-3.59569 2.940689-2.23182-2.205517-2.47979 1.837931-1.98383m-5.878599 31.67638 10.095364.0238-5.27895-3.6986-4.717208 3.69492m-.600328 4.75644h10.782525l-5.464989-4.21564zm-.588637 4.58761 5.906173-4.33963 6.591754 4.33963-5.881377-41.04051h-1.592873z" style="opacity:.187266;fill:none;stroke:#000;stroke-width:.58434;stroke-linecap:round;stroke-linejoin:round;clip-path:url(#a)" transform="matrix(1.1353293 0 0 1.1353293 47.882299 -250.10041)"/></svg>