<?xml version="1.0" encoding="UTF-8"?>
<svg xmlns="http://www.w3.org/2000/svg" viewBox="0 0 35 35">
<path
   style="opacity:0.5;fill:#ffffff;fill-opacity:1;stroke:none;stroke-width:0.89677829;stroke-miterlimit:4;stroke-dasharray:none;stroke-opacity:1"
   d="M 12.702184,0 11.163825,8.226264 2.8846567,7.239637 6.9738951,14.533566 0,19.120353 7.8018111,22.070875 5.3982421,30.083713 13.263452,27.309174 16.550879,35 20.798615,27.797807 28.242408,31.568334 26.884923,23.308371 35,21.393154 28.673149,15.943301 33.663026,9.237229 25.327916,9.145499 24.858018,0.788184 18.411827,6.097625 Z M 17.5,7.451191 A 9.8824017,10.047908 0 0 1 27.382791,17.499064 9.8824017,10.047908 0 0 1 17.5,27.546938 9.8824017,10.047908 0 0 1 7.6190731,17.499064 9.8824017,10.047908 0 0 1 17.5,7.451191 Z"
   id="path821" />
</svg>
