<?xml version="1.0" encoding="UTF-8"?>
<svg xmlns="http://www.w3.org/2000/svg" width="26" height="26">
  <path
     style="color:#000000;font-style:normal;font-variant:normal;font-weight:400;font-stretch:normal;font-size:medium;line-height:normal;font-family:sans-serif;font-variant-ligatures:normal;font-variant-position:normal;font-variant-caps:normal;font-variant-numeric:normal;font-variant-alternates:normal;font-variant-east-asian:normal;font-feature-settings:normal;font-variation-settings:normal;text-indent:0;text-align:start;text-decoration:none;text-decoration-line:none;text-decoration-style:solid;text-decoration-color:#000000;letter-spacing:normal;word-spacing:normal;text-transform:none;writing-mode:lr-tb;direction:ltr;text-orientation:mixed;dominant-baseline:auto;baseline-shift:baseline;text-anchor:start;white-space:normal;shape-padding:0;shape-margin:0;inline-size:0;clip-rule:nonzero;display:inline;overflow:visible;visibility:visible;isolation:auto;mix-blend-mode:normal;color-interpolation:sRGB;color-interpolation-filters:linearRGB;solid-color:#000000;solid-opacity:1;vector-effect:none;fill:#000000;fill-opacity:1;fill-rule:nonzero;stroke:none;stroke-width:0.135976px;stroke-linecap:butt;stroke-linejoin:miter;stroke-miterlimit:4;stroke-dasharray:none;stroke-dashoffset:0;stroke-opacity:1;color-rendering:auto;image-rendering:auto;shape-rendering:auto;text-rendering:auto;enable-background:accumulate;stop-color:#000000"
     d="M 25.325114,4.2697593 C 24.876765,4.4254461 24.421691,5.1259539 23.986792,5.1259539 23.207084,5.1197604 22.447049,4.8789114 21.804454,4.434389 21.25971,4.0361468 20.698153,3.6615961 19.995365,3.5713429 19.598936,3.5263768 19.197542,3.5659702 18.817328,3.6875441 18.286682,3.8625158 17.784413,4.114904 17.326568,4.4366454 16.96963,4.7760926 16.543545,5.0332527 16.077916,5.1902596 15.716167,5.3026658 15.332802,5.3255001 14.960406,5.2568216 14.254256,5.132723 13.610877,4.7356091 12.984308,4.4264918 12.339628,3.9857314 11.582229,3.7416772 10.80309,3.7236452 c -0.727446,0 -1.454892,0.225633 -2.1588005,0.691565 C 8.096183,4.8123241 7.5357466,5.1880029 6.8340804,5.2793844 6.4369694,5.3236041 6.0350557,5.2824591 5.6549225,5.1586708 5.1231163,4.9849946 4.6196605,4.7333397 4.1607995,4.4118258 3.8053828,4.0726474 3.3808145,3.8154791 2.916631,3.6582117 2.5500836,3.5449513 2.161976,3.5213587 1.7845498,3.5893937 1.4012114,3.653699 0.98873037,4.0688636 0.67488608,4.353161 v 18.27964 c 0,0.187276 0.13226298,0.339578 0.29142688,0.339578 H 25.039292 c 0.159162,0 0.284701,-0.150044 0.284701,-0.338451 z"
     id="path2-0"
     sodipodi:nodetypes="cccccccccccccccccssscc" />
  <path
     style="color:#000000;font-style:normal;font-variant:normal;font-weight:400;font-stretch:normal;font-size:medium;line-height:normal;font-family:sans-serif;font-variant-ligatures:normal;font-variant-position:normal;font-variant-caps:normal;font-variant-numeric:normal;font-variant-alternates:normal;font-variant-east-asian:normal;font-feature-settings:normal;font-variation-settings:normal;text-indent:0;text-align:start;text-decoration:none;text-decoration-line:none;text-decoration-style:solid;text-decoration-color:#000000;letter-spacing:normal;word-spacing:normal;text-transform:none;writing-mode:lr-tb;direction:ltr;text-orientation:mixed;dominant-baseline:auto;baseline-shift:baseline;text-anchor:start;white-space:normal;shape-padding:0;shape-margin:0;inline-size:0;clip-rule:nonzero;display:inline;overflow:visible;visibility:visible;isolation:auto;mix-blend-mode:normal;color-interpolation:sRGB;color-interpolation-filters:linearRGB;solid-color:#000000;solid-opacity:1;fill:#002e7e;fill-opacity:1;fill-rule:nonzero;stroke:none;stroke-width:0.131917px;stroke-linecap:butt;stroke-linejoin:miter;stroke-miterlimit:4;stroke-dasharray:none;stroke-dashoffset:0;stroke-opacity:1;color-rendering:auto;image-rendering:auto;shape-rendering:auto;text-rendering:auto;enable-background:accumulate;stop-color:#000000"
     d="m 24.996,4.4414162 c -0.436377,0.15055 -0.879299,0.387284 -1.302585,0.387284 A 3.8030244,3.8030244 0 0 1 21.569351,4.1599532 C 21.039153,3.7748502 20.492591,3.4126575 19.80857,3.3253821 a 2.7644474,2.7644474 0 0 0 -1.14658,0.1123672 5.5561684,5.5561684 0 0 0 -1.450953,0.7243859 3.2924634,3.2924634 0 0 1 -1.21531,0.728749 2.2887965,2.2887965 0 0 1 -1.087669,0.06437 c -0.687294,-0.120008 -1.313493,-0.50402 -1.923331,-0.802938 A 3.9393921,3.9393921 0 0 0 10.861753,3.4726593 c -0.708021,0 -1.4160421,0.2181889 -2.1011541,0.6687479 -0.533471,0.384011 -1.078942,0.747295 -1.761872,0.835661 A 2.7469924,2.7469924 0 0 1 5.8510559,4.8603382 5.5354405,5.5354405 0 0 1 4.3968299,4.1381342 3.281554,3.281554 0 0 0 3.1858839,3.4093847 2.3455258,2.3455258 0 0 0 2.0840329,3.3428367 C 1.7109299,3.4050207 1.3094639,3.8064867 1.004,4.0814047 V 21.75794 c 0,0.181097 0.1287309,0.328374 0.2836449,0.328374 H 24.71781 c 0.154912,0 0.277099,-0.145094 0.277099,-0.327283 z"
     id="path2-7" />
  <path
     style="color:#000000;font-style:normal;font-variant:normal;font-weight:400;font-stretch:normal;font-size:medium;line-height:normal;font-family:sans-serif;font-variant-ligatures:normal;font-variant-position:normal;font-variant-caps:normal;font-variant-numeric:normal;font-variant-alternates:normal;font-variant-east-asian:normal;font-feature-settings:normal;font-variation-settings:normal;text-indent:0;text-align:start;text-decoration:none;text-decoration-line:none;text-decoration-style:solid;text-decoration-color:#000000;letter-spacing:normal;word-spacing:normal;text-transform:none;writing-mode:lr-tb;direction:ltr;text-orientation:mixed;dominant-baseline:auto;baseline-shift:baseline;text-anchor:start;white-space:normal;shape-padding:0;shape-margin:0;inline-size:0;clip-rule:nonzero;display:inline;overflow:visible;visibility:visible;isolation:auto;mix-blend-mode:normal;color-interpolation:sRGB;color-interpolation-filters:linearRGB;solid-color:#000000;solid-opacity:1;vector-effect:none;fill:#034fbd;fill-opacity:1;fill-rule:nonzero;stroke:none;stroke-width:0.131917px;stroke-linecap:butt;stroke-linejoin:miter;stroke-miterlimit:4;stroke-dasharray:none;stroke-dashoffset:0;stroke-opacity:1;color-rendering:auto;image-rendering:auto;shape-rendering:auto;text-rendering:auto;enable-background:accumulate;stop-color:#000000"
     d="m 24.996,5.0490112 c -0.436377,0.15055 -0.879299,0.3872844 -1.302585,0.3872844 A 3.8030244,3.8030244 0 0 1 21.569351,4.7675481 C 21.039153,4.3824455 20.492591,4.0202527 19.80857,3.9329773 a 2.7644474,2.7644474 0 0 0 -1.14658,0.1123672 5.5561684,5.5561684 0 0 0 -1.450953,0.7243856 3.2924634,3.2924634 0 0 1 -1.21531,0.7287495 2.2887965,2.2887965 0 0 1 -1.087669,0.064366 C 14.220764,5.4428413 13.594565,5.0588298 12.984727,4.7599115 a 3.9393921,3.9393921 0 0 0 -2.122974,-0.679657 c -0.708021,0 -1.416042,0.2181885 -2.1011542,0.6687476 C 8.2271282,5.1330137 7.681657,5.4962975 6.9987272,5.5846638 A 2.7469924,2.7469924 0 0 1 5.851056,5.467933 5.5354405,5.5354405 0 0 1 4.3968301,4.7457294 3.281554,3.281554 0 0 0 3.1858843,4.0169799 2.3455258,2.3455258 0 0 0 2.0840327,3.9504324 C 1.7109305,4.0126161 1.3094638,4.4140828 1.004,4.6890003 V 22.365524 c 0,0.181097 0.1287312,0.328374 0.283645,0.328374 H 24.71781 c 0.154912,0 0.277099,-0.145094 0.277099,-0.327283 z"
     id="path2" />
</svg>
