<?xml version="1.0" encoding="UTF-8"?>
<svg xmlns="http://www.w3.org/2000/svg" viewBox="0 0 40 52">
<g
   style="opacity:0.5"
   transform="matrix(0.98695953,0,0,0.97778738,0.52289465,0.55115497)"
   id="g836">
  <path
     d="m 21.928174,14.743394 10.505925,4.764942 m -10.840801,-4.201581 10.840801,4.201581 m -12.180302,-3.300203 12.738428,3.63822 m -13.017491,0.86867 12.012864,1.835465 M 19.639859,19.02494 31.987598,22.66316 m -12.212458,-4.984658 13.687241,3.63822 m -7.436854,15.156556 c -0.293671,2.424952 -2.092842,4.391099 -4.019277,4.392295 -1.926436,0.0012 -3.251166,-1.963013 -2.959395,-4.387964 0.291771,-2.424951 2.089636,-4.393035 4.016359,-4.396622 1.926723,-0.0036 3.253226,1.958681 2.963355,4.383628 m 7.42498,-15.045945 c 3.849832,2.859486 7.656286,5.736424 4.42686,11.444117 -1.908025,2.921538 -6.479804,4.694813 -0.232992,11.131649 M 20.714618,22.199839 c -3.25178,-1.650181 -1.66926,-8.36714 2.562919,-8.124152 l 10.32934,4.843244 c 0.137983,1.640454 -0.168895,3.280907 -1.475619,4.921361 z M 14.088011,10.940257 30.319047,5.9136947 M 14.012323,51.458175 14.088011,10.940257 0.66163832,4.9272809 v 0 M 0.46862084,43.593144 14.012323,51.458175 29.684408,42.488405 30.319047,5.9136947 15.933049,0.49492231 0.66163832,4.9272809 Z"
     style="opacity:1;vector-effect:none;fill:none;fill-opacity:1;stroke:#ffffff;stroke-width:1.85267611;stroke-linecap:round;stroke-linejoin:round;stroke-miterlimit:4;stroke-dasharray:none;stroke-dashoffset:0;stroke-opacity:1"
     id="path822-9" />
</g>
</svg>
