<?xml version="1.0" encoding="UTF-8"?>
<svg xmlns="http://www.w3.org/2000/svg" viewBox="0 0 119 133">
<defs
   id="defs6">
  <clipPath
     id="clip1">
    <path
       id="path12519"
       d="M 61,23 H 79 V 49.925781 H 61 Z m 0,0" />
  </clipPath>
  <clipPath
     id="clip2">
    <path
       id="path12522"
       d="M 52,23 H 70 V 49.925781 H 52 Z m 0,0" />
  </clipPath>
  <clipPath
     id="clip3">
    <path
       id="path12525"
       d="M 44,23 H 61 V 49.925781 H 44 Z m 0,0" />
  </clipPath>
  <clipPath
     id="clip4">
    <path
       id="path12528"
       d="M 23,14 H 51 V 49.925781 H 23 Z m 0,0" />
  </clipPath>
  <clipPath
     id="clip5">
    <path
       id="path12531"
       d="m 246,6 h 14.74219 V 29 H 246 Z m 0,0" />
  </clipPath>
</defs>
<rect
   style="fill:#4789d0;fill-opacity:1;stroke-width:0.9375"
   ry="3.75"
   rx="3.7500002"
   y="-4.4180833e-08"
   x="-2.8500831e-06"
   height="133"
   width="119"
   id="rect12" />
<rect
   ry="4.6875"
   rx="1.8750001"
   y="64.985916"
   x="47.857147"
   height="23.810173"
   width="11.058282"
   id="rect824"
   style="fill:#000000;fill-opacity:1;stroke-width:0.9375" />
<path
   id="path826-2"
   d="m 66.469433,62.06304 v 6.276321"
   style="fill:none;stroke:#ffffff;stroke-width:1.875;stroke-linecap:butt;stroke-linejoin:miter;stroke-miterlimit:4;stroke-dasharray:none;stroke-opacity:1" />
<ellipse
   cy="77.454979"
   cx="66.469429"
   id="path828-9"
   style="fill:none;fill-opacity:1;stroke:#ffffff;stroke-width:1.875;stroke-miterlimit:4;stroke-dasharray:none;stroke-opacity:1"
   rx="3.7359061"
   ry="3.7359059" />
<path
   id="path892-2"
   d="m 68.849086,86.347139 a 3.7359061,3.7359059 0 0 1 1.356252,2.879972 v 0 a 3.7359061,3.7359059 0 0 1 -3.735906,3.735909 3.7359061,3.7359059 0 0 1 -3.735905,-3.735909 3.7359061,3.7359059 0 0 1 1.431158,-2.940261"
   style="fill:none;fill-opacity:1;stroke:#ffffff;stroke-width:1.875;stroke-miterlimit:4;stroke-dasharray:none;stroke-opacity:1" />
<path
   id="path826-5-7"
   d="M 66.469432,84.628709 V 90.90503"
   style="fill:none;stroke:#ffffff;stroke-width:1.875;stroke-linecap:butt;stroke-linejoin:miter;stroke-miterlimit:4;stroke-dasharray:none;stroke-opacity:1" />
<rect
   y="28.400951"
   x="0.00015450618"
   height="6.3655777"
   width="118.99969"
   id="rect981"
   style="fill:#db5d00;fill-opacity:1;stroke:none;stroke-width:1.07787764;stroke-miterlimit:4;stroke-dasharray:none;stroke-opacity:1" />
<path
   style="fill:#ffffff;fill-opacity:1;fill-rule:nonzero;stroke:none;stroke-width:0.35111737"
   d="m 19.631625,38.128159 c 0,0 -1.717184,-0.673432 -3.456312,0.72418 0,0 -2.065558,1.386639 -2.445478,7.230823 0,0 -0.11521,0.972431 0.743381,1.116444 0,0 0.86545,0.167329 0.979289,-0.562336 0.113839,-0.728295 0.09189,-4.416399 1.725413,-6.307769 0,0 0.1591,-0.23865 0.595253,-0.425181 0.36209,-0.223563 0.648745,-0.632286 0.862707,-0.955972 0,0 0.319572,-0.42381 0.995747,-0.820189"
   id="path12534" />
<path
   style="fill:#ffffff;fill-opacity:1;fill-rule:nonzero;stroke:none;stroke-width:0.35111737"
   d="m 22.729962,37.992376 c 0,0 -1.526538,-0.484158 -3.168286,0.769441 0,0 -1.951719,1.19325 -2.407075,5.931963 0,0 -0.167329,1.169934 -0.07543,1.762444 0,0 0.07543,0.692635 0.788642,0.752983 0,0 0.859964,0.06721 0.914826,-0.739267 0.05349,-0.805101 0.07269,-1.132902 0.07269,-1.132902 0,0 0.135784,-3.150456 1.414071,-4.746942 l 0.309971,0.231792 c 0,0 0.434782,-1.654092 2.150594,-2.829512"
   id="path12536" />
<path
   style="fill:#ffffff;fill-opacity:1;fill-rule:nonzero;stroke:none;stroke-width:0.35111737"
   d="m 25.829669,37.992376 c 0,0 -2.043612,-0.4773 -3.522146,1.130159 0,0 -1.468932,1.309832 -1.900971,4.560411 0,0 -0.182417,1.747358 -0.212591,2.59772 0,0 -0.01646,0.824303 0.77767,0.929912 0,0 0.816074,0.05075 0.869565,-0.816073 0,0 0.05349,-3.981616 1.526537,-5.804409 l 0.364833,0.227678 c 0,0 0.637772,-1.840624 2.097103,-2.825398"
   id="path12538" />
<path
   style="fill:#ffffff;fill-opacity:1;fill-rule:nonzero;stroke:none;stroke-width:0.35111737"
   d="m 28.18051,37.948486 c 0,0 -2.057328,-0.08366 -3.264294,1.990122 0,0 -1.39624,2.031269 -1.390754,6.196673 0,0 -0.08504,0.984775 0.68989,1.076669 0,0 0.916197,0.05623 0.916197,-0.991632 0,0 0.04115,-4.107799 1.608831,-5.767378 0,0 1.388011,1.665065 1.50185,5.584961 0,0 0.048,2.686871 0.549992,4.168147 0,0 0.452613,-1.660949 0.544507,-3.962414 0,0 -0.0384,-0.421066 0.326429,-0.717322 0,0 0.240022,-0.117953 0.193389,-0.536277 0,0 -0.33603,-3.420651 -1.474418,-5.357283 0,0 2.413932,-0.157728 2.892603,4.672879 0,0 0.0055,0.707721 0.396379,1.146618 0,0 0.286655,0.204361 0.315457,0.699491 0,0 0.07132,0.684405 -0.134412,2.895347 0,0 -0.048,0.484158 0.164586,1.171305 0,0 0.596625,-1.651349 0.438897,-3.268409 0,0 -0.07818,-1.313947 0.57468,-1.756958 0,0 -0.05486,-3.667531 -1.512822,-5.67274 0,0 -1.154847,-1.662321 -3.336987,-1.571799"
   id="path12540" />
<path
   id="path12544"
   d="m 35.374302,54.548383 c 0,0 1.715812,0.673432 3.45494,-0.72418 0,0 2.06693,-1.386639 2.445478,-7.230823 0,0 0.115211,-0.972431 -0.743381,-1.116444 0,0 -0.864078,-0.167329 -0.979288,0.562337 -0.113839,0.729666 -0.0919,4.416398 -1.725413,6.307768 0,0 -0.159101,0.238651 -0.593882,0.425182 -0.363462,0.224934 -0.648745,0.632285 -0.862707,0.955972 0,0 -0.319571,0.423809 -0.995747,0.820188"
   style="clip-rule:nonzero;fill:#ffffff;fill-opacity:1;fill-rule:nonzero;stroke:none;stroke-width:0.35111737" />
<path
   id="path12548"
   d="m 32.274594,54.685538 c 0,0 1.526538,0.484158 3.169657,-0.770812 0,0 1.950347,-1.193251 2.405703,-5.931964 0,0 0.167329,-1.169934 0.07544,-1.762444 0,0 -0.07406,-0.692634 -0.788642,-0.752983 0,0 -0.859963,-0.06721 -0.913454,0.739267 -0.05349,0.805101 -0.07406,1.132902 -0.07406,1.132902 0,0 -0.135783,3.150456 -1.41407,4.746943 L 34.42656,51.856026 c 0,0 -0.434783,1.65272 -2.151966,2.829512"
   style="clip-rule:nonzero;fill:#ffffff;fill-opacity:1;fill-rule:nonzero;stroke:none;stroke-width:0.35111737" />
<path
   id="path12552"
   d="m 29.174886,54.685538 c 0,0 2.043613,0.475929 3.523517,-1.131531 0,0 1.467562,-1.309832 1.900972,-4.560411 0,0 0.182416,-1.747357 0.212591,-2.597719 0,0 0.01509,-0.824304 -0.77767,-0.929913 0,0 -0.817446,-0.05075 -0.869564,0.816074 0,0 -0.05486,3.981615 -1.52791,5.804409 l -0.364833,-0.226306 c 0,0 -0.637772,1.839251 -2.097103,2.825397"
   style="clip-rule:nonzero;fill:#ffffff;fill-opacity:1;fill-rule:nonzero;stroke:none;stroke-width:0.35111737" />
<path
   id="path12556"
   d="m 26.824045,54.728056 c 0,0 2.057329,0.08366 3.264295,-1.990122 0,0 1.39624,-2.032641 1.390753,-6.196673 0,0 0.08504,-0.984775 -0.68989,-1.076669 0,0 -0.916197,-0.05623 -0.916197,0.991632 0,0 -0.04115,4.107799 -1.608831,5.767378 0,0 -1.388011,-1.665065 -1.50185,-5.584961 0,0 -0.048,-2.686871 -0.549992,-4.168147 0,0 -0.452612,1.66095 -0.543135,3.962414 0,0 0.03703,0.421067 -0.327801,0.717322 0,0 -0.240022,0.117953 -0.193389,0.536277 0,0 0.336031,3.420651 1.47579,5.358655 0,0 -2.415303,0.156356 -2.893975,-4.67425 0,0 -0.0041,-0.70635 -0.396378,-1.146618 0,0 -0.286655,-0.204361 -0.315458,-0.699492 0,0 -0.06995,-0.684404 0.134412,-2.893975 0,0 0.048,-0.484158 -0.163214,-1.172677 0,0 -0.596625,1.651349 -0.440269,3.268409 0,0 0.07818,1.313947 -0.57468,1.756958 0,0 0.05486,3.667531 1.514194,5.67274 0,0 1.153475,1.663693 3.335615,1.571799"
   style="clip-rule:nonzero;fill:#ffffff;fill-opacity:1;fill-rule:nonzero;stroke:none;stroke-width:0.35111737" />
<path
   style="fill:#ffffff;fill-opacity:1;fill-rule:nonzero;stroke:none;stroke-width:0.35111737"
   d="m 44.09326,42.691314 0.875051,-2.682756 c 0.148127,-0.462213 0.639143,-0.669318 1.061581,-0.452613 0.374434,0.176931 0.532162,0.589768 0.364833,1.002605 l -1.485391,3.726508 c -0.226306,0.549992 -0.599369,0.755725 -1.120558,0.569193 -0.235907,-0.07818 -0.393636,-0.245507 -0.52119,-0.569193 l -1.48402,-3.726508 c -0.167329,-0.412837 -0.0096,-0.825674 0.363461,-1.002605 0.422439,-0.216705 0.914826,0 1.061582,0.452613 l 0.884651,2.682756"
   id="path12558" />
<path
   style="fill:#ffffff;fill-opacity:1;fill-rule:nonzero;stroke:none;stroke-width:0.35111737"
   d="m 46.992722,37.50136 c 0.344259,-0.344259 0.894252,-0.334659 1.238512,0.0096 0.334658,0.34426 0.334658,0.884651 0,1.228911 -0.34426,0.34426 -0.894253,0.34426 -1.228911,0.0096 -0.165958,-0.16733 -0.26471,-0.393636 -0.26471,-0.629543 0,-0.224934 0.09875,-0.45124 0.255109,-0.61857 z m -0.137156,2.732132 c 0,-0.205733 0.07818,-0.401865 0.226307,-0.540391 0.294883,-0.304485 0.776298,-0.294884 1.071182,0 0.137155,0.148127 0.216705,0.344259 0.216705,0.540391 v 3.93224 c 0.0096,0.42381 -0.325058,0.757097 -0.747496,0.76807 -0.422438,0 -0.766698,-0.34426 -0.766698,-0.757097 v -3.943213"
   id="path12560" />
<path
   style="fill:#ffffff;fill-opacity:1;fill-rule:nonzero;stroke:none;stroke-width:0.35111737"
   d="m 52.053749,39.477767 c 1.131532,0.127554 1.504594,0.61857 1.37704,1.120558 -0.07955,0.333287 -0.325057,0.530791 -0.619943,0.52119 -0.04937,-0.01097 -0.09875,-0.01097 -0.146757,-0.02057 l -0.07955,-0.0288 -0.137153,-0.04938 -0.09875,-0.03017 -0.137157,-0.04938 c -0.914826,-0.294883 -1.651347,0.24688 -1.641748,1.278287 0.01921,1.032779 0.766697,1.533395 1.7405,1.209709 l 0.165959,-0.05898 0.06995,-0.03017 c 0.441639,-0.156357 0.835273,0.05898 0.903854,0.52119 0.05897,0.384035 -0.196134,0.737895 -0.903854,0.964201 -0.176931,0.05898 -0.364835,0.09738 -0.560966,0.117954 -1.691125,0.156357 -2.968037,-1.023178 -2.948838,-2.762306 0.01921,-1.750101 1.326293,-2.891232 3.017415,-2.70333"
   id="path12562" />
<path
   style="fill:#ffffff;fill-opacity:1;fill-rule:nonzero;stroke:none;stroke-width:0.35111737"
   d="m 54.558206,39.535372 -0.0096,-0.873679 c 0,-0.412837 0.334661,-0.757096 0.757097,-0.757096 0.412837,0 0.757097,0.344259 0.747498,0.757096 v 0.873679 h 0.451238 c 0.176932,0 0.353863,0.06995 0.482787,0.207105 0.26471,0.255108 0.26471,0.688519 0,0.953228 -0.138527,0.127555 -0.305855,0.197504 -0.492386,0.197504 h -0.441639 v 3.262922 c 0,0.197504 -0.07955,0.393636 -0.216706,0.541764 -0.294883,0.294884 -0.766697,0.294884 -1.05198,0 -0.146756,-0.148128 -0.226305,-0.34426 -0.226305,-0.541764 l 0.0096,-3.273895 h -0.264711 c -0.186531,0 -0.363459,-0.06858 -0.501985,-0.205732 -0.264711,-0.255109 -0.264711,-0.678919 0.0096,-0.943628 0.128927,-0.127555 0.305855,-0.197504 0.492386,-0.197504 h 0.255111"
   id="path12564" />
<path
   style="fill:#ffffff;fill-opacity:1;fill-rule:nonzero;stroke:none;stroke-width:0.35111737"
   d="m 57.476869,40.20469 c 0,-0.363462 0.304482,-0.69812 0.766697,-0.726923 0.471814,-0.03977 0.757097,0.255109 0.737894,0.540391 l -0.01095,0.07818 c 0.03977,-0.04938 0.07955,-0.09875 0.128927,-0.137155 0.578796,-0.629543 1.237141,-0.619942 1.542996,-0.16733 0.264711,0.393636 0.127554,0.844877 -0.26608,1.012206 l -0.07818,0.03977 -0.205734,0.06858 c -0.197504,0.06858 -0.334657,0.137155 -0.452611,0.207104 -0.481414,0.283911 -0.648746,0.540391 -0.648746,0.785899 v 2.260318 c 0,0.412838 -0.334657,0.757097 -0.757093,0.757097 -0.42244,0 -0.757097,-0.333287 -0.757097,-0.746124 V 40.20469"
   id="path12566" />
<path
   style="fill:#ffffff;fill-opacity:1;fill-rule:nonzero;stroke:none;stroke-width:0.35111737"
   d="m 62.24301,42.426604 c 0.126185,0.903853 0.658346,1.307089 1.305718,1.160334 0.433413,-0.08915 0.75847,-0.482787 0.83665,-1.150733 0.01921,-0.157728 0.01921,-0.314086 0,-0.471814 -0.08915,-0.648744 -0.423813,-1.032779 -0.83665,-1.120558 -0.62817,-0.138527 -1.187763,0.255109 -1.305718,1.130159 -0.01095,0.07818 -0.01095,0.157728 -0.01095,0.235907 0,0.07818 0,0.148128 0.01095,0.216705 z m -1.141131,-1.700725 c 0.491017,-0.816073 1.326293,-1.287887 2.221916,-1.287887 1.425042,0 2.594976,1.179535 2.604579,2.752705 0,1.582772 -1.169934,2.762306 -2.604579,2.762306 -1.445617,0 -2.604578,-1.179534 -2.604578,-2.762306 0,-0.570566 0.126181,-1.05198 0.382662,-1.464818"
   id="path12568" />
<path
   style="fill:#ffffff;fill-opacity:1;fill-rule:nonzero;stroke:none;stroke-width:0.35111737"
   d="m 66.575746,40.244465 c 0,-0.374434 0.314085,-0.728294 0.757097,-0.766698 0.401865,-0.03977 0.678917,0.215334 0.678917,0.491016 v 0.05898 c 0.234536,-0.285282 0.559594,-0.471814 1.021808,-0.549992 0.245508,-0.04938 0.491013,-0.04938 0.728295,-0.01097 1.041007,0.16733 1.611572,0.855849 1.611572,1.887256 v 2.822655 c 0,0.422438 -0.33466,0.757097 -0.747497,0.766698 -0.422436,0 -0.766696,-0.334659 -0.766696,-0.757097 v -2.575775 c 0,-0.235907 -0.09738,-0.462213 -0.266081,-0.629543 -0.34289,-0.35386 -0.903853,-0.35386 -1.248113,-0.0096 -0.167329,0.176931 -0.255108,0.393636 -0.255108,0.629543 v 2.575775 c 0,0.412837 -0.34426,0.757097 -0.7667,0.746124 -0.412837,0 -0.747494,-0.344259 -0.747494,-0.757097 v -3.921267"
   id="path12570" />
<path
   style="fill:#ffffff;fill-opacity:1;fill-rule:nonzero;stroke:none;stroke-width:0.35111737"
   d="m 78.362866,41.69831 c -0.0096,-0.0288 -0.0096,-0.06858 -0.02057,-0.09738 -0.15636,-0.718694 -0.666576,-1.051981 -1.246745,-0.914825 -0.364832,0.08915 -0.678917,0.403236 -0.806471,0.894252 -0.01095,0.03977 -0.01095,0.07955 -0.02057,0.117953 z m -2.054584,0.973802 c 0.03977,0.186531 0.127553,0.373062 0.25648,0.530791 0.401865,0.481415 1.139759,0.599368 1.975036,0.157728 0.482786,-0.266081 0.619939,-0.285283 0.875047,-0.187902 0.14813,0.06035 0.266084,0.17693 0.325058,0.325057 0.215337,0.530791 -0.443009,1.445617 -2.291863,1.455217 -1.876283,0 -3.125766,-1.553968 -2.692357,-3.422022 0.245508,-1.080783 1.061582,-1.857082 2.08339,-2.043613 1.179533,-0.216705 2.301462,0.382663 2.791106,1.503221 0.128926,0.305856 0.207106,0.619942 0.227678,0.855849 0.05898,0.608969 -0.138526,0.825674 -0.640515,0.825674 h -2.90906"
   id="path12572" />
<path
   style="fill:#ffffff;fill-opacity:1;fill-rule:nonzero;stroke:none;stroke-width:0.35111737"
   d="m 80.416081,40.244465 c 0,-0.374434 0.314085,-0.728294 0.757097,-0.766698 0.403234,-0.03977 0.677544,0.215334 0.677544,0.491016 v 0.05898 c 0.235909,-0.285282 0.560966,-0.471814 1.023181,-0.549992 0.245505,-0.04938 0.492386,-0.04938 0.728291,-0.01097 1.04101,0.16733 1.611576,0.855849 1.611576,1.887256 v 2.822655 c 0,0.422438 -0.33466,0.757097 -0.747497,0.766698 -0.422436,0 -0.766697,-0.334659 -0.766697,-0.757097 v -2.575775 c 0,-0.235907 -0.09738,-0.462213 -0.26608,-0.629543 -0.342891,-0.35386 -0.903853,-0.35386 -1.248113,-0.0096 -0.167329,0.176931 -0.255108,0.393636 -0.255108,0.629543 v 2.575775 c 0,0.412837 -0.34426,0.757097 -0.7667,0.746124 -0.412837,0 -0.747494,-0.344259 -0.747494,-0.757097 v -3.921268"
   id="path12574" />
<path
   style="fill:#ffffff;fill-opacity:1;fill-rule:nonzero;stroke:none;stroke-width:0.35111737"
   d="m 89.547875,41.69831 c -0.0096,-0.0288 -0.0096,-0.06858 -0.01921,-0.09738 -0.157729,-0.718694 -0.669317,-1.051981 -1.249482,-0.914825 -0.36209,0.08915 -0.677548,0.403236 -0.805102,0.894252 -0.0096,0.03977 -0.0096,0.07955 -0.01921,0.117953 z m -2.054584,0.973802 c 0.03978,0.186531 0.127554,0.373062 0.255108,0.530791 0.404606,0.481415 1.141131,0.599368 1.976405,0.157728 0.481417,-0.266081 0.619943,-0.285283 0.875051,-0.187902 0.146756,0.06035 0.264711,0.17693 0.323688,0.325057 0.218075,0.530791 -0.441643,1.445617 -2.28912,1.455217 -1.87903,0 -3.12714,-1.553968 -2.695104,-3.422022 0.246881,-1.080783 1.061583,-1.857082 2.08476,-2.043613 1.180909,-0.216705 2.300096,0.382663 2.792482,1.503221 0.127554,0.305856 0.207103,0.619942 0.224933,0.855849 0.05898,0.608969 -0.135781,0.825674 -0.63777,0.825674 h -2.910433"
   id="path12576" />
<path
   style="fill:#ffffff;fill-opacity:1;fill-rule:nonzero;stroke:none;stroke-width:0.35111737"
   d="m 91.601087,40.20469 c 0,-0.363462 0.304486,-0.69812 0.7667,-0.726923 0.471814,-0.03977 0.757097,0.255109 0.737894,0.540391 l -0.0096,0.07818 c 0.0384,-0.04938 0.07818,-0.09875 0.127554,-0.137155 0.580165,-0.629543 1.23851,-0.619942 1.542996,-0.16733 0.26608,0.393636 0.128926,0.844877 -0.264711,1.012206 l -0.07955,0.03977 -0.205734,0.06858 c -0.196131,0.06858 -0.334657,0.137155 -0.452612,0.207104 -0.481413,0.283911 -0.648745,0.540391 -0.648745,0.785899 v 2.260318 c 0,0.412838 -0.334657,0.757097 -0.757097,0.757097 -0.422436,0 -0.757097,-0.333287 -0.757097,-0.746124 V 40.20469"
   id="path12578" />
<path
   style="fill:#ffffff;fill-opacity:1;fill-rule:nonzero;stroke:none;stroke-width:0.35111737"
   d="m 96.660745,43.202903 c 0.423809,0.511589 1.200109,0.501988 1.593743,-0.03017 0.176931,-0.235907 0.264711,-0.519818 0.27431,-0.932656 0,-0.669317 -0.245508,-1.091755 -0.639142,-1.287887 -0.658345,-0.325058 -1.39487,0.108352 -1.512821,1.002605 -0.01095,0.08778 -0.01921,0.186531 -0.01921,0.27431 0,0.414209 0.117954,0.737895 0.303112,0.973802 z m 1.907828,-3.214918 c 0.0096,-0.285283 0.285283,-0.540392 0.68852,-0.500617 0.443012,0.0384 0.757097,0.392264 0.757097,0.776298 v 3.941841 c 0,1.966806 -1.160334,3.037989 -3.205316,2.821283 -0.41284,-0.04937 -0.785902,-0.146756 -1.141131,-0.304484 -0.725553,-0.334659 -0.85448,-0.844876 -0.50062,-1.21931 0.197504,-0.215334 0.441643,-0.26471 0.7763,-0.156357 l 0.01095,0.0096 0.304486,0.137156 c 0.06858,0.03017 0.137153,0.05898 0.207103,0.07818 1.287888,0.462213 2.024413,-0.06858 2.053215,-1.050609 0.0096,-0.06995 0,-0.138527 0,-0.207104 -0.559593,0.796871 -1.946233,0.934027 -2.899461,-0.0096 -0.61034,-0.610341 -0.913456,-1.612945 -0.718695,-2.703329 0.06995,-0.393636 0.197504,-0.728294 0.374435,-1.013577 0.836664,-1.346865 2.526416,-1.474419 3.293113,-0.530791 v -0.06858"
   id="path12580" />
<path
   id="path12584"
   d="m 100.85907,39.546345 c 0.42244,-0.176931 0.85584,0.0192 1.03278,0.500616 l 0.94225,2.526399 0.9642,-2.536 c 0.18791,-0.481415 0.62954,-0.678918 1.04238,-0.481415 0.37444,0.176931 0.53079,0.599369 0.37444,0.983403 l -2.44822,5.996427 c -0.20711,0.500616 -0.61995,0.688519 -1.03278,0.52119 -0.39364,-0.16733 -0.5596,-0.589768 -0.39364,-0.993004 l 0.7091,-1.632147 -1.60335,-3.92264 c -0.14676,-0.373062 0.0288,-0.806472 0.41284,-0.962829"
   style="clip-rule:nonzero;fill:#ffffff;fill-opacity:1;fill-rule:nonzero;stroke:none;stroke-width:0.35111737" />
</svg>
