<?xml version="1.0" encoding="UTF-8"?>
<svg xmlns="http://www.w3.org/2000/svg" viewBox="0 0 44 66">
<defs
   id="defs6" />
<path
   d="M 15.227369,44.349439 28.790671,44.542749 16.373563,37.390282 26.689314,31.397675 17.519757,27.531477 25.68295,21.748616 18.665952,16.899432 24.396925,11.293445 19.812147,7.813866 23.25073,3.9476678 20.385244,0.85470927 M 11.321834,35.085827 H 7.5489433 M 11.321834,33.65211 H 7.5489433 M 11.321834,32.218398 H 7.5489433 m 3.7728907,4.301145 H 7.5489433 M 9.3876306,30.915985 V 36.95692 M 36.207313,35.085827 h -3.772891 m 3.772891,-1.433717 h -3.772891 m 3.772891,-1.433712 h -3.772891 m 3.772891,4.301145 h -3.772891 m 1.838688,-5.603558 v 6.040935 m 2.258722,-21.870246 h -3.77289 m 3.77289,-1.433717 h -3.77289 m 3.77289,-1.433711 h -3.77289 m 3.77289,4.301145 h -3.77289 m 1.838687,-5.603558 v 6.040935 M 11.443732,15.052502 H 7.6708413 M 11.443732,13.618785 H 7.6708413 M 11.443732,12.185073 H 7.6708413 m 3.7728907,4.301145 H 7.6708413 M 9.5095286,10.88266 v 6.040935 m 34.0311044,8.930098 h -3.772891 m 3.772891,-1.433717 h -3.772891 m 3.772891,-1.433712 h -3.772891 m 3.772891,4.301145 h -3.772891 m 1.838688,-5.603558 v 6.040935 M 4.2322579,25.853693 H 0.45936728 M 4.2322579,24.419976 H 0.45936727 M 4.2322579,22.986264 H 0.45936727 M 4.2322579,27.287409 H 0.45936725 M 2.2980545,21.683851 v 6.040935 M 17.261612,0.46808909 l 9.349,0.0683454 -4.464616,3.68257311 z M 9.4617704,10.906824 H 34.487017 L 22.145996,7.467704 Z M 2.2025383,21.732179 H 41.74625 L 22.145996,16.324581 Z m 7.2592321,9.278875 H 34.295986 L 22.145996,23.962432 Z M 28.959906,44.349439 15.396604,44.542749 27.813712,37.390282 17.497961,31.397675 26.667518,27.531477 18.504325,21.608785 25.521323,16.899432 19.79035,11.293445 24.375128,7.8138657 20.936545,3.9476675 23.802031,0.85470901 m -9.165225,49.38611699 15.739512,0.03704 -8.230322,-5.766425 -7.354519,5.760686 m -0.935961,7.41569 H 30.666369 L 22.145996,51.11528 Z m -0.917734,7.152466 9.208214,-6.765846 10.277093,6.765846 -9.169556,-63.9855791 h -2.483421 z"
   style="opacity:0.4;vector-effect:none;fill:none;fill-opacity:1;stroke:#ffffff;stroke-width:0.9110347px;stroke-linecap:round;stroke-linejoin:round;stroke-miterlimit:4;stroke-dasharray:none;stroke-dashoffset:0;stroke-opacity:1"
   id="path848-6-6" />
</svg>
