<svg height="20" width="21" xmlns="http://www.w3.org/2000/svg" xmlns:xlink="http://www.w3.org/1999/xlink"><clipPath id="a"><path d="m32.762478-451.55106h126.11607v572.79565h-126.11607z"/></clipPath><g clip-path="url(#a)" fill="none" opacity=".187" stroke="#000" transform="matrix(.16621523 0 0 .16099666 -5.414658 .759572)"><path d="m4.0962991 83.405721v-49.94587" stroke-linecap="round" stroke-width="8.19344"/><g stroke-width="4.70887"><path d="m55.636655 11.23533h44.970415c5.36098 0 9.67686 4.323159 9.67686 9.693183v29.544996c0 5.370023-4.31588 9.693183-9.67686 9.693183h-44.970415c-5.360984 0-9.676866-4.32316-9.676866-9.693183v-29.544996c0-5.370024 4.315882-9.693183 9.676866-9.693183z"/><path d="m56.515105 35.765043c7.815124-14.178603 15.36764-16.519988 22.501729 0 7.489817 17.686721 15.604936 13.608078 22.501726 0" stroke-linecap="round" stroke-linejoin="round"/><path d="m121.46329 72.007817h26.7208"/><path d="m121.46329 90.987248h26.7208"/><path d="m121.46329 78.334296h26.7208"/><path d="m121.46329 84.660772h26.7208"/></g><path d="m21.739703 116.70296h23.524528" stroke-linecap="round" stroke-width="6.59242"/><path d="m119.85748 116.70296h23.52454" stroke-linecap="round" stroke-width="6.59242"/><path d="m15.599265 2.1184964h132.871095c5.21303 0 9.40981 4.2038542 9.40981 9.4256816v93.561032c0 5.22182-4.19678 9.42568-9.40981 9.42568h-132.871095c-5.213037 0-9.4098147-4.20386-9.4098147-9.42568v-93.561032c0-5.2218274 4.1967777-9.4256816 9.4098147-9.4256816z" stroke-width="4.23799"/></g></svg>