<?xml version="1.0" encoding="UTF-8" standalone="no"?>
<svg xmlns:svg="http://www.w3.org/2000/svg" viewBox="0 0 28 18.00027">
  <path
     id="path32"
     style="fill:#59c8d0;fill-opacity:1;fill-rule:evenodd;stroke:none;stroke-width:0.462292"
     d="M 6.8556235,5.0824518 C 7.4992485,4.5204054 8.3139519,4.2407689 9.3015837,4.2407689 H 28 V 0 H 8.5932258 C 5.8041843,0 3.6749508,0.7931509 2.2050629,2.3799148 0.73517509,3.9657544 0,6.172341 0,9.0001365 c 9.247e-4,2.8264085 0.73517509,5.0339185 2.2050629,6.6206825 1.4698879,1.585378 3.5991214,2.379453 6.3881629,2.379453 H 28 V 13.759503 H 9.3015837 c -0.9876318,0 -1.8023352,-0.281022 -2.4459602,-0.842145 C 6.5560049,12.658059 6.1689976,12.053952 5.6978382,11.104574 L 5.665009,11.039863 H 28 V 6.9927621 H 5.6650097 l 0.032829,-0.097065 C 6.1264593,5.9680445 6.5125417,5.3634749 6.8556235,5.0824518" />
</svg>
