<?xml version="1.0" encoding="UTF-8"?>
<svg xmlns="http://www.w3.org/2000/svg" width="26" height="26">
  <path
     style="fill:none;stroke:#171717;stroke-width:0.641392;stroke-linecap:butt;stroke-linejoin:round;stroke-miterlimit:4;stroke-dasharray:none;stroke-opacity:1"
     d="m 17.111492,12.757974 c 1.882486,0.02886 0.711946,3.181304 0.872294,4.723852 1.13847,4.127357 7.369594,4.759128 6.439575,-0.205246 l -0.667047,-4.547469"
     id="path2" />
  <rect
     style="fill:#171717;fill-opacity:1;stroke:none;stroke-width:0.190365;stroke-linejoin:round;stroke-miterlimit:4;stroke-dasharray:none;stroke-opacity:1;stop-color:#000000"
     width="17.85956"
     height="3.5244489"
     x="1.1632857"
     y="21.512957"
     rx="0.58687365"
     ry="0.58687365"
     id="rect4" />
  <path
     id="rect6"
     style="fill:#171717;stroke-width:0.219484;stroke-linejoin:round;stop-color:#000000"
     d="M 6.1445312 0.96289062 C 4.3678772 0.96289062 2.9375 2.549222 2.9375 4.5195312 L 2.9375 21.195312 C 2.9375 23.165622 4.3678772 24.751953 6.1445312 24.751953 L 14.044922 24.751953 C 15.821576 24.751953 17.251953 23.165622 17.251953 21.195312 L 17.251953 4.5195312 C 17.251953 2.549222 15.821576 0.96289062 14.044922 0.96289062 L 6.1445312 0.96289062 z M 10.826172 11.548828 C 11.352627 11.548828 11.888366 11.613329 12.435547 11.742188 C 12.986874 11.866888 13.580611 12.081327 14.214844 12.384766 L 14.214844 13.849609 L 14.101562 13.849609 C 13.973057 13.749849 13.787542 13.619143 13.542969 13.457031 C 13.298395 13.29492 13.056595 13.158856 12.820312 13.050781 C 12.534286 12.921924 12.210491 12.81751 11.845703 12.734375 C 11.485061 12.647084 11.073411 12.603516 10.613281 12.603516 C 9.5769532 12.603516 8.7575593 12.938193 8.1523438 13.607422 C 7.5512736 14.272495 7.25 15.173562 7.25 16.3125 C 7.25 17.513788 7.5652251 18.449911 8.1953125 19.119141 C 8.8253999 19.784213 9.683459 20.115234 10.769531 20.115234 C 11.167481 20.115234 11.563226 20.077023 11.957031 19.998047 C 12.354981 19.919069 12.703491 19.816107 13.001953 19.691406 L 13.001953 17.416016 L 10.521484 17.416016 L 10.521484 16.332031 L 14.220703 16.332031 L 14.220703 20.316406 C 13.714975 20.549181 13.161617 20.751199 12.560547 20.925781 C 11.963622 21.096206 11.385789 21.181641 10.826172 21.181641 C 10.104888 21.181641 9.4428671 21.082335 8.8417969 20.882812 C 8.2407267 20.683291 7.7294625 20.383419 7.3066406 19.984375 C 6.8796735 19.581175 6.5485438 19.079285 6.3164062 18.476562 C 6.0842688 17.869684 5.96875 17.160167 5.96875 16.349609 C 5.96875 14.865666 6.3994939 13.696126 7.2617188 12.839844 C 8.128089 11.979406 9.3172783 11.548828 10.826172 11.548828 z " />
  <rect
     style="fill:#ffffff;fill-opacity:1;stroke:none;stroke-width:0.208452;stroke-linejoin:round;stroke-miterlimit:4;stroke-dasharray:none;stroke-opacity:1;stop-color:#000000"
     width="10.252651"
     height="6.5935097"
     x="4.9667306"
     y="3.5379593"
     rx="0.320696"
     ry="0.320696"
     id="rect8" />
  <path
     style="fill:none;stroke:#171717;stroke-width:0.8481;stroke-linecap:butt;stroke-linejoin:miter;stroke-miterlimit:4;stroke-dasharray:none;stroke-opacity:1"
     d="m 17.730436,3.9292128 1.860037,0.9139836 1.324474,1.4110624"
     id="path10" />
  <path
     style="fill:#171717;fill-opacity:1;stroke:none;stroke-width:0.606039;stroke-linecap:butt;stroke-linejoin:miter;stroke-miterlimit:4;stroke-dasharray:none;stroke-opacity:1"
     d="m 21.498614,5.8309401 -0.865879,0.8177748 0.554804,0.7311869 -0.779292,1.119229 0.32711,2.0716962 0.888328,0.230901 0.994158,-0.160348 0.689496,2.212802 0.17959,-0.03207 0.01603,0.09621 0.538769,-0.14752 -0.02245,-0.07376 0.150727,-0.06414 L 23.830068,11.40143 23.092467,8.7396528 23.701789,8.2105044 23.13095,6.7705794 Z m 0.606115,2.5431193 0.416905,1.8119326 c -0.230901,0.125071 -0.545183,0.169969 -0.853051,0.218073 a 1.4655807,1.4655807 0 0 1 -0.689497,-0.07697 c -0.118657,-0.641392 -0.355972,-1.2635422 -0.07376,-1.9530386 0.468216,-0.3527656 0.80174,-0.019242 1.199403,0 z"
     id="path12" />
  <path
     style="fill:#171717;fill-opacity:1;stroke:none;stroke-width:0.0332247;stroke-linecap:butt;stroke-linejoin:miter;stroke-miterlimit:4;stroke-dasharray:none;stroke-opacity:1"
     d="m 21.011156,10.343133 0.08017,-0.10583 0.246936,0.06414 c 0.08659,0 0.134692,-0.09621 0.182796,-0.186003 0.112244,-1.1384712 0.109037,-1.8407954 -0.06735,-1.9017276 l 0.266178,0.057725 c 0.03848,0.5804598 0.02566,1.1929892 -0.05773,1.8472096 A 0.72797992,0.72797992 0 0 0 21.59803,10.4201 c -0.208453,0.02566 -0.407284,-0.03528 -0.586874,-0.07376 z"
     id="path14" />
</svg>
