<?xml version="1.0" encoding="UTF-8"?>
<svg xmlns="http://www.w3.org/2000/svg" width="26" height="26">
  <path style="color:#000;font-style:normal;font-variant:normal;font-weight:400;font-stretch:normal;font-size:medium;line-height:normal;font-family:sans-serif;font-variant-ligatures:normal;font-variant-position:normal;font-variant-caps:normal;font-variant-numeric:normal;font-variant-alternates:normal;font-variant-east-asian:normal;font-feature-settings:normal;font-variation-settings:normal;text-indent:0;text-align:start;text-decoration:none;text-decoration-line:none;text-decoration-style:solid;text-decoration-color:#000;letter-spacing:normal;word-spacing:normal;text-transform:none;writing-mode:lr-tb;direction:ltr;text-orientation:mixed;dominant-baseline:auto;baseline-shift:baseline;text-anchor:start;white-space:normal;shape-padding:0;shape-margin:0;inline-size:0;clip-rule:nonzero;display:inline;overflow:visible;visibility:visible;opacity:1;isolation:auto;mix-blend-mode:normal;color-interpolation:sRGB;color-interpolation-filters:linearRGB;solid-color:#000;solid-opacity:1;vector-effect:none;fill:#0af;fill-opacity:1;fill-rule:nonzero;stroke:none;stroke-width:.12092px;stroke-linecap:butt;stroke-linejoin:miter;stroke-miterlimit:4;stroke-dasharray:none;stroke-dashoffset:0;stroke-opacity:1;color-rendering:auto;image-rendering:auto;shape-rendering:auto;text-rendering:auto;enable-background:accumulate;stop-color:#000;stop-opacity:1" d="M23.995 5.115c-.4.138-.806.355-1.194.355a3.486 3.486 0 0 1-1.947-.613c-.486-.353-.987-.685-1.614-.765a2.534 2.534 0 0 0-1.051.103 5.093 5.093 0 0 0-1.33.664 3.018 3.018 0 0 1-1.114.668 2.098 2.098 0 0 1-.997.059c-.63-.11-1.204-.462-1.763-.736a3.611 3.611 0 0 0-1.946-.623c-.649 0-1.298.2-1.926.613-.489.352-.989.685-1.615.766a2.518 2.518 0 0 1-1.052-.107 5.074 5.074 0 0 1-1.333-.662 3.008 3.008 0 0 0-1.11-.668 2.15 2.15 0 0 0-1.01-.061c-.342.057-.71.425-.99.677v16.203c0 .166.118.301.26.301H23.74c.142 0 .254-.133.254-.3z"/>
  <path style="fill:none;stroke:#000;stroke-width:.398922;stroke-linecap:round;stroke-linejoin:miter;stroke-miterlimit:4;stroke-dasharray:none;stroke-opacity:1" d="M.933 3.694v18.612h24.134V3.694"/>
  <path style="fill:#fff;fill-opacity:1;stroke:none;stroke-width:.0831884;stroke-linecap:butt;stroke-linejoin:round;stroke-miterlimit:4;stroke-dasharray:none;stroke-opacity:1" d="M14.092 10.398c-2.003.09-4.021.878-6.048 2.225-1.498-.77-3.283-1.992-4.19-1.563 1.84 2.818 1.495 3.528.059 5.6.497.736 2.624-.622 4.292-1.388 4.325 2.932 8.77 3.725 13.556-1.484-2.533-2.473-5.09-3.506-7.669-3.39zm3.719 1.875a.523.526 0 0 1 .52.527.523.526 0 0 1-.52.526.523.526 0 0 1-.527-.526.523.526 0 0 1 .527-.527z"/>
</svg>
