<?xml version="1.0" encoding="UTF-8" standalone="no"?>
<!-- Created with Inkscape (http://www.inkscape.org/) -->

<svg
   width="71.136688"
   height="78.142677"
   viewBox="0 0 18.821582 20.675249"
   version="1.1"
   id="svg6501"
   sodipodi:docname="qr-guiv2.svg"
   inkscape:version="1.2 (dc2aeda, 2022-05-15)"
   xmlns:inkscape="http://www.inkscape.org/namespaces/inkscape"
   xmlns:sodipodi="http://sodipodi.sourceforge.net/DTD/sodipodi-0.dtd"
   xmlns="http://www.w3.org/2000/svg"
   xmlns:svg="http://www.w3.org/2000/svg">
  <sodipodi:namedview
     id="namedview12424"
     pagecolor="#ffffff"
     bordercolor="#000000"
     borderopacity="0.25"
     inkscape:showpageshadow="2"
     inkscape:pageopacity="0.0"
     inkscape:pagecheckerboard="0"
     inkscape:deskcolor="#d1d1d1"
     inkscape:document-units="mm"
     showgrid="false"
     inkscape:zoom="5.6734274"
     inkscape:cx="46.885239"
     inkscape:cy="54.905083"
     inkscape:window-width="1390"
     inkscape:window-height="1205"
     inkscape:window-x="1492"
     inkscape:window-y="384"
     inkscape:window-maximized="0"
     inkscape:current-layer="svg6501" />
  <defs
     id="defs6498" />
  <g
     id="g29119"
     transform="scale(0.91)">
    <path
       id="rect17269"
       style="fill:#ffffff;fill-opacity:1;stroke:#ffffff;stroke-width:1.20386;stroke-linecap:round;stroke-linejoin:round;stroke-dasharray:none;paint-order:stroke fill markers;stop-color:#000000"
       d="M 2.2873258,0.60193002 H 18.395732 c 0.93371,0 1.685396,0.75168658 1.685396,1.68539578 V 18.268416 c 0,0.933709 -0.751686,1.685395 -1.685396,1.685395 h -6.43481 l -1.619393,2.164355 -1.6193932,-2.164355 h -6.43481 c -0.9337092,0 -1.68539578,-0.751686 -1.68539578,-1.685395 V 2.2873258 c 0,-0.9337092 0.75168658,-1.68539578 1.68539578,-1.68539578 z"
       sodipodi:nodetypes="ssssscccssss" />
    <g
       id="layer1"
       transform="matrix(0.9953125,0,0,0.9953125,-71.910285,-121.94168)"
       style="fill:#000000;fill-opacity:1">
      <path
         d="m 89.879644,141.2636 h -1.634942 c -0.03225,0 -0.05839,-0.0262 -0.05839,-0.0584 v -1.05103 c 0,-0.0323 -0.02614,-0.0584 -0.05839,-0.0584 H 86.49298 c -0.03225,0 -0.05839,0.0261 -0.05839,0.0584 v 0.46713 c 0,0.0322 -0.02614,0.0584 -0.05839,0.0584 h -0.46713 c -0.03225,0 -0.05839,0.0261 -0.05839,0.0584 v 0.46712 c 0,0.0323 -0.02614,0.0584 -0.05839,0.0584 h -0.467126 c -0.03225,0 -0.05839,-0.0262 -0.05839,-0.0584 v -1.05103 c 0,-0.0323 -0.02614,-0.0584 -0.05839,-0.0584 h -0.525517 v -0.52552 c 0,-0.0322 -0.02614,-0.0584 -0.05839,-0.0584 h -1.109425 v -1.10942 c 0,-0.0322 0.02614,-0.0584 0.05839,-0.0584 h 0.467126 c 0.03225,0 0.05839,-0.0262 0.05839,-0.0584 v -0.52551 h 0.525517 c 0.03225,0 0.05839,-0.0262 0.05839,-0.0584 v -0.46713 c 0,-0.0323 -0.02614,-0.0584 -0.05839,-0.0584 h -0.467126 c -0.03225,0 -0.05839,0.0261 -0.05839,0.0584 v 0.52552 h -0.525517 c -0.03225,0 -0.05839,-0.0262 -0.05839,-0.0584 v -0.46713 c 0,-0.0323 -0.02614,-0.0584 -0.05839,-0.0584 h -1.051034 c -0.03225,0 -0.05839,-0.0261 -0.05839,-0.0584 v -1.63494 c 0,-0.0323 -0.02614,-0.0584 -0.05839,-0.0584 h -0.467127 c -0.03225,0 -0.05839,0.0262 -0.05839,0.0584 v 1.63494 c 0,0.0323 -0.02614,0.0584 -0.05839,0.0584 h -0.525517 v -1.69333 c 0,-0.0323 -0.02614,-0.0584 -0.05839,-0.0584 h -1.051035 c -0.03225,0 -0.05839,0.0262 -0.05839,0.0584 v 1.05103 c 0,0.0323 0.02614,0.0584 0.05839,0.0584 h 0.467127 c 0.03225,0 0.05839,0.0261 0.05839,0.0584 v 0.46713 c 0,0.0323 0.02614,0.0584 0.05839,0.0584 h 0.525518 v 0.52552 c 0,0.0322 0.02614,0.0584 0.05839,0.0584 h 0.467127 c 0.03225,0 0.05839,0.0261 0.05839,0.0584 v 0.46712 c 0,0.0323 -0.02614,0.0584 -0.05839,0.0584 h -0.467127 c -0.03225,0 -0.05839,0.0261 -0.05839,0.0584 v 1.69333 h -0.525518 c -0.03225,0 -0.05839,0.0261 -0.05839,0.0584 v 0.52552 h -0.525518 c -0.03225,0 -0.05839,-0.0262 -0.05839,-0.0584 v -0.46713 c 0,-0.0323 -0.02614,-0.0584 -0.05839,-0.0584 h -1.051035 c -0.03225,0 -0.05839,-0.0261 -0.05839,-0.0584 v -1.63494 c 0,-0.0322 0.02614,-0.0584 0.05839,-0.0584 H 79.3693 c 0.03225,0 0.05839,-0.0262 0.05839,-0.0584 v -0.46712 c 0,-0.0323 0.02614,-0.0584 0.05839,-0.0584 h 0.525518 v 1.10942 c 0,0.0322 0.02614,0.0584 0.05839,0.0584 h 0.467127 c 0.03225,0 0.05839,-0.0261 0.05839,-0.0584 v -1.05103 c 0,-0.0323 -0.02614,-0.0584 -0.05839,-0.0584 h -0.525517 v -0.52552 c 0,-0.0323 -0.02614,-0.0584 -0.05839,-0.0584 h -1.051035 c -0.03225,0 -0.05839,-0.0261 -0.05839,-0.0584 v -0.52552 H 79.3693 c 0.03225,0 0.05839,-0.0261 0.05839,-0.0584 v -0.46713 c 0,-0.0322 -0.02614,-0.0584 -0.05839,-0.0584 h -0.525518 v -0.52551 c 0,-0.0323 0.02614,-0.0584 0.05839,-0.0584 H 79.3693 c 0.03225,0 0.05839,-0.0261 0.05839,-0.0584 V 134.899 c 0,-0.0323 -0.02614,-0.0584 -0.05839,-0.0584 h -0.467127 c -0.03225,0 -0.05839,-0.0262 -0.05839,-0.0584 v -1.05104 c 0,-0.0323 -0.02614,-0.0584 -0.05839,-0.0584 h -0.525518 v -0.58391 h 0.525518 c 0.03225,0 0.05839,-0.0261 0.05839,-0.0584 v -0.52552 h 0.583909 v 0.52552 c 0,0.0323 0.02614,0.0584 0.05839,0.0584 h 1.051035 c 0.03225,0 0.05839,0.0262 0.05839,0.0584 v 0.46713 c 0,0.0323 0.02614,0.0584 0.05839,0.0584 h 0.525518 v 0.58391 h -0.525518 c -0.03225,0 -0.05839,0.0261 -0.05839,0.0584 v 0.46713 c 0,0.0322 0.02614,0.0584 0.05839,0.0584 h 0.467127 c 0.03225,0 0.05839,-0.0262 0.05839,-0.0584 v -0.52552 h 0.583908 v 0.52552 c 0,0.0322 0.02614,0.0584 0.05839,0.0584 h 0.467127 c 0.03225,0 0.05839,-0.0262 0.05839,-0.0584 v -0.52552 h 0.525517 c 0.03225,0 0.05839,-0.0261 0.05839,-0.0584 v -0.52552 h 0.583908 v 1.10943 c 0,0.0322 -0.02614,0.0584 -0.05839,0.0584 H 82.98953 c -0.03225,0 -0.05839,0.0261 -0.05839,0.0584 v 1.63494 c 0,0.0323 0.02614,0.0584 0.05839,0.0584 h 1.634942 c 0.03225,0 0.05839,-0.0261 0.05839,-0.0584 v -0.46713 c 0,-0.0322 -0.02614,-0.0584 -0.05839,-0.0584 h -0.467126 c -0.03225,0 -0.05839,-0.0261 -0.05839,-0.0584 V 134.899 c 0,-0.0323 0.02614,-0.0584 0.05839,-0.0584 h 1.109425 v 0.52551 c 0,0.0323 0.02614,0.0584 0.05839,0.0584 h 0.467126 c 0.03225,0 0.05839,-0.0261 0.05839,-0.0584 v -0.52551 h 0.583908 v 1.10942 c 0,0.0323 0.02614,0.0584 0.05839,0.0584 h 0.467126 c 0.03225,0 0.05839,-0.0261 0.05839,-0.0584 V 134.899 c 0,-0.0323 -0.02614,-0.0584 -0.05839,-0.0584 h -0.525517 v -0.52552 c 0,-0.0323 0.02614,-0.0584 0.05839,-0.0584 h 1.051034 c 0.03225,0 0.05839,0.0261 0.05839,0.0584 v 1.63494 c 0,0.0323 0.02614,0.0584 0.05839,0.0584 h 1.109425 v 0.52552 c 0,0.0323 0.02614,0.0584 0.05839,0.0584 h 0.525517 v 0.52552 c 0,0.0323 -0.02614,0.0584 -0.05839,0.0584 h -0.46712 c -0.03225,0 -0.05839,0.0261 -0.05839,0.0584 v 0.46713 c 0,0.0322 0.02614,0.0584 0.05839,0.0584 h 0.467126 c 0.03225,0 0.05839,0.0261 0.05839,0.0584 v 0.46712 c 0,0.0323 0.02614,0.0584 0.05839,0.0584 h 0.525517 v 0.52551 c 0,0.0322 -0.02614,0.0584 -0.05839,0.0584 h -0.467126 c -0.03225,0 -0.05839,0.0261 -0.05839,0.0584 v 0.46713 c 0,0.0322 0.02614,0.0584 0.05839,0.0584 h 1.051034 c 0.03225,0 0.05839,0.0261 0.05839,0.0584 v 1.05104 c 0,0.0322 -0.02614,0.0584 -0.05839,0.0584 h -0.525517 v -0.52552 c 0,-0.0323 -0.02614,-0.0584 -0.05839,-0.0584 h -0.467126 c -0.03225,0 -0.05839,0.0261 -0.05839,0.0584 v 0.46713 c 0,0.0322 0.02614,0.0584 0.05839,0.0584 h 0.525517 v 0.52551 c 0,0.0323 -0.02614,0.0584 -0.05839,0.0584 z m -6.422988,0 h -2.802759 c -0.03225,0 -0.05839,-0.0262 -0.05839,-0.0584 v -0.52551 h 0.525517 c 0.03225,0 0.05839,-0.0262 0.05839,-0.0584 v -0.52552 h 0.583908 v 0.52552 c 0,0.0322 0.02614,0.0584 0.05839,0.0584 h 1.693334 v 0.52551 c 0,0.0323 -0.02614,0.0584 -0.05839,0.0584 z m -5.255172,0 h -3.970575 c -0.03225,0 -0.05839,-0.0262 -0.05839,-0.0584 v -3.97057 c 0,-0.0323 0.02614,-0.0584 0.05839,-0.0584 h 3.970575 c 0.03225,0 0.05839,0.0261 0.05839,0.0584 v 3.97057 c 0,0.0323 -0.02614,0.0584 -0.05839,0.0584 z m 6.422988,-0.58391 h -1.109425 v -0.58391 h 1.167816 v 0.52552 c 0,0.0322 -0.02614,0.0584 -0.05839,0.0584 z m -6.948506,-0.0584 v -2.80276 c 0,-0.0323 -0.02614,-0.0584 -0.05839,-0.0584 h -2.802759 c -0.03225,0 -0.05839,0.0261 -0.05839,0.0584 v 2.80276 c 0,0.0322 0.02614,0.0584 0.05839,0.0584 h 2.802759 c 0.03225,0 0.05839,-0.0262 0.05839,-0.0584 z m 5.78069,-0.52552 H 82.98953 c -0.03225,0 -0.05839,-0.0261 -0.05839,-0.0584 v -0.52552 h 0.583908 v 0.58391 z m -1.167816,0 h -0.525517 v -1.10943 c 0,-0.0322 0.02614,-0.0584 0.05839,-0.0584 h 0.467127 c 0.03225,0 0.05839,-0.0261 0.05839,-0.0584 v -0.46712 c 0,-0.0322 0.02614,-0.0584 0.05839,-0.0584 h 0.467126 c 0.03225,0 0.05839,0.0261 0.05839,0.0584 v 1.10942 h -0.525517 c -0.03225,0 -0.05839,0.0261 -0.05839,0.0584 v 0.46713 c 0,0.0323 -0.02614,0.0584 -0.05839,0.0584 z m -5.255172,0 h -1.634943 c -0.03225,0 -0.05839,-0.0261 -0.05839,-0.0584 v -1.63494 c 0,-0.0322 0.02614,-0.0584 0.05839,-0.0584 h 1.634943 c 0.03225,0 0.05839,0.0261 0.05839,0.0584 v 1.63494 c 0,0.0323 -0.02614,0.0584 -0.05839,0.0584 z m 11.736551,-0.6423 v -0.46713 c 0,-0.0322 -0.02614,-0.0584 -0.05839,-0.0584 h -0.467126 c -0.03225,0 -0.05839,0.0261 -0.05839,0.0584 v 0.46713 c 0,0.0322 0.02614,0.0584 0.05839,0.0584 h 0.467126 c 0.03225,0 0.05839,-0.0261 0.05839,-0.0584 z m -1.167816,0 v -0.46713 c 0,-0.0322 -0.02614,-0.0584 -0.05839,-0.0584 h -0.467126 c -0.03225,0 -0.05839,0.0261 -0.05839,0.0584 v 0.46713 c 0,0.0322 0.02614,0.0584 0.05839,0.0584 h 0.467126 c 0.03225,0 0.05839,-0.0261 0.05839,-0.0584 z m 3.445058,-0.52552 h -0.467127 c -0.03225,0 -0.05839,-0.0261 -0.05839,-0.0584 v -0.46712 c 0,-0.0322 -0.02614,-0.0584 -0.05839,-0.0584 h -0.525517 v -0.52552 c 0,-0.0323 0.02614,-0.0584 0.05839,-0.0584 h 1.051035 c 0.03225,0 0.05839,0.0261 0.05839,0.0584 v 1.05103 c 0,0.0322 -0.02614,0.0584 -0.05839,0.0584 z m -5.196782,-0.0584 v -0.46712 c 0,-0.0322 -0.02614,-0.0584 -0.05839,-0.0584 h -1.051034 c -0.03225,0 -0.05839,0.0261 -0.05839,0.0584 v 0.46712 c 0,0.0322 0.02614,0.0584 0.05839,0.0584 h 1.051034 c 0.03225,0 0.05839,-0.0261 0.05839,-0.0584 z m 2.335632,-0.58391 v -1.63494 c 0,-0.0323 -0.02614,-0.0584 -0.05839,-0.0584 h -1.634942 c -0.03225,0 -0.05839,0.0261 -0.05839,0.0584 v 1.63494 c 0,0.0323 0.02614,0.0584 0.05839,0.0584 h 1.634942 c 0.03225,0 0.05839,-0.0262 0.05839,-0.0584 z m -0.642299,-0.52551 h -0.467126 c -0.03225,0 -0.05839,-0.0262 -0.05839,-0.0584 v -0.46713 c 0,-0.0323 0.02614,-0.0584 0.05839,-0.0584 h 0.467126 c 0.03225,0 0.05839,0.0261 0.05839,0.0584 v 0.46713 c 0,0.0322 -0.02614,0.0584 -0.05839,0.0584 z m 3.503449,-0.58391 h -1.051035 c -0.03225,0 -0.05839,-0.0261 -0.05839,-0.0584 v -0.46713 c 0,-0.0323 -0.02614,-0.0584 -0.05839,-0.0584 h -0.525517 v -0.58391 h 0.525517 c 0.03225,0 0.05839,-0.0261 0.05839,-0.0584 v -0.52552 h 0.525517 c 0.03225,0 0.05839,0.0262 0.05839,0.0584 v 0.46712 c 0,0.0323 0.02614,0.0584 0.05839,0.0584 h 0.467127 c 0.03225,0 0.05839,0.0262 0.05839,0.0584 v 1.05104 c 0,0.0323 -0.02614,0.0584 -0.05839,0.0584 z m -5.196782,-0.6423 v -0.46713 c 0,-0.0322 -0.02614,-0.0584 -0.05839,-0.0584 h -0.467126 c -0.03225,0 -0.05839,0.0262 -0.05839,0.0584 v 0.46713 c 0,0.0323 0.02614,0.0584 0.05839,0.0584 h 0.467126 c 0.03225,0 0.05839,-0.0261 0.05839,-0.0584 z m -7.065287,0.0584 h -1.634943 c -0.03225,0 -0.05839,-0.0261 -0.05839,-0.0584 v -0.46713 c 0,-0.0322 0.02614,-0.0584 0.05839,-0.0584 h 1.693333 v 0.58391 z m -2.919541,0 h -0.467126 c -0.03225,0 -0.05839,-0.0261 -0.05839,-0.0584 V 134.899 c 0,-0.0323 0.02614,-0.0584 0.05839,-0.0584 h 0.525517 v 0.52551 c 0,0.0323 0.02614,0.0584 0.05839,0.0584 h 0.467127 c 0.03225,0 0.05839,0.0262 0.05839,0.0584 v 0.46712 c 0,0.0323 -0.02614,0.0584 -0.05839,0.0584 h -0.467127 c -0.03225,0 -0.05839,0.0262 -0.05839,0.0584 v 0.46713 c 0,0.0323 -0.02614,0.0584 -0.05839,0.0584 z m -1.167816,0 h -0.467126 c -0.03225,0 -0.05839,-0.0261 -0.05839,-0.0584 v -4.55448 c 0,-0.0322 0.02614,-0.0584 0.05839,-0.0584 h 0.525517 v 0.52551 c 0,0.0322 0.02614,0.0584 0.05839,0.0584 h 2.218851 c 0.03225,0 0.05839,0.0262 0.05839,0.0584 v 0.46712 c 0,0.0323 0.02614,0.0584 0.05839,0.0584 h 0.525517 v 0.52552 c 0,0.0323 0.02614,0.0584 0.05839,0.0584 h 0.525517 v 0.52552 c 0,0.0323 -0.02614,0.0584 -0.05839,0.0584 h -0.467127 c -0.03225,0 -0.05839,0.0261 -0.05839,0.0584 v 0.46713 c 0,0.0322 0.02614,0.0584 0.05839,0.0584 h 0.467127 c 0.03225,0 0.05839,0.0261 0.05839,0.0584 v 0.46712 c 0,0.0323 -0.02614,0.0584 -0.05839,0.0584 h -1.051035 c -0.03225,0 -0.05839,-0.0261 -0.05839,-0.0584 V 134.899 c 0,-0.0323 -0.02614,-0.0584 -0.05839,-0.0584 H 75.92424 v -0.52552 c 0,-0.0323 0.02614,-0.0584 0.05839,-0.0584 h 1.051035 c 0.03225,0 0.05839,-0.0261 0.05839,-0.0584 v -0.46713 c 0,-0.0323 -0.02614,-0.0584 -0.05839,-0.0584 h -0.467127 c -0.03225,0 -0.05839,-0.0261 -0.05839,-0.0584 v -0.46713 c 0,-0.0322 -0.02614,-0.0584 -0.05839,-0.0584 h -1.051035 c -0.03225,0 -0.05839,0.0262 -0.05839,0.0584 v 0.46713 c 0,0.0323 -0.02614,0.0584 -0.05839,0.0584 h -0.467126 c -0.03225,0 -0.05839,0.0261 -0.05839,0.0584 v 2.80276 c 0,0.0323 -0.02614,0.0584 -0.05839,0.0584 z m 14.597701,-0.58391 h -0.525517 v -0.52551 c 0,-0.0323 -0.02614,-0.0584 -0.05839,-0.0584 h -0.467126 c -0.03225,0 -0.05839,-0.0261 -0.05839,-0.0584 v -1.05103 c 0,-0.0323 0.02614,-0.0584 0.05839,-0.0584 h 0.467126 c 0.03225,0 0.05839,-0.0261 0.05839,-0.0584 v -0.46713 c 0,-0.0323 -0.02614,-0.0584 -0.05839,-0.0584 h -0.467126 c -0.03225,0 -0.05839,-0.0261 -0.05839,-0.0584 v -0.52552 h 1.109425 c 0.03225,0 0.05839,0.0262 0.05839,0.0584 v 0.46713 c 0,0.0323 0.02614,0.0584 0.05839,0.0584 h 0.525517 v 0.52552 c 0,0.0323 0.02614,0.0584 0.05839,0.0584 h 0.467126 c 0.03225,0 0.05839,-0.0261 0.05839,-0.0584 v -0.46713 c 0,-0.0323 -0.02614,-0.0584 -0.05839,-0.0584 h -0.525517 v -0.52552 c 0,-0.0322 0.02614,-0.0584 0.05839,-0.0584 h 1.051035 c 0.03225,0 0.05839,0.0262 0.05839,0.0584 v 1.63495 c 0,0.0322 -0.02614,0.0584 -0.05839,0.0584 h -1.051035 c -0.03225,0 -0.05839,0.0261 -0.05839,0.0584 v 0.52551 h -0.525517 c -0.03225,0 -0.05839,0.0262 -0.05839,0.0584 v 0.52551 z m -3.503448,-1.16781 h -0.525517 v -0.52552 c 0,-0.0323 0.02614,-0.0584 0.05839,-0.0584 h 0.467126 c 0.03225,0 0.05839,0.0261 0.05839,0.0584 v 0.52552 z m -1.167816,-0.58391 h -0.467126 c -0.03225,0 -0.05839,-0.0261 -0.05839,-0.0584 v -0.46713 c 0,-0.0323 -0.02614,-0.0584 -0.05839,-0.0584 h -0.525517 v -0.58391 h 3.445057 c 0.03225,0 0.05839,-0.0261 0.05839,-0.0584 v -0.46712 c 0,-0.0323 -0.02614,-0.0584 -0.05839,-0.0584 h -1.634942 c -0.03225,0 -0.05839,-0.0261 -0.05839,-0.0584 v -0.46712 c 0,-0.0322 -0.02614,-0.0584 -0.05839,-0.0584 h -0.525517 v -0.58391 h 1.167816 v 0.52552 c 0,0.0322 0.02614,0.0584 0.05839,0.0584 h 0.467126 c 0.03225,0 0.05839,-0.0261 0.05839,-0.0584 v -0.46713 c 0,-0.0322 -0.02614,-0.0584 -0.05839,-0.0584 h -0.525517 v -1.10943 c 0,-0.0323 -0.02614,-0.0584 -0.05839,-0.0584 h -2.277241 v -0.58391 h 1.109425 c 0.03225,0 0.05839,-0.0261 0.05839,-0.0584 v -0.46712 c 0,-0.0323 0.02614,-0.0584 0.05839,-0.0584 h 0.467126 c 0.03225,0 0.05839,0.0261 0.05839,0.0584 v 0.46712 c 0,0.0323 0.02614,0.0584 0.05839,0.0584 h 0.467126 c 0.03225,0 0.05839,-0.0261 0.05839,-0.0584 v -2.27724 h 0.525517 c 0.03225,0 0.05839,0.0261 0.05839,0.0584 v 1.63495 c 0,0.0322 0.02614,0.0584 0.05839,0.0584 h 1.634942 c 0.03225,0 0.05839,0.0261 0.05839,0.0584 v 0.46712 c 0,0.0323 0.02614,0.0584 0.05839,0.0584 h 1.051034 c 0.03225,0 0.05839,-0.0261 0.05839,-0.0584 v -0.46712 c 0,-0.0323 0.02614,-0.0584 0.05839,-0.0584 h 1.634943 c 0.03225,0 0.05839,0.0261 0.05839,0.0584 v 1.05103 c 0,0.0323 -0.02614,0.0584 -0.05839,0.0584 h -0.467127 c -0.03225,0 -0.05839,-0.0261 -0.05839,-0.0584 v -0.46712 c 0,-0.0323 -0.02614,-0.0584 -0.05839,-0.0584 h -0.467126 c -0.03225,0 -0.05839,0.0262 -0.05839,0.0584 v 0.46712 c 0,0.0323 -0.02614,0.0584 -0.05839,0.0584 H 88.82861 c -0.03225,0 -0.05839,0.0261 -0.05839,0.0584 v 0.46713 c 0,0.0323 -0.02614,0.0584 -0.05839,0.0584 h -0.467126 c -0.03225,0 -0.05839,0.0261 -0.05839,0.0584 v 1.10943 h -0.583908 v -0.52552 c 0,-0.0322 -0.02614,-0.0584 -0.05839,-0.0584 H 87.07689 c -0.03225,0 -0.05839,0.0261 -0.05839,0.0584 v 0.46713 c 0,0.0322 0.02614,0.0584 0.05839,0.0584 h 0.525517 v 0.52551 c 0,0.0322 0.02614,0.0584 0.05839,0.0584 h 0.525517 v 0.58391 h -0.525517 c -0.03225,0 -0.05839,0.0262 -0.05839,0.0584 v 0.46713 c 0,0.0323 -0.02614,0.0584 -0.05839,0.0584 h -2.802758 c -0.03225,0 -0.05839,0.0261 -0.05839,0.0584 v 0.46713 c 0,0.0323 -0.02614,0.0584 -0.05839,0.0584 z m -2.335632,0 h -0.525517 v -0.58391 h 0.583908 v 0.58391 z m -2.277241,-0.0584 v -0.46713 c 0,-0.0323 -0.02614,-0.0584 -0.05839,-0.0584 h -0.467127 c -0.03225,0 -0.05839,0.0261 -0.05839,0.0584 v 0.46713 c 0,0.0323 0.02614,0.0584 0.05839,0.0584 h 0.467127 c 0.03225,0 0.05839,-0.0261 0.05839,-0.0584 z m 2.861149,-0.52552 h -0.525517 v -0.52552 c 0,-0.0322 0.02614,-0.0584 0.05839,-0.0584 h 0.525517 v 0.58391 z m -1.167816,0 h -0.525517 v -1.69333 c 0,-0.0322 0.02614,-0.0584 0.05839,-0.0584 h 0.467127 c 0.03225,0 0.05839,-0.0261 0.05839,-0.0584 v -0.46713 c 0,-0.0322 0.02614,-0.0584 0.05839,-0.0584 h 2.277242 v 0.52552 c 0,0.0322 0.02614,0.0584 0.05839,0.0584 h 0.525517 v 0.52551 c 0,0.0322 -0.02614,0.0584 -0.05839,0.0584 h -1.109425 v -0.52551 c 0,-0.0322 -0.02614,-0.0584 -0.05839,-0.0584 h -1.051034 c -0.03225,0 -0.05839,0.0261 -0.05839,0.0584 v 0.46712 c 0,0.0322 -0.02614,0.0584 -0.05839,0.0584 h -0.467127 c -0.03225,0 -0.05839,0.0262 -0.05839,0.0584 v 1.10942 z m 1.751724,-0.58391 h -0.525517 v -0.52551 c 0,-0.0323 0.02614,-0.0584 0.05839,-0.0584 h 0.525517 v 0.58391 z m -5.255172,0 h -0.525518 v -0.52551 c 0,-0.0323 0.02614,-0.0584 0.05839,-0.0584 h 0.525517 v 0.58391 z m 12.845977,-0.58391 h -1.051035 c -0.03225,0 -0.05839,-0.0261 -0.05839,-0.0584 v -0.46712 c 0,-0.0322 -0.02614,-0.0584 -0.05839,-0.0584 h -0.525517 v -0.52552 c 0,-0.0322 0.02614,-0.0584 0.05839,-0.0584 h 0.467126 c 0.03225,0 0.05839,-0.0261 0.05839,-0.0584 v -0.46713 c 0,-0.0323 0.02614,-0.0584 0.05839,-0.0584 h 0.467126 c 0.03225,0 0.05839,0.0261 0.05839,0.0584 v 0.46713 c 0,0.0323 0.02614,0.0584 0.05839,0.0584 h 0.467127 c 0.03225,0 0.05839,0.0261 0.05839,0.0584 v 1.05103 c 0,0.0322 -0.02614,0.0584 -0.05839,0.0584 z m -1.751725,0 h -1.109425 v -0.5839 h 1.167816 v 0.52551 c 0,0.0322 -0.02614,0.0584 -0.05839,0.0584 z m -8.75862,0 h -1.109425 v -0.52551 c 0,-0.0322 -0.02614,-0.0584 -0.05839,-0.0584 h -0.467127 c -0.03225,0 -0.05839,0.0261 -0.05839,0.0584 v 0.52551 h -0.583908 v -0.52551 c 0,-0.0322 -0.02614,-0.0584 -0.05839,-0.0584 h -3.445058 v -0.58391 h 0.525517 c 0.03225,0 0.05839,-0.0261 0.05839,-0.0584 v -0.52552 h 0.583908 v 0.52552 c 0,0.0323 0.02614,0.0584 0.05839,0.0584 h 2.218851 c 0.03225,0 0.05839,-0.0261 0.05839,-0.0584 v -0.46713 c 0,-0.0323 -0.02614,-0.0584 -0.05839,-0.0584 h -2.277242 v -0.58391 h 2.277242 c 0.03225,0 0.05839,-0.0261 0.05839,-0.0584 v -0.52552 h 0.525518 c 0.03225,0 0.05839,-0.0261 0.05839,-0.0584 v -2.21885 c 0,-0.0322 0.02614,-0.0584 0.05839,-0.0584 H 79.3693 c 0.03225,0 0.05839,0.0261 0.05839,0.0584 v 1.05104 c 0,0.0323 0.02614,0.0584 0.05839,0.0584 h 0.467127 c 0.03225,0 0.05839,-0.0261 0.05839,-0.0584 v -0.46713 c 0,-0.0323 0.02614,-0.0584 0.05839,-0.0584 h 0.525518 v 0.52552 c 0,0.0323 0.02614,0.0584 0.05839,0.0584 h 0.467127 c 0.03225,0 0.05839,-0.0261 0.05839,-0.0584 v -0.46713 c 0,-0.0323 -0.02614,-0.0584 -0.05839,-0.0584 h -0.525517 v -1.10942 c 0,-0.0322 0.02614,-0.0584 0.05839,-0.0584 h 1.051035 c 0.03225,0 0.05839,0.0262 0.05839,0.0584 v 0.46712 c 0,0.0322 0.02614,0.0584 0.05839,0.0584 h 0.467127 c 0.03225,0 0.05839,-0.0261 0.05839,-0.0584 v -1.10942 h 0.525517 c 0.03225,0 0.05839,0.0261 0.05839,0.0584 v 0.46712 c 0,0.0323 0.02614,0.0584 0.05839,0.0584 h 1.051034 c 0.03225,0 0.05839,-0.0261 0.05839,-0.0584 v -0.46712 c 0,-0.0322 0.02614,-0.0584 0.05839,-0.0584 h 1.051034 c 0.03225,0 0.05839,0.0261 0.05839,0.0584 v 0.46712 c 0,0.0323 0.02614,0.0584 0.05839,0.0584 h 0.525517 v 0.58391 h -0.525517 c -0.03225,0 -0.05839,0.0261 -0.05839,0.0584 v 1.05104 c 0,0.0323 -0.02614,0.0584 -0.05839,0.0584 h -0.467126 c -0.03225,0 -0.05839,-0.0261 -0.05839,-0.0584 v -1.05104 c 0,-0.0322 -0.02614,-0.0584 -0.05839,-0.0584 H 84.15734 c -0.03225,0 -0.05839,0.0261 -0.05839,0.0584 v 1.05104 c 0,0.0323 -0.02614,0.0584 -0.05839,0.0584 h -0.525517 v -0.52552 c 0,-0.0323 -0.02614,-0.0584 -0.05839,-0.0584 H 82.98953 c -0.03225,0 -0.05839,0.0261 -0.05839,0.0584 v 0.46713 c 0,0.0323 0.02614,0.0584 0.05839,0.0584 h 0.525517 v 1.16781 H 82.98953 c -0.03225,0 -0.05839,-0.0261 -0.05839,-0.0584 v -0.46712 c 0,-0.0323 -0.02614,-0.0584 -0.05839,-0.0584 h -0.525517 v -1.10943 c 0,-0.0323 -0.02614,-0.0584 -0.05839,-0.0584 h -0.467127 c -0.03225,0 -0.05839,0.0261 -0.05839,0.0584 v 1.10943 h -1.693334 c -0.03225,0 -0.05839,0.0261 -0.05839,0.0584 v 0.46712 c 0,0.0323 -0.02614,0.0584 -0.05839,0.0584 h -0.467127 c -0.03225,0 -0.05839,0.0262 -0.05839,0.0584 v 0.52551 h -0.525518 c -0.03225,0 -0.05839,0.0261 -0.05839,0.0584 v 0.46713 c 0,0.0323 0.02614,0.0584 0.05839,0.0584 h 0.525518 v 0.52552 c 0,0.0323 0.02614,0.0584 0.05839,0.0584 h 1.051035 c 0.03225,0 0.05839,0.0261 0.05839,0.0584 v 1.05103 c 0,0.0322 -0.02614,0.0584 -0.05839,0.0584 z m 4.087356,-1.16781 h -0.525517 v -0.52552 c 0,-0.0323 0.02614,-0.0584 0.05839,-0.0584 h 0.467126 c 0.03225,0 0.05839,0.0261 0.05839,0.0584 v 0.52552 z m -9.926437,0 h -0.467126 c -0.03225,0 -0.05839,-0.0261 -0.05839,-0.0584 v -1.63494 c 0,-0.0323 0.02614,-0.0584 0.05839,-0.0584 h 0.467126 c 0.03225,0 0.05839,0.0262 0.05839,0.0584 v 0.46712 c 0,0.0323 0.02614,0.0584 0.05839,0.0584 h 0.525517 v 0.58391 h -0.525517 c -0.03225,0 -0.05839,0.0261 -0.05839,0.0584 v 0.52552 z m 8.758621,-0.58391 H 82.98953 c -0.03225,0 -0.05839,-0.0261 -0.05839,-0.0584 v -0.46713 c 0,-0.0323 0.02614,-0.0584 0.05839,-0.0584 h 0.525517 v 0.52552 c 0,0.0323 -0.02614,0.0584 -0.05839,0.0584 z m -1.167816,0 h -1.051035 c -0.03225,0 -0.05839,-0.0261 -0.05839,-0.0584 v -0.46713 c 0,-0.0323 -0.02614,-0.0584 -0.05839,-0.0584 h -0.467127 c -0.03225,0 -0.05839,-0.0261 -0.05839,-0.0584 v -0.46712 c 0,-0.0323 0.02614,-0.0584 0.05839,-0.0584 h 1.051035 c 0.03225,0 0.05839,-0.0261 0.05839,-0.0584 v -0.52551 h 0.583908 v 1.69333 c 0,0.0323 -0.02614,0.0584 -0.05839,0.0584 z m -2.335632,0 h -0.525517 v -0.58391 h 0.525517 c 0.03225,0 0.05839,0.0261 0.05839,0.0584 v 0.46713 c 0,0.0323 -0.02614,0.0584 -0.05839,0.0584 z m -4.087357,-0.58391 h -0.525517 v -1.10942 c 0,-0.0323 0.02614,-0.0584 0.05839,-0.0584 h 1.634943 c 0.03225,0 0.05839,0.0261 0.05839,0.0584 v 0.46712 c 0,0.0323 -0.02614,0.0584 -0.05839,0.0584 h -1.051035 c -0.03225,0 -0.05839,0.0262 -0.05839,0.0584 v 0.52551 z m 2.335633,-0.58391 h -0.467127 c -0.03225,0 -0.05839,-0.0261 -0.05839,-0.0584 v -0.46712 c 0,-0.0323 0.02614,-0.0584 0.05839,-0.0584 h 0.467127 c 0.03225,0 0.05839,0.0261 0.05839,0.0584 v 0.52551 z m 12.845977,-1.16781 h -3.970575 c -0.03225,0 -0.05839,-0.0261 -0.05839,-0.0584 v -3.97058 c 0,-0.0323 0.02614,-0.0584 0.05839,-0.0584 h 3.970575 c 0.03225,0 0.05839,0.0261 0.05839,0.0584 v 3.97058 c 0,0.0323 -0.02614,0.0584 -0.05839,0.0584 z m -12.845977,0 h -3.970575 c -0.03225,0 -0.05839,-0.0261 -0.05839,-0.0584 v -3.97058 c 0,-0.0323 0.02614,-0.0584 0.05839,-0.0584 h 3.970575 c 0.03225,0 0.05839,0.0261 0.05839,0.0584 v 3.97058 c 0,0.0323 -0.02614,0.0584 -0.05839,0.0584 z m 12.320459,-0.6423 v -2.80276 c 0,-0.0323 -0.02614,-0.0584 -0.05839,-0.0584 h -2.802758 c -0.03225,0 -0.05839,0.0261 -0.05839,0.0584 v 2.80276 c 0,0.0323 0.02614,0.0584 0.05839,0.0584 h 2.802758 c 0.03225,0 0.05839,-0.0261 0.05839,-0.0584 z m -12.845977,0 v -2.80276 c 0,-0.0323 -0.02614,-0.0584 -0.05839,-0.0584 h -2.802759 c -0.03225,0 -0.05839,0.0261 -0.05839,0.0584 v 2.80276 c 0,0.0323 0.02614,0.0584 0.05839,0.0584 h 2.802759 c 0.03225,0 0.05839,-0.0261 0.05839,-0.0584 z m 12.203678,-0.52552 h -1.634942 c -0.03225,0 -0.05839,-0.0261 -0.05839,-0.0584 v -1.63494 c 0,-0.0323 0.02614,-0.0584 0.05839,-0.0584 h 1.634942 c 0.03225,0 0.05839,0.0261 0.05839,0.0584 v 1.63494 c 0,0.0322 -0.02614,0.0584 -0.05839,0.0584 z m -12.845976,0 h -1.634943 c -0.03225,0 -0.05839,-0.0261 -0.05839,-0.0584 v -1.63494 c 0,-0.0323 0.02614,-0.0584 0.05839,-0.0584 h 1.634943 c 0.03225,0 0.05839,0.0261 0.05839,0.0584 v 1.63494 c 0,0.0322 -0.02614,0.0584 -0.05839,0.0584 z m 9.342528,-0.58391 h -0.525517 v -1.69333 c 0,-0.0323 -0.02614,-0.0584 -0.05839,-0.0584 h -0.467126 c -0.03225,0 -0.05839,0.0261 -0.05839,0.0584 v 0.46713 c 0,0.0323 -0.02614,0.0584 -0.05839,0.0584 h -2.21885 c -0.03225,0 -0.05839,-0.0261 -0.05839,-0.0584 v -0.46713 c 0,-0.0323 0.02614,-0.0584 0.05839,-0.0584 h 0.467126 c 0.03225,0 0.05839,-0.0261 0.05839,-0.0584 v -0.46713 c 0,-0.0323 0.02614,-0.0584 0.05839,-0.0584 h 0.467126 c 0.03225,0 0.05839,0.0261 0.05839,0.0584 v 0.46713 c 0,0.0323 0.02614,0.0584 0.05839,0.0584 h 0.467126 c 0.03225,0 0.05839,-0.0261 0.05839,-0.0584 v -0.46713 c 0,-0.0323 0.02614,-0.0584 0.05839,-0.0584 h 1.634942 c 0.03225,0 0.05839,0.0261 0.05839,0.0584 v 2.21885 c 0,0.0323 -0.02614,0.0584 -0.05839,0.0584 z m -6.422988,0 h -0.467127 c -0.03225,0 -0.05839,-0.0261 -0.05839,-0.0584 v -0.46712 c 0,-0.0322 -0.02614,-0.0584 -0.05839,-0.0584 h -0.467127 c -0.03225,0 -0.05839,-0.0262 -0.05839,-0.0584 v -1.63495 c 0,-0.0323 0.02614,-0.0584 0.05839,-0.0584 H 79.3693 c 0.03225,0 0.05839,0.0261 0.05839,0.0584 v 1.05104 c 0,0.0323 0.02614,0.0584 0.05839,0.0584 h 0.467127 c 0.03225,0 0.05839,-0.0261 0.05839,-0.0584 v -1.05104 c 0,-0.0323 0.02614,-0.0584 0.05839,-0.0584 h 0.467127 c 0.03225,0 0.05839,0.0261 0.05839,0.0584 v 1.63495 c 0,0.0322 -0.02614,0.0584 -0.05839,0.0584 h -0.467127 c -0.03225,0 -0.05839,0.0261 -0.05839,0.0584 v 0.46712 c 0,0.0323 -0.02614,0.0584 -0.05839,0.0584 z m 2.335632,-0.5839 h -1.051035 c -0.03225,0 -0.05839,-0.0262 -0.05839,-0.0584 v -0.46713 c 0,-0.0323 0.02614,-0.0584 0.05839,-0.0584 h 0.467127 c 0.03225,0 0.05839,-0.0261 0.05839,-0.0584 v -1.05104 c 0,-0.0323 0.02614,-0.0584 0.05839,-0.0584 h 0.467127 c 0.03225,0 0.05839,0.0261 0.05839,0.0584 v 1.69334 z"
         id="path6513"
         style="fill:#000000;fill-opacity:1;stroke:none;stroke-width:0.145977" />
    </g>
  </g>
</svg>
