<?xml version="1.0" encoding="UTF-8" standalone="no"?>
<!-- Created with Inkscape (http://www.inkscape.org/) -->

<svg
   width="16.933332mm"
   height="16.933332mm"
   viewBox="0 0 16.933332 16.933332"
   version="1.1"
   id="svg6501"
   xmlns="http://www.w3.org/2000/svg"
   xmlns:svg="http://www.w3.org/2000/svg">
  <defs
     id="defs6498" />
  <g
     id="layer1"
     transform="translate(-74.172518,-124.33027)">
    <g
       transform="matrix(0.264583,0,0,0.264583,63.060043,113.21779)"
       id="g6517">
      <g
         style="fill:#ffffff;fill-opacity:1;stroke:none"
         id="g6515"
         transform="matrix(0.55172483,0,0,0.55172483,33.172362,33.172362)">
        <path
           d="m 123.6,132 h -11.2 c -0.22091,0 -0.4,-0.17909 -0.4,-0.4 v -7.2 c 0,-0.22091 -0.17909,-0.4 -0.4,-0.4 h -11.2 c -0.22091,0 -0.4,0.17909 -0.4,0.4 v 3.2 c 0,0.22091 -0.179086,0.4 -0.4,0.4 h -3.2 c -0.220914,0 -0.4,0.17909 -0.4,0.4 v 3.2 c 0,0.22091 -0.179086,0.4 -0.4,0.4 h -3.2 c -0.220914,0 -0.4,-0.17909 -0.4,-0.4 v -7.2 C 92,124.17909 91.820914,124 91.6,124 H 88 v -3.6 C 88,120.17909 87.820914,120 87.6,120 H 80 v -7.6 c 0,-0.22091 0.179086,-0.4 0.4,-0.4 h 3.2 c 0.220914,0 0.4,-0.17909 0.4,-0.4 V 108 h 3.6 c 0.220914,0 0.4,-0.17909 0.4,-0.4 v -3.2 c 0,-0.22091 -0.179086,-0.4 -0.4,-0.4 h -3.2 c -0.220914,0 -0.4,0.17909 -0.4,0.4 v 3.6 h -3.6 c -0.220914,0 -0.4,-0.17909 -0.4,-0.4 v -3.2 C 80,104.17909 79.820914,104 79.6,104 H 72.4 C 72.179086,104 72,103.82091 72,103.6 V 92.4 C 72,92.179086 71.820914,92 71.6,92 H 68.4 C 68.179086,92 68,92.179086 68,92.4 v 11.2 c 0,0.22091 -0.179086,0.4 -0.4,0.4 H 64 V 92.4 C 64,92.179086 63.820914,92 63.6,92 H 56.4 C 56.179086,92 56,92.179086 56,92.4 v 7.2 c 0,0.220914 0.179086,0.4 0.4,0.4 h 3.2 c 0.220914,0 0.4,0.17909 0.4,0.4 v 3.2 c 0,0.22091 0.179086,0.4 0.4,0.4 H 64 v 3.6 c 0,0.22091 0.179086,0.4 0.4,0.4 h 3.2 c 0.220914,0 0.4,0.17909 0.4,0.4 v 3.2 c 0,0.22091 -0.179086,0.4 -0.4,0.4 h -3.2 c -0.220914,0 -0.4,0.17909 -0.4,0.4 V 124 h -3.6 c -0.220914,0 -0.4,0.17909 -0.4,0.4 v 3.6 h -3.6 c -0.220914,0 -0.4,-0.17909 -0.4,-0.4 v -3.2 c 0,-0.22091 -0.179086,-0.4 -0.4,-0.4 h -7.2 c -0.220914,0 -0.4,-0.17909 -0.4,-0.4 v -11.2 c 0,-0.22091 0.179086,-0.4 0.4,-0.4 h 3.2 c 0.220914,0 0.4,-0.17909 0.4,-0.4 v -3.2 c 0,-0.22091 0.179086,-0.4 0.4,-0.4 H 56 v 7.6 c 0,0.22091 0.179086,0.4 0.4,0.4 h 3.2 c 0.220914,0 0.4,-0.17909 0.4,-0.4 v -7.2 C 60,108.17909 59.820914,108 59.6,108 H 56 v -3.6 C 56,104.17909 55.820914,104 55.6,104 H 48.4 C 48.179086,104 48,103.82091 48,103.6 V 100 h 3.6 c 0.220914,0 0.4,-0.179086 0.4,-0.4 V 96.4 C 52,96.179086 51.820914,96 51.6,96 H 48 V 92.4 C 48,92.179086 48.179086,92 48.4,92 h 3.2 C 51.820914,92 52,91.820914 52,91.6 V 88.4 C 52,88.179086 51.820914,88 51.6,88 H 48.4 C 48.179086,88 48,87.820914 48,87.6 V 80.4 C 48,80.179086 47.820914,80 47.6,80 H 44 v -4 h 3.6 C 47.820914,76 48,75.820914 48,75.6 V 72 h 4 v 3.6 c 0,0.220914 0.179086,0.4 0.4,0.4 h 7.2 c 0.220914,0 0.4,0.179086 0.4,0.4 v 3.2 c 0,0.220914 0.179086,0.4 0.4,0.4 H 64 v 4 H 60.4 C 60.179086,84 60,84.179086 60,84.4 v 3.2 c 0,0.220914 0.179086,0.4 0.4,0.4 h 3.2 C 63.820914,88 64,87.820914 64,87.6 V 84 h 4 v 3.6 c 0,0.220914 0.179086,0.4 0.4,0.4 h 3.2 C 71.820914,88 72,87.820914 72,87.6 V 84 h 3.6 C 75.820914,84 76,83.820914 76,83.6 V 80 h 4 v 7.6 C 80,87.820914 79.820914,88 79.6,88 H 76.4 C 76.179086,88 76,88.179086 76,88.4 v 11.2 c 0,0.220914 0.179086,0.4 0.4,0.4 h 11.2 c 0.220914,0 0.4,-0.179086 0.4,-0.4 V 96.4 C 88,96.179086 87.820914,96 87.6,96 H 84.4 C 84.179086,96 84,95.820914 84,95.6 V 88.4 C 84,88.179086 84.179086,88 84.4,88 H 92 v 3.6 c 0,0.220914 0.179086,0.4 0.4,0.4 h 3.2 C 95.820914,92 96,91.820914 96,91.6 V 88 h 4 v 7.6 c 0,0.220914 0.17909,0.4 0.4,0.4 h 3.2 c 0.22091,0 0.4,-0.179086 0.4,-0.4 V 88.4 C 104,88.179086 103.82091,88 103.6,88 H 100 v -3.6 c 0,-0.220914 0.17909,-0.4 0.4,-0.4 h 7.2 c 0.22091,0 0.4,0.179086 0.4,0.4 v 11.2 c 0,0.220914 0.17909,0.4 0.4,0.4 h 7.6 v 3.6 c 0,0.220914 0.17909,0.4 0.4,0.4 h 3.6 v 3.6 c 0,0.22091 -0.17909,0.4 -0.4,0.4 h -3.2 c -0.22091,0 -0.4,0.17909 -0.4,0.4 v 3.2 c 0,0.22091 0.17909,0.4 0.4,0.4 h 3.2 c 0.22091,0 0.4,0.17909 0.4,0.4 v 3.2 c 0,0.22091 0.17909,0.4 0.4,0.4 h 3.6 v 3.6 c 0,0.22091 -0.17909,0.4 -0.4,0.4 h -3.2 c -0.22091,0 -0.4,0.17909 -0.4,0.4 v 3.2 c 0,0.22091 0.17909,0.4 0.4,0.4 h 7.2 c 0.22091,0 0.4,0.17909 0.4,0.4 v 7.2 c 0,0.22091 -0.17909,0.4 -0.4,0.4 H 124 v -3.6 c 0,-0.22091 -0.17909,-0.4 -0.4,-0.4 h -3.2 c -0.22091,0 -0.4,0.17909 -0.4,0.4 v 3.2 c 0,0.22091 0.17909,0.4 0.4,0.4 h 3.6 v 3.6 c 0,0.22091 -0.17909,0.4 -0.4,0.4 z m -44,0 H 60.4 C 60.179086,132 60,131.82091 60,131.6 V 128 h 3.6 c 0.220914,0 0.4,-0.17909 0.4,-0.4 V 124 h 4 v 3.6 c 0,0.22091 0.179086,0.4 0.4,0.4 H 80 v 3.6 c 0,0.22091 -0.179086,0.4 -0.4,0.4 z m -36,0 H 16.4 c -0.220914,0 -0.4,-0.17909 -0.4,-0.4 v -27.2 c 0,-0.22091 0.179086,-0.4 0.4,-0.4 h 27.2 c 0.220914,0 0.4,0.17909 0.4,0.4 v 27.2 c 0,0.22091 -0.179086,0.4 -0.4,0.4 z m 44,-4 H 80 v -4 h 8 v 3.6 c 0,0.22091 -0.179086,0.4 -0.4,0.4 z M 40,127.6 V 108.4 C 40,108.17909 39.820914,108 39.6,108 H 20.4 c -0.220914,0 -0.4,0.17909 -0.4,0.4 v 19.2 c 0,0.22091 0.179086,0.4 0.4,0.4 h 19.2 c 0.220914,0 0.4,-0.17909 0.4,-0.4 z M 79.6,124 H 76.4 C 76.179086,124 76,123.82091 76,123.6 V 120 h 4 v 4 z m -8,0 H 68 v -7.6 c 0,-0.22091 0.179086,-0.4 0.4,-0.4 h 3.2 c 0.220914,0 0.4,-0.17909 0.4,-0.4 v -3.2 c 0,-0.22091 0.179086,-0.4 0.4,-0.4 h 3.2 c 0.220914,0 0.4,0.17909 0.4,0.4 v 7.6 h -3.6 c -0.220914,0 -0.4,0.17909 -0.4,0.4 v 3.2 c 0,0.22091 -0.179086,0.4 -0.4,0.4 z m -36,0 H 24.4 c -0.220914,0 -0.4,-0.17909 -0.4,-0.4 v -11.2 c 0,-0.22091 0.179086,-0.4 0.4,-0.4 h 11.2 c 0.220914,0 0.4,0.17909 0.4,0.4 v 11.2 c 0,0.22091 -0.179086,0.4 -0.4,0.4 z m 80.4,-4.4 v -3.2 c 0,-0.22091 -0.17909,-0.4 -0.4,-0.4 h -3.2 c -0.22091,0 -0.4,0.17909 -0.4,0.4 v 3.2 c 0,0.22091 0.17909,0.4 0.4,0.4 h 3.2 c 0.22091,0 0.4,-0.17909 0.4,-0.4 z m -8,0 v -3.2 c 0,-0.22091 -0.17909,-0.4 -0.4,-0.4 h -3.2 c -0.22091,0 -0.4,0.17909 -0.4,0.4 v 3.2 c 0,0.22091 0.17909,0.4 0.4,0.4 h 3.2 c 0.22091,0 0.4,-0.17909 0.4,-0.4 z m 23.6,-3.6 h -3.2 c -0.22091,0 -0.4,-0.17909 -0.4,-0.4 v -3.2 c 0,-0.22091 -0.17909,-0.4 -0.4,-0.4 H 124 v -3.6 c 0,-0.22091 0.17909,-0.4 0.4,-0.4 h 7.2 c 0.22091,0 0.4,0.17909 0.4,0.4 v 7.2 c 0,0.22091 -0.17909,0.4 -0.4,0.4 z M 96,115.6 v -3.2 c 0,-0.22091 -0.179086,-0.4 -0.4,-0.4 h -7.2 c -0.220914,0 -0.4,0.17909 -0.4,0.4 v 3.2 c 0,0.22091 0.179086,0.4 0.4,0.4 h 7.2 c 0.220914,0 0.4,-0.17909 0.4,-0.4 z m 16,-4 v -11.2 c 0,-0.22091 -0.17909,-0.4 -0.4,-0.4 h -11.2 c -0.22091,0 -0.4,0.17909 -0.4,0.4 v 11.2 c 0,0.22091 0.17909,0.4 0.4,0.4 h 11.2 c 0.22091,0 0.4,-0.17909 0.4,-0.4 z m -4.4,-3.6 h -3.2 c -0.22091,0 -0.4,-0.17909 -0.4,-0.4 v -3.2 c 0,-0.22091 0.17909,-0.4 0.4,-0.4 h 3.2 c 0.22091,0 0.4,0.17909 0.4,0.4 v 3.2 c 0,0.22091 -0.17909,0.4 -0.4,0.4 z m 24,-4 h -7.2 c -0.22091,0 -0.4,-0.17909 -0.4,-0.4 v -3.2 c 0,-0.22091 -0.17909,-0.4 -0.4,-0.4 H 120 v -4 h 3.6 c 0.22091,0 0.4,-0.179086 0.4,-0.4 V 92 h 3.6 c 0.22091,0 0.4,0.179086 0.4,0.4 v 3.2 c 0,0.220914 0.17909,0.4 0.4,0.4 h 3.2 c 0.22091,0 0.4,0.179086 0.4,0.4 v 7.2 c 0,0.22091 -0.17909,0.4 -0.4,0.4 z M 96,99.6 V 96.4 C 96,96.179086 95.820914,96 95.6,96 H 92.4 C 92.179086,96 92,96.179086 92,96.4 v 3.2 c 0,0.220914 0.179086,0.4 0.4,0.4 h 3.2 c 0.220914,0 0.4,-0.179086 0.4,-0.4 z M 47.6,100 H 36.4 C 36.179086,100 36,99.820914 36,99.6 V 96.4 C 36,96.179086 36.179086,96 36.4,96 H 48 v 4 z m -20,0 H 24.4 C 24.179086,100 24,99.820914 24,99.6 V 88.4 C 24,88.179086 24.179086,88 24.4,88 H 28 v 3.6 c 0,0.220914 0.179086,0.4 0.4,0.4 h 3.2 c 0.220914,0 0.4,0.179086 0.4,0.4 v 3.2 C 32,95.820914 31.820914,96 31.6,96 H 28.4 C 28.179086,96 28,96.179086 28,96.4 v 3.2 c 0,0.220914 -0.179086,0.4 -0.4,0.4 z m -8,0 H 16.4 C 16.179086,100 16,99.820914 16,99.6 V 68.4 C 16,68.179086 16.179086,68 16.4,68 H 20 v 3.6 c 0,0.220914 0.179086,0.4 0.4,0.4 h 15.2 c 0.220914,0 0.4,0.179086 0.4,0.4 v 3.2 c 0,0.220914 0.179086,0.4 0.4,0.4 H 40 v 3.6 c 0,0.220914 0.179086,0.4 0.4,0.4 H 44 v 3.6 C 44,83.820914 43.820914,84 43.6,84 H 40.4 C 40.179086,84 40,84.179086 40,84.4 v 3.2 c 0,0.220914 0.179086,0.4 0.4,0.4 h 3.2 c 0.220914,0 0.4,0.179086 0.4,0.4 v 3.2 C 44,91.820914 43.820914,92 43.6,92 H 36.4 C 36.179086,92 36,91.820914 36,91.6 V 88.4 C 36,88.179086 35.820914,88 35.6,88 H 28 V 84.4 C 28,84.179086 28.179086,84 28.4,84 h 7.2 C 35.820914,84 36,83.820914 36,83.6 V 80.4 C 36,80.179086 35.820914,80 35.6,80 H 32.4 C 32.179086,80 32,79.820914 32,79.6 V 76.4 C 32,76.179086 31.820914,76 31.6,76 H 24.4 C 24.179086,76 24,76.179086 24,76.4 v 3.2 C 24,79.820914 23.820914,80 23.6,80 H 20.4 C 20.179086,80 20,80.179086 20,80.4 v 19.2 c 0,0.220914 -0.179086,0.4 -0.4,0.4 z m 100,-4 H 116 v -3.6 c 0,-0.220914 -0.17909,-0.4 -0.4,-0.4 h -3.2 c -0.22091,0 -0.4,-0.179086 -0.4,-0.4 v -7.2 c 0,-0.220914 0.17909,-0.4 0.4,-0.4 h 3.2 c 0.22091,0 0.4,-0.179086 0.4,-0.4 v -3.2 c 0,-0.220914 -0.17909,-0.4 -0.4,-0.4 h -3.2 C 112.17909,80 112,79.820914 112,79.6 V 76 h 7.6 c 0.22091,0 0.4,0.179086 0.4,0.4 v 3.2 c 0,0.220914 0.17909,0.4 0.4,0.4 h 3.6 v 3.6 c 0,0.220914 0.17909,0.4 0.4,0.4 h 3.2 c 0.22091,0 0.4,-0.179086 0.4,-0.4 V 80.4 C 128,80.179086 127.82091,80 127.6,80 H 124 v -3.6 c 0,-0.220914 0.17909,-0.4 0.4,-0.4 h 7.2 c 0.22091,0 0.4,0.179086 0.4,0.4 v 11.2 c 0,0.220914 -0.17909,0.4 -0.4,0.4 h -7.2 c -0.22091,0 -0.4,0.179086 -0.4,0.4 V 92 h -3.6 c -0.22091,0 -0.4,0.179086 -0.4,0.4 V 96 Z m -24,-8 H 92 V 84.4 C 92,84.179086 92.179086,84 92.4,84 h 3.2 c 0.220914,0 0.4,0.179086 0.4,0.4 V 88 Z m -8,-4 H 84.4 C 84.179086,84 84,83.820914 84,83.6 V 80.4 C 84,80.179086 83.820914,80 83.6,80 H 80 v -4 h 23.6 c 0.22091,0 0.4,-0.179086 0.4,-0.4 V 72.4 C 104,72.179086 103.82091,72 103.6,72 H 92.4 C 92.179086,72 92,71.820914 92,71.6 V 68.4 C 92,68.179086 91.820914,68 91.6,68 H 88 v -4 h 8 v 3.6 c 0,0.220914 0.179086,0.4 0.4,0.4 h 3.2 c 0.220914,0 0.4,-0.179086 0.4,-0.4 V 64.4 C 100,64.179086 99.820914,64 99.6,64 H 96 V 56.4 C 96,56.179086 95.820914,56 95.6,56 H 80 v -4 h 7.6 C 87.820914,52 88,51.820914 88,51.6 V 48.4 C 88,48.179086 88.179086,48 88.4,48 h 3.2 c 0.220914,0 0.4,0.179086 0.4,0.4 v 3.2 c 0,0.220914 0.179086,0.4 0.4,0.4 h 3.2 C 95.820914,52 96,51.820914 96,51.6 V 36 h 3.6 c 0.220914,0 0.4,0.179086 0.4,0.4 v 11.2 c 0,0.220914 0.17909,0.4 0.4,0.4 h 11.2 c 0.22091,0 0.4,0.179086 0.4,0.4 v 3.2 c 0,0.220914 0.17909,0.4 0.4,0.4 h 7.2 c 0.22091,0 0.4,-0.179086 0.4,-0.4 v -3.2 c 0,-0.220914 0.17909,-0.4 0.4,-0.4 h 11.2 c 0.22091,0 0.4,0.179086 0.4,0.4 v 7.2 c 0,0.220914 -0.17909,0.4 -0.4,0.4 h -3.2 c -0.22091,0 -0.4,-0.179086 -0.4,-0.4 v -3.2 c 0,-0.220914 -0.17909,-0.4 -0.4,-0.4 h -3.2 c -0.22091,0 -0.4,0.179086 -0.4,0.4 v 3.2 c 0,0.220914 -0.17909,0.4 -0.4,0.4 h -7.2 c -0.22091,0 -0.4,0.179086 -0.4,0.4 v 3.2 c 0,0.220914 -0.17909,0.4 -0.4,0.4 h -3.2 c -0.22091,0 -0.4,0.179086 -0.4,0.4 V 68 h -4 v -3.6 c 0,-0.220914 -0.17909,-0.4 -0.4,-0.4 h -3.2 c -0.22091,0 -0.4,0.179086 -0.4,0.4 v 3.2 c 0,0.220914 0.17909,0.4 0.4,0.4 h 3.6 v 3.6 c 0,0.220914 0.17909,0.4 0.4,0.4 h 3.6 v 4 h -3.6 c -0.22091,0 -0.4,0.179086 -0.4,0.4 v 3.2 c 0,0.220914 -0.17909,0.4 -0.4,0.4 H 88.4 C 88.179086,80 88,80.179086 88,80.4 v 3.2 c 0,0.220914 -0.179086,0.4 -0.4,0.4 z m -16,0 H 68 v -4 h 4 v 4 z M 56,83.6 V 80.4 C 56,80.179086 55.820914,80 55.6,80 H 52.4 C 52.179086,80 52,80.179086 52,80.4 v 3.2 c 0,0.220914 0.179086,0.4 0.4,0.4 h 3.2 C 55.820914,84 56,83.820914 56,83.6 Z M 75.6,80 H 72 V 76.4 C 72,76.179086 72.179086,76 72.4,76 H 76 v 4 z m -8,0 H 64 V 68.4 C 64,68.179086 64.179086,68 64.4,68 h 3.2 C 67.820914,68 68,67.820914 68,67.6 V 64.4 C 68,64.179086 68.179086,64 68.4,64 H 84 v 3.6 c 0,0.220914 0.179086,0.4 0.4,0.4 H 88 v 3.6 C 88,71.820914 87.820914,72 87.6,72 H 80 V 68.4 C 80,68.179086 79.820914,68 79.6,68 H 72.4 C 72.179086,68 72,68.179086 72,68.4 v 3.2 C 72,71.820914 71.820914,72 71.6,72 H 68.4 C 68.179086,72 68,72.179086 68,72.4 V 80 Z m 12,-4 H 76 V 72.4 C 76,72.179086 76.179086,72 76.4,72 H 80 v 4 z m -36,0 H 40 V 72.4 C 40,72.179086 40.179086,72 40.4,72 H 44 v 4 z m 88,-4 h -7.2 C 124.17909,72 124,71.820914 124,71.6 V 68.4 C 124,68.179086 123.82091,68 123.6,68 H 120 v -3.6 c 0,-0.220914 0.17909,-0.4 0.4,-0.4 h 3.2 c 0.22091,0 0.4,-0.179086 0.4,-0.4 v -3.2 c 0,-0.220914 0.17909,-0.4 0.4,-0.4 h 3.2 c 0.22091,0 0.4,0.179086 0.4,0.4 v 3.2 c 0,0.220914 0.17909,0.4 0.4,0.4 h 3.2 c 0.22091,0 0.4,0.179086 0.4,0.4 v 7.2 c 0,0.220914 -0.17909,0.4 -0.4,0.4 z m -12,0 H 112 v -4 h 8 v 3.6 c 0,0.220914 -0.17909,0.4 -0.4,0.4 z m -60,0 H 52 V 68.4 C 52,68.179086 51.820914,68 51.6,68 H 48.4 C 48.179086,68 48,68.179086 48,68.4 V 72 H 44 V 68.4 C 44,68.179086 43.820914,68 43.6,68 H 20 v -4 h 3.6 C 23.820914,64 24,63.820914 24,63.6 V 60 h 4 v 3.6 c 0,0.220914 0.179086,0.4 0.4,0.4 H 43.6 C 43.820914,64 44,63.820914 44,63.6 V 60.4 C 44,60.179086 43.820914,60 43.6,60 H 28 V 56 H 43.6 C 43.820914,56 44,55.820914 44,55.6 V 52 h 3.6 C 47.820914,52 48,51.820914 48,51.6 V 36.4 C 48,36.179086 48.179086,36 48.4,36 h 3.2 c 0.220914,0 0.4,0.179086 0.4,0.4 v 7.2 c 0,0.220914 0.179086,0.4 0.4,0.4 h 3.2 C 55.820914,44 56,43.820914 56,43.6 V 40.4 C 56,40.179086 56.179086,40 56.4,40 H 60 v 3.6 c 0,0.220914 0.179086,0.4 0.4,0.4 h 3.2 C 63.820914,44 64,43.820914 64,43.6 V 40.4 C 64,40.179086 63.820914,40 63.6,40 H 60 V 32.4 C 60,32.179086 60.179086,32 60.4,32 h 7.2 c 0.220914,0 0.4,0.179086 0.4,0.4 v 3.2 c 0,0.220914 0.179086,0.4 0.4,0.4 h 3.2 C 71.820914,36 72,35.820914 72,35.6 V 28 h 3.6 c 0.220914,0 0.4,0.179086 0.4,0.4 v 3.2 c 0,0.220914 0.179086,0.4 0.4,0.4 h 7.2 C 83.820914,32 84,31.820914 84,31.6 V 28.4 C 84,28.179086 84.179086,28 84.4,28 h 7.2 c 0.220914,0 0.4,0.179086 0.4,0.4 v 3.2 c 0,0.220914 0.179086,0.4 0.4,0.4 H 96 v 4 H 92.4 C 92.179086,36 92,36.179086 92,36.4 v 7.2 C 92,43.820914 91.820914,44 91.6,44 H 88.4 C 88.179086,44 88,43.820914 88,43.6 V 36.4 C 88,36.179086 87.820914,36 87.6,36 H 84.4 C 84.179086,36 84,36.179086 84,36.4 v 7.2 C 84,43.820914 83.820914,44 83.6,44 H 80 V 40.4 C 80,40.179086 79.820914,40 79.6,40 H 76.4 C 76.179086,40 76,40.179086 76,40.4 v 3.2 c 0,0.220914 0.179086,0.4 0.4,0.4 H 80 v 8 H 76.4 C 76.179086,52 76,51.820914 76,51.6 V 48.4 C 76,48.179086 75.820914,48 75.6,48 H 72 V 40.4 C 72,40.179086 71.820914,40 71.6,40 H 68.4 C 68.179086,40 68,40.179086 68,40.4 V 48 H 56.4 C 56.179086,48 56,48.179086 56,48.4 v 3.2 C 56,51.820914 55.820914,52 55.6,52 H 52.4 C 52.179086,52 52,52.179086 52,52.4 V 56 H 48.4 C 48.179086,56 48,56.179086 48,56.4 v 3.2 c 0,0.220914 0.179086,0.4 0.4,0.4 H 52 v 3.6 c 0,0.220914 0.179086,0.4 0.4,0.4 h 7.2 c 0.220914,0 0.4,0.179086 0.4,0.4 v 7.2 c 0,0.220914 -0.179086,0.4 -0.4,0.4 z m 28,-8 H 84 V 60.4 C 84,60.179086 84.179086,60 84.4,60 h 3.2 c 0.220914,0 0.4,0.179086 0.4,0.4 V 64 Z m -68,0 H 16.4 C 16.179086,64 16,63.820914 16,63.6 V 52.4 C 16,52.179086 16.179086,52 16.4,52 h 3.2 c 0.220914,0 0.4,0.179086 0.4,0.4 v 3.2 c 0,0.220914 0.179086,0.4 0.4,0.4 H 24 v 4 H 20.4 C 20.179086,60 20,60.179086 20,60.4 V 64 Z m 60,-4 H 76.4 C 76.179086,60 76,59.820914 76,59.6 V 56.4 C 76,56.179086 76.179086,56 76.4,56 H 80 v 3.6 c 0,0.220914 -0.179086,0.4 -0.4,0.4 z m -8,0 H 64.4 C 64.179086,60 64,59.820914 64,59.6 V 56.4 C 64,56.179086 63.820914,56 63.6,56 H 60.4 C 60.179086,56 60,55.820914 60,55.6 V 52.4 C 60,52.179086 60.179086,52 60.4,52 h 7.2 C 67.820914,52 68,51.820914 68,51.6 V 48 h 4 v 11.6 c 0,0.220914 -0.179086,0.4 -0.4,0.4 z m -16,0 H 52 v -4 h 3.6 c 0.220914,0 0.4,0.179086 0.4,0.4 v 3.2 c 0,0.220914 -0.179086,0.4 -0.4,0.4 z m -28,-4 H 24 V 48.4 C 24,48.179086 24.179086,48 24.4,48 h 11.2 c 0.220914,0 0.4,0.179086 0.4,0.4 v 3.2 C 36,51.820914 35.820914,52 35.6,52 H 28.4 C 28.179086,52 28,52.179086 28,52.4 V 56 Z m 16,-4 H 40.4 C 40.179086,52 40,51.820914 40,51.6 V 48.4 C 40,48.179086 40.179086,48 40.4,48 h 3.2 c 0.220914,0 0.4,0.179086 0.4,0.4 V 52 Z m 88,-8 H 104.4 C 104.17909,44 104,43.820914 104,43.6 V 16.4 c 0,-0.220914 0.17909,-0.4 0.4,-0.4 h 27.2 c 0.22091,0 0.4,0.179086 0.4,0.4 v 27.2 c 0,0.220914 -0.17909,0.4 -0.4,0.4 z m -88,0 H 16.4 C 16.179086,44 16,43.820914 16,43.6 V 16.4 C 16,16.179086 16.179086,16 16.4,16 h 27.2 c 0.220914,0 0.4,0.179086 0.4,0.4 V 43.6 C 44,43.820914 43.820914,44 43.6,44 Z M 128,39.6 V 20.4 c 0,-0.220914 -0.17909,-0.4 -0.4,-0.4 h -19.2 c -0.22091,0 -0.4,0.179086 -0.4,0.4 v 19.2 c 0,0.220914 0.17909,0.4 0.4,0.4 h 19.2 c 0.22091,0 0.4,-0.179086 0.4,-0.4 z m -88,0 V 20.4 C 40,20.179086 39.820914,20 39.6,20 H 20.4 C 20.179086,20 20,20.179086 20,20.4 v 19.2 c 0,0.220914 0.179086,0.4 0.4,0.4 H 39.6 C 39.820914,40 40,39.820914 40,39.6 Z M 123.6,36 H 112.4 C 112.17909,36 112,35.820914 112,35.6 V 24.4 c 0,-0.220914 0.17909,-0.4 0.4,-0.4 h 11.2 c 0.22091,0 0.4,0.179086 0.4,0.4 v 11.2 c 0,0.220914 -0.17909,0.4 -0.4,0.4 z m -88,0 H 24.4 C 24.179086,36 24,35.820914 24,35.6 V 24.4 C 24,24.179086 24.179086,24 24.4,24 h 11.2 c 0.220914,0 0.4,0.179086 0.4,0.4 v 11.2 c 0,0.220914 -0.179086,0.4 -0.4,0.4 z m 64,-4 H 96 V 20.4 C 96,20.179086 95.820914,20 95.6,20 H 92.4 C 92.179086,20 92,20.179086 92,20.4 v 3.2 C 92,23.820914 91.820914,24 91.6,24 H 76.4 C 76.179086,24 76,23.820914 76,23.6 V 20.4 C 76,20.179086 76.179086,20 76.4,20 h 3.2 C 79.820914,20 80,19.820914 80,19.6 V 16.4 C 80,16.179086 80.179086,16 80.4,16 h 3.2 c 0.220914,0 0.4,0.179086 0.4,0.4 v 3.2 c 0,0.220914 0.179086,0.4 0.4,0.4 h 3.2 C 87.820914,20 88,19.820914 88,19.6 V 16.4 C 88,16.179086 88.179086,16 88.4,16 h 11.2 c 0.220914,0 0.4,0.179086 0.4,0.4 v 15.2 c 0,0.220914 -0.179086,0.4 -0.4,0.4 z m -44,0 H 52.4 C 52.179086,32 52,31.820914 52,31.6 V 28.4 C 52,28.179086 51.820914,28 51.6,28 H 48.4 C 48.179086,28 48,27.820914 48,27.6 V 16.4 C 48,16.179086 48.179086,16 48.4,16 h 3.2 c 0.220914,0 0.4,0.179086 0.4,0.4 v 7.2 c 0,0.220914 0.179086,0.4 0.4,0.4 h 3.2 C 55.820914,24 56,23.820914 56,23.6 V 16.4 C 56,16.179086 56.179086,16 56.4,16 h 3.2 c 0.220914,0 0.4,0.179086 0.4,0.4 V 27.6 C 60,27.820914 59.820914,28 59.6,28 H 56.4 C 56.179086,28 56,28.179086 56,28.4 v 3.2 c 0,0.220914 -0.179086,0.4 -0.4,0.4 z m 16,-4 H 64.4 C 64.179086,28 64,27.820914 64,27.6 V 24.4 C 64,24.179086 64.179086,24 64.4,24 h 3.2 C 67.820914,24 68,23.820914 68,23.6 V 16.4 C 68,16.179086 68.179086,16 68.4,16 h 3.2 c 0.220914,0 0.4,0.179086 0.4,0.4 V 28 Z"
           id="path6513"
           style="fill:#ffffff;fill-opacity:1" />
      </g>
    </g>
  </g>
</svg>
